<svg width="32" height="32" viewBox="0 0 32 32" fill="none" xmlns="http://www.w3.org/2000/svg">
    <path d="M11.8724 2.82169C11.8366 1.29958 13.0415 0.0366142 14.5636 0.000778605C16.0857 -0.0350456 17.3486 1.16982 17.3845 2.69194L17.4106 3.80223C17.8965 2.9448 18.829 2.37828 19.8825 2.40917C21.4006 2.45369 22.5943 3.72173 22.5473 5.23973L22.2557 14.6608L23.9109 12.6074C24.9052 11.374 26.7104 11.1786 27.9455 12.1709C29.1834 13.1654 29.3794 14.9758 28.3828 16.212L27.6718 17.0941L27.6648 17.1042C27.0112 17.9414 25.6731 19.6553 23.9942 22.4268C23.4527 23.2391 22.9821 24.1068 22.5125 24.973C21.8427 26.2082 21.1746 27.4403 20.3045 28.5043C18.575 30.6369 15.9336 32 12.9739 32C9.38479 32 6.26383 29.9956 4.66939 27.0451L4.66408 27.0542C3.21076 24.4508 2.99678 21.5708 2.92545 20.0284L2.76896 17.2415C2.76019 17.17 2.7542 17.0976 2.75109 17.0242L2.40283 8.81935C2.34072 7.35625 3.47217 6.11779 4.9349 6.04778C5.76985 6.00781 6.53333 6.35704 7.04956 6.93573L6.99588 5.33132C6.94656 3.8569 8.10183 2.62166 9.57629 2.57234C10.5388 2.54013 11.3995 3.02138 11.8948 3.76966L11.8724 2.82169Z" fill="#FFC23E"/>
    <path d="M11.8724 2.82169C11.8366 1.29958 13.0415 0.0366142 14.5636 0.000778605C16.0857 -0.0350456 17.3486 1.16982 17.3845 2.69194L17.4106 3.80223C17.8965 2.9448 18.829 2.37828 19.8825 2.40917C21.4006 2.45369 22.5943 3.72173 22.5473 5.23973L22.2557 14.6608L23.9109 12.6074C24.9052 11.374 26.7104 11.1786 27.9455 12.1709C29.1834 13.1654 29.3794 14.9758 28.3828 16.212L27.6718 17.0941L27.6648 17.1042C27.0112 17.9414 25.6731 19.6553 23.9942 22.4268C23.4527 23.2391 22.9821 24.1068 22.5125 24.973C21.8427 26.2082 21.1746 27.4403 20.3045 28.5043C18.575 30.6369 15.9336 32 12.9739 32C9.38479 32 6.26383 29.9956 4.66939 27.0451L4.66408 27.0542C3.21076 24.4508 2.99678 21.5708 2.92545 20.0284L2.76896 17.2415C2.76019 17.17 2.7542 17.0976 2.75109 17.0242L2.40283 8.81935C2.34072 7.35625 3.47217 6.11779 4.9349 6.04778C5.76985 6.00781 6.53333 6.35704 7.04956 6.93573L6.99588 5.33132C6.94656 3.8569 8.10183 2.62166 9.57629 2.57234C10.5388 2.54013 11.3995 3.02138 11.8948 3.76966L11.8724 2.82169Z" fill="url(#paint0_radial_265_683)"/>
    <path d="M11.8724 2.82169C11.8366 1.29958 13.0415 0.0366142 14.5636 0.000778605C16.0857 -0.0350456 17.3486 1.16982 17.3845 2.69194L17.4106 3.80223C17.8965 2.9448 18.829 2.37828 19.8825 2.40917C21.4006 2.45369 22.5943 3.72173 22.5473 5.23973L22.2557 14.6608L23.9109 12.6074C24.9052 11.374 26.7104 11.1786 27.9455 12.1709C29.1834 13.1654 29.3794 14.9758 28.3828 16.212L27.6718 17.0941L27.6648 17.1042C27.0112 17.9414 25.6731 19.6553 23.9942 22.4268C23.4527 23.2391 22.9821 24.1068 22.5125 24.973C21.8427 26.2082 21.1746 27.4403 20.3045 28.5043C18.575 30.6369 15.9336 32 12.9739 32C9.38479 32 6.26383 29.9956 4.66939 27.0451L4.66408 27.0542C3.21076 24.4508 2.99678 21.5708 2.92545 20.0284L2.76896 17.2415C2.76019 17.17 2.7542 17.0976 2.75109 17.0242L2.40283 8.81935C2.34072 7.35625 3.47217 6.11779 4.9349 6.04778C5.76985 6.00781 6.53333 6.35704 7.04956 6.93573L6.99588 5.33132C6.94656 3.8569 8.10183 2.62166 9.57629 2.57234C10.5388 2.54013 11.3995 3.02138 11.8948 3.76966L11.8724 2.82169Z" fill="url(#paint1_radial_265_683)"/>
    <path d="M11.8724 2.82169C11.8366 1.29958 13.0415 0.0366142 14.5636 0.000778605C16.0857 -0.0350456 17.3486 1.16982 17.3845 2.69194L17.4106 3.80223C17.8965 2.9448 18.829 2.37828 19.8825 2.40917C21.4006 2.45369 22.5943 3.72173 22.5473 5.23973L22.2557 14.6608L23.9109 12.6074C24.9052 11.374 26.7104 11.1786 27.9455 12.1709C29.1834 13.1654 29.3794 14.9758 28.3828 16.212L27.6718 17.0941L27.6648 17.1042C27.0112 17.9414 25.6731 19.6553 23.9942 22.4268C23.4527 23.2391 22.9821 24.1068 22.5125 24.973C21.8427 26.2082 21.1746 27.4403 20.3045 28.5043C18.575 30.6369 15.9336 32 12.9739 32C9.38479 32 6.26383 29.9956 4.66939 27.0451L4.66408 27.0542C3.21076 24.4508 2.99678 21.5708 2.92545 20.0284L2.76896 17.2415C2.76019 17.17 2.7542 17.0976 2.75109 17.0242L2.40283 8.81935C2.34072 7.35625 3.47217 6.11779 4.9349 6.04778C5.76985 6.00781 6.53333 6.35704 7.04956 6.93573L6.99588 5.33132C6.94656 3.8569 8.10183 2.62166 9.57629 2.57234C10.5388 2.54013 11.3995 3.02138 11.8948 3.76966L11.8724 2.82169Z" fill="url(#paint2_radial_265_683)"/>
    <path d="M11.8724 2.82169C11.8366 1.29958 13.0415 0.0366142 14.5636 0.000778605C16.0857 -0.0350456 17.3486 1.16982 17.3845 2.69194L17.4106 3.80223C17.8965 2.9448 18.829 2.37828 19.8825 2.40917C21.4006 2.45369 22.5943 3.72173 22.5473 5.23973L22.2557 14.6608L23.9109 12.6074C24.9052 11.374 26.7104 11.1786 27.9455 12.1709C29.1834 13.1654 29.3794 14.9758 28.3828 16.212L27.6718 17.0941L27.6648 17.1042C27.0112 17.9414 25.6731 19.6553 23.9942 22.4268C23.4527 23.2391 22.9821 24.1068 22.5125 24.973C21.8427 26.2082 21.1746 27.4403 20.3045 28.5043C18.575 30.6369 15.9336 32 12.9739 32C9.38479 32 6.26383 29.9956 4.66939 27.0451L4.66408 27.0542C3.21076 24.4508 2.99678 21.5708 2.92545 20.0284L2.76896 17.2415C2.76019 17.17 2.7542 17.0976 2.75109 17.0242L2.40283 8.81935C2.34072 7.35625 3.47217 6.11779 4.9349 6.04778C5.76985 6.00781 6.53333 6.35704 7.04956 6.93573L6.99588 5.33132C6.94656 3.8569 8.10183 2.62166 9.57629 2.57234C10.5388 2.54013 11.3995 3.02138 11.8948 3.76966L11.8724 2.82169Z" fill="url(#paint3_radial_265_683)"/>
    <path d="M2.61696 13.8647L2.40283 8.81953C2.34072 7.35643 3.47217 6.11798 4.9349 6.04796C5.76985 6.008 6.53333 6.35722 7.04956 6.93591L7.04925 6.92643C7.25327 7.19677 7.56544 7.77473 7.61532 8.63373C7.67951 9.73934 7.8085 12.4765 7.86497 13.7071L2.61696 13.8647Z" fill="url(#paint4_linear_265_683)"/>
    <path d="M2.61696 13.8647L2.40283 8.81953C2.34072 7.35643 3.47217 6.11798 4.9349 6.04796C5.76985 6.008 6.53333 6.35722 7.04956 6.93591L7.04925 6.92643C7.25327 7.19677 7.56544 7.77473 7.61532 8.63373C7.67951 9.73934 7.8085 12.4765 7.86497 13.7071L2.61696 13.8647Z" fill="url(#paint5_linear_265_683)"/>
    <path d="M2.61696 13.8647L2.40283 8.81953C2.34072 7.35643 3.47217 6.11798 4.9349 6.04796C5.76985 6.008 6.53333 6.35722 7.04956 6.93591L7.04925 6.92643C7.25327 7.19677 7.56544 7.77473 7.61532 8.63373C7.67951 9.73934 7.8085 12.4765 7.86497 13.7071L2.61696 13.8647Z" fill="url(#paint6_radial_265_683)"/>
    <path d="M5.78732 8.52652C5.6728 7.30501 5.05619 7.04647 4.53906 7.04647C5.92998 6.44018 6.96425 7.26046 7.07124 8.52652L7.51704 14.4468L5.28802 16.6402L6.16179 14.1437C6.16179 12.7409 5.89431 9.66781 5.78732 8.52652Z" fill="#FFD93F"/>
    <path d="M7.04902 6.9253C7.25305 7.19564 7.56521 7.77361 7.61509 8.63261C7.65481 9.31664 7.87887 13.1097 8.00594 15.0726L12.7741 13.7348L12.2681 5.88237C12.2485 5.16202 12.2552 4.41586 11.8945 3.76872C11.3993 3.02044 10.5386 2.5392 9.57601 2.57141C8.10159 2.62073 6.94634 3.85597 6.99566 5.33038L7.04902 6.9253Z" fill="url(#paint7_linear_265_683)"/>
    <path d="M7.04902 6.9253C7.25305 7.19564 7.56521 7.77361 7.61509 8.63261C7.65481 9.31664 7.87887 13.1097 8.00594 15.0726L12.7741 13.7348L12.2681 5.88237C12.2485 5.16202 12.2552 4.41586 11.8945 3.76872C11.3993 3.02044 10.5386 2.5392 9.57601 2.57141C8.10159 2.62073 6.94634 3.85597 6.99566 5.33038L7.04902 6.9253Z" fill="url(#paint8_linear_265_683)"/>
    <path d="M7.04902 6.9253C7.25305 7.19564 7.56521 7.77361 7.61509 8.63261C7.65481 9.31664 7.87887 13.1097 8.00594 15.0726L12.7741 13.7348L12.2681 5.88237C12.2485 5.16202 12.2552 4.41586 11.8945 3.76872C11.3993 3.02044 10.5386 2.5392 9.57601 2.57141C8.10159 2.62073 6.94634 3.85597 6.99566 5.33038L7.04902 6.9253Z" fill="url(#paint9_linear_265_683)"/>
    <path d="M7.04902 6.9253C7.25305 7.19564 7.56521 7.77361 7.61509 8.63261C7.65481 9.31664 7.87887 13.1097 8.00594 15.0726L12.7741 13.7348L12.2681 5.88237C12.2485 5.16202 12.2552 4.41586 11.8945 3.76872C11.3993 3.02044 10.5386 2.5392 9.57601 2.57141C8.10159 2.62073 6.94634 3.85597 6.99566 5.33038L7.04902 6.9253Z" fill="url(#paint10_radial_265_683)"/>
    <path d="M10.3499 4.89156C10.2353 3.67006 9.61867 3.41152 9.10156 3.41152C10.4925 2.80523 11.5267 3.62552 11.6338 4.89156L12.1226 12.502L9.82432 13.5653L10.4813 12.1106C10.6813 11.6677 10.7862 11.1884 10.7667 10.703C10.6965 8.96092 10.4417 5.87147 10.3499 4.89156Z" fill="#FFD141"/>
    <path d="M17.1075 4.91141C17.1075 4.38948 17.2977 3.92584 17.4092 3.79656L17.4098 3.79254L17.3839 2.69194C17.3482 1.16982 16.0852 -0.0350456 14.5631 0.000778605C13.041 0.0366142 11.836 1.29958 11.8719 2.82169L11.8942 3.76964C12.2305 4.3729 12.2475 5.06221 12.2641 5.73643C12.3151 7.80257 12.5731 10.4983 12.7059 12.5609H16.9703C16.9989 10.317 17.1075 5.64661 17.1075 4.91141Z" fill="url(#paint11_linear_265_683)"/>
    <path d="M17.1075 4.91141C17.1075 4.38948 17.2977 3.92584 17.4092 3.79656L17.4098 3.79254L17.3839 2.69194C17.3482 1.16982 16.0852 -0.0350456 14.5631 0.000778605C13.041 0.0366142 11.836 1.29958 11.8719 2.82169L11.8942 3.76964C12.2305 4.3729 12.2475 5.06221 12.2641 5.73643C12.3151 7.80257 12.5731 10.4983 12.7059 12.5609H16.9703C16.9989 10.317 17.1075 5.64661 17.1075 4.91141Z" fill="url(#paint12_linear_265_683)"/>
    <path d="M17.1075 4.91141C17.1075 4.38948 17.2977 3.92584 17.4092 3.79656L17.4098 3.79254L17.3839 2.69194C17.3482 1.16982 16.0852 -0.0350456 14.5631 0.000778605C13.041 0.0366142 11.836 1.29958 11.8719 2.82169L11.8942 3.76964C12.2305 4.3729 12.2475 5.06221 12.2641 5.73643C12.3151 7.80257 12.5731 10.4983 12.7059 12.5609H16.9703C16.9989 10.317 17.1075 5.64661 17.1075 4.91141Z" fill="url(#paint13_linear_265_683)"/>
    <path d="M17.1075 4.91141C17.1075 4.38948 17.2977 3.92584 17.4092 3.79656L17.4098 3.79254L17.3839 2.69194C17.3482 1.16982 16.0852 -0.0350456 14.5631 0.000778605C13.041 0.0366142 11.836 1.29958 11.8719 2.82169L11.8942 3.76964C12.2305 4.3729 12.2475 5.06221 12.2641 5.73643C12.3151 7.80257 12.5731 10.4983 12.7059 12.5609H16.9703C16.9989 10.317 17.1075 5.64661 17.1075 4.91141Z" fill="url(#paint14_radial_265_683)"/>
    <path d="M15.0713 1.17312V12.7112H16.444C16.5059 10.2873 16.6295 5.00925 16.6295 3.28781C16.6295 1.56638 15.5907 1.16075 15.0713 1.17312Z" fill="#FFD140"/>
    <path d="M17.4096 3.79611C17.2981 3.9254 17.1079 4.38904 17.1079 4.91096C17.1079 7.88488 16.9707 10.0696 16.9707 13.0439L22.2557 16.8281V14.6583L22.5473 5.23928C22.5943 3.72128 21.4004 2.45326 19.8824 2.40874C18.8289 2.37784 17.8965 2.94435 17.4105 3.80179L17.4103 3.79379L17.4096 3.79611Z" fill="url(#paint15_linear_265_683)"/>
    <path d="M17.4096 3.79611C17.2981 3.9254 17.1079 4.38904 17.1079 4.91096C17.1079 7.88488 16.9707 10.0696 16.9707 13.0439L22.2557 16.8281V14.6583L22.5473 5.23928C22.5943 3.72128 21.4004 2.45326 19.8824 2.40874C18.8289 2.37784 17.8965 2.94435 17.4105 3.80179L17.4103 3.79379L17.4096 3.79611Z" fill="url(#paint16_linear_265_683)"/>
    <path d="M17.4096 3.79611C17.2981 3.9254 17.1079 4.38904 17.1079 4.91096C17.1079 7.88488 16.9707 10.0696 16.9707 13.0439L22.2557 16.8281V14.6583L22.5473 5.23928C22.5943 3.72128 21.4004 2.45326 19.8824 2.40874C18.8289 2.37784 17.8965 2.94435 17.4105 3.80179L17.4103 3.79379L17.4096 3.79611Z" fill="url(#paint17_radial_265_683)"/>
    <path d="M20.3594 3.53604V15.0741H21.732C21.7938 12.6503 21.9175 7.37216 21.9175 5.65073C21.9175 3.92929 20.8788 3.52368 20.3594 3.53604Z" fill="#FFDD3B"/>
    <path d="M22.3981 14.4839L23.9111 12.6068C24.9054 11.3734 26.7107 11.178 27.9457 12.1703C29.1837 13.1649 29.3795 14.9753 28.383 16.2115L27.6721 17.0936L27.6651 17.1037C27.0115 17.9408 25.6734 19.6548 23.9945 22.4262C23.5067 23.1579 23.0765 23.9345 22.6527 24.7144C19.049 22.7882 19.5746 19.1647 20.3768 17.4588L22.3981 14.4839Z" fill="url(#paint18_radial_265_683)"/>
    <path d="M11.3242 13.2293C15.4794 12.1163 20.9331 14.2062 21.6751 15.2697V17.6441C19.0781 14.4907 14.8117 13.5632 11.3242 13.2293Z" fill="url(#paint19_linear_265_683)"/>
    <path d="M11.8724 2.82169C11.8366 1.29958 13.0415 0.0366142 14.5636 0.000778605C16.0857 -0.0350456 17.3486 1.16982 17.3845 2.69194L17.4106 3.80223C17.8965 2.9448 18.829 2.37828 19.8825 2.40917C21.4006 2.45369 22.5943 3.72173 22.5473 5.23973L22.2557 14.6608L23.9109 12.6074C24.9052 11.374 26.7104 11.1786 27.9455 12.1709C29.1834 13.1654 29.3794 14.9758 28.3828 16.212L27.6718 17.0941L27.6648 17.1042C27.0112 17.9414 25.6731 19.6553 23.9942 22.4268C23.4527 23.2391 22.9821 24.1068 22.5125 24.973C21.8427 26.2082 21.1746 27.4403 20.3045 28.5043C18.575 30.6369 15.9336 32 12.9739 32C9.38479 32 6.26383 29.9956 4.66939 27.0451L4.66408 27.0542C3.21076 24.4508 2.99678 21.5708 2.92545 20.0284L2.76896 17.2415C2.76019 17.17 2.7542 17.0976 2.75109 17.0242L2.40283 8.81935C2.34072 7.35625 3.47217 6.11779 4.9349 6.04778C5.76985 6.00781 6.53333 6.35704 7.04956 6.93573L6.99588 5.33132C6.94656 3.8569 8.10183 2.62166 9.57629 2.57234C10.5388 2.54013 11.3995 3.02138 11.8948 3.76966L11.8724 2.82169Z" fill="url(#paint20_radial_265_683)"/>
    <path d="M11.8724 2.82169C11.8366 1.29958 13.0415 0.0366142 14.5636 0.000778605C16.0857 -0.0350456 17.3486 1.16982 17.3845 2.69194L17.4106 3.80223C17.8965 2.9448 18.829 2.37828 19.8825 2.40917C21.4006 2.45369 22.5943 3.72173 22.5473 5.23973L22.2557 14.6608L23.9109 12.6074C24.9052 11.374 26.7104 11.1786 27.9455 12.1709C29.1834 13.1654 29.3794 14.9758 28.3828 16.212L27.6718 17.0941L27.6648 17.1042C27.0112 17.9414 25.6731 19.6553 23.9942 22.4268C23.4527 23.2391 22.9821 24.1068 22.5125 24.973C21.8427 26.2082 21.1746 27.4403 20.3045 28.5043C18.575 30.6369 15.9336 32 12.9739 32C9.38479 32 6.26383 29.9956 4.66939 27.0451L4.66408 27.0542C3.21076 24.4508 2.99678 21.5708 2.92545 20.0284L2.76896 17.2415C2.76019 17.17 2.7542 17.0976 2.75109 17.0242L2.40283 8.81935C2.34072 7.35625 3.47217 6.11779 4.9349 6.04778C5.76985 6.00781 6.53333 6.35704 7.04956 6.93573L6.99588 5.33132C6.94656 3.8569 8.10183 2.62166 9.57629 2.57234C10.5388 2.54013 11.3995 3.02138 11.8948 3.76966L11.8724 2.82169Z" fill="url(#paint21_radial_265_683)"/>
    <path d="M11.8724 2.82169C11.8366 1.29958 13.0415 0.0366142 14.5636 0.000778605C16.0857 -0.0350456 17.3486 1.16982 17.3845 2.69194L17.4106 3.80223C17.8965 2.9448 18.829 2.37828 19.8825 2.40917C21.4006 2.45369 22.5943 3.72173 22.5473 5.23973L22.2557 14.6608L23.9109 12.6074C24.9052 11.374 26.7104 11.1786 27.9455 12.1709C29.1834 13.1654 29.3794 14.9758 28.3828 16.212L27.6718 17.0941L27.6648 17.1042C27.0112 17.9414 25.6731 19.6553 23.9942 22.4268C23.4527 23.2391 22.9821 24.1068 22.5125 24.973C21.8427 26.2082 21.1746 27.4403 20.3045 28.5043C18.575 30.6369 15.9336 32 12.9739 32C9.38479 32 6.26383 29.9956 4.66939 27.0451L4.66408 27.0542C3.21076 24.4508 2.99678 21.5708 2.92545 20.0284L2.76896 17.2415C2.76019 17.17 2.7542 17.0976 2.75109 17.0242L2.40283 8.81935C2.34072 7.35625 3.47217 6.11779 4.9349 6.04778C5.76985 6.00781 6.53333 6.35704 7.04956 6.93573L6.99588 5.33132C6.94656 3.8569 8.10183 2.62166 9.57629 2.57234C10.5388 2.54013 11.3995 3.02138 11.8948 3.76966L11.8724 2.82169Z" fill="url(#paint22_radial_265_683)"/>
    <path d="M11.8724 2.82169C11.8366 1.29958 13.0415 0.0366142 14.5636 0.000778605C16.0857 -0.0350456 17.3486 1.16982 17.3845 2.69194L17.4106 3.80223C17.8965 2.9448 18.829 2.37828 19.8825 2.40917C21.4006 2.45369 22.5943 3.72173 22.5473 5.23973L22.2557 14.6608L23.9109 12.6074C24.9052 11.374 26.7104 11.1786 27.9455 12.1709C29.1834 13.1654 29.3794 14.9758 28.3828 16.212L27.6718 17.0941L27.6648 17.1042C27.0112 17.9414 25.6731 19.6553 23.9942 22.4268C23.4527 23.2391 22.9821 24.1068 22.5125 24.973C21.8427 26.2082 21.1746 27.4403 20.3045 28.5043C18.575 30.6369 15.9336 32 12.9739 32C9.38479 32 6.26383 29.9956 4.66939 27.0451L4.66408 27.0542C3.21076 24.4508 2.99678 21.5708 2.92545 20.0284L2.76896 17.2415C2.76019 17.17 2.7542 17.0976 2.75109 17.0242L2.40283 8.81935C2.34072 7.35625 3.47217 6.11779 4.9349 6.04778C5.76985 6.00781 6.53333 6.35704 7.04956 6.93573L6.99588 5.33132C6.94656 3.8569 8.10183 2.62166 9.57629 2.57234C10.5388 2.54013 11.3995 3.02138 11.8948 3.76966L11.8724 2.82169Z" fill="url(#paint23_radial_265_683)"/>
    <path d="M11.8724 2.82169C11.8366 1.29958 13.0415 0.0366142 14.5636 0.000778605C16.0857 -0.0350456 17.3486 1.16982 17.3845 2.69194L17.4106 3.80223C17.8965 2.9448 18.829 2.37828 19.8825 2.40917C21.4006 2.45369 22.5943 3.72173 22.5473 5.23973L22.2557 14.6608L23.9109 12.6074C24.9052 11.374 26.7104 11.1786 27.9455 12.1709C29.1834 13.1654 29.3794 14.9758 28.3828 16.212L27.6718 17.0941L27.6648 17.1042C27.0112 17.9414 25.6731 19.6553 23.9942 22.4268C23.4527 23.2391 22.9821 24.1068 22.5125 24.973C21.8427 26.2082 21.1746 27.4403 20.3045 28.5043C18.575 30.6369 15.9336 32 12.9739 32C9.38479 32 6.26383 29.9956 4.66939 27.0451L4.66408 27.0542C3.21076 24.4508 2.99678 21.5708 2.92545 20.0284L2.76896 17.2415C2.76019 17.17 2.7542 17.0976 2.75109 17.0242L2.40283 8.81935C2.34072 7.35625 3.47217 6.11779 4.9349 6.04778C5.76985 6.00781 6.53333 6.35704 7.04956 6.93573L6.99588 5.33132C6.94656 3.8569 8.10183 2.62166 9.57629 2.57234C10.5388 2.54013 11.3995 3.02138 11.8948 3.76966L11.8724 2.82169Z" fill="url(#paint24_radial_265_683)" fill-opacity="0.6"/>
    <defs>
        <radialGradient id="paint0_radial_265_683" cx="0" cy="0" r="1" gradientUnits="userSpaceOnUse" gradientTransform="translate(26.1779 17.6358) rotate(161.732) scale(24.368 37.1539)">
            <stop offset="0.817521" stop-color="#E99329" stop-opacity="0"/>
            <stop offset="1" stop-color="#E99329"/>
        </radialGradient>
        <radialGradient id="paint1_radial_265_683" cx="0" cy="0" r="1" gradientUnits="userSpaceOnUse" gradientTransform="translate(17.2639 6.6578) rotate(103.505) scale(28.4215 19.62)">
            <stop offset="0.750766" stop-color="#F88456" stop-opacity="0"/>
            <stop offset="1" stop-color="#F88456"/>
        </radialGradient>
        <radialGradient id="paint2_radial_265_683" cx="0" cy="0" r="1" gradientUnits="userSpaceOnUse" gradientTransform="translate(15.7095 6.65417) rotate(98.2119) scale(26.1785 18.0715)">
            <stop offset="0.937186" stop-color="#F27A74" stop-opacity="0"/>
            <stop offset="1" stop-color="#F27A74"/>
        </radialGradient>
        <radialGradient id="paint3_radial_265_683" cx="0" cy="0" r="1" gradientUnits="userSpaceOnUse" gradientTransform="translate(27.3645 18.3165) rotate(-144.583) scale(1.9693 8.42733)">
            <stop stop-color="#F6B44B"/>
            <stop offset="1" stop-color="#F6B44B" stop-opacity="0"/>
        </radialGradient>
        <linearGradient id="paint4_linear_265_683" x1="7.86497" y1="10.2208" x2="6.35815" y2="10.4348" gradientUnits="userSpaceOnUse">
            <stop stop-color="#E79F08"/>
            <stop offset="1" stop-color="#E79F08" stop-opacity="0"/>
        </linearGradient>
        <linearGradient id="paint5_linear_265_683" x1="8.07004" y1="13.8647" x2="6.50081" y2="12.9669" gradientUnits="userSpaceOnUse">
            <stop stop-color="#FFC23E"/>
            <stop offset="1" stop-color="#FFC23E" stop-opacity="0"/>
        </linearGradient>
        <radialGradient id="paint6_radial_265_683" cx="0" cy="0" r="1" gradientUnits="userSpaceOnUse" gradientTransform="translate(5.03856 5.81625) rotate(87.8255) scale(2.48047 6.19391)">
            <stop stop-color="#E8AD3C"/>
            <stop offset="1" stop-color="#E8AD3C" stop-opacity="0"/>
        </radialGradient>
        <linearGradient id="paint7_linear_265_683" x1="12.7062" y1="8.36513" x2="11.2082" y2="8.47212" gradientUnits="userSpaceOnUse">
            <stop stop-color="#E79F08"/>
            <stop offset="1" stop-color="#E79F08" stop-opacity="0"/>
        </linearGradient>
        <linearGradient id="paint8_linear_265_683" x1="6.99413" y1="9.48133" x2="9.72985" y2="9.34403" gradientUnits="userSpaceOnUse">
            <stop stop-color="#DF8F0D"/>
            <stop offset="1" stop-color="#DF8F0D" stop-opacity="0"/>
        </linearGradient>
        <linearGradient id="paint9_linear_265_683" x1="9.88404" y1="14.7295" x2="8.86352" y2="10.9563" gradientUnits="userSpaceOnUse">
            <stop offset="0.405208" stop-color="#FFC23E"/>
            <stop offset="1" stop-color="#FFC23E" stop-opacity="0"/>
        </linearGradient>
        <radialGradient id="paint10_radial_265_683" cx="0" cy="0" r="1" gradientUnits="userSpaceOnUse" gradientTransform="translate(8.93211 2.00331) rotate(77.9639) scale(3.82532 6.78335)">
            <stop stop-color="#E1AE3F"/>
            <stop offset="1" stop-color="#E8AD3C" stop-opacity="0"/>
        </radialGradient>
        <linearGradient id="paint11_linear_265_683" x1="12.2491" y1="7.02186" x2="14.6406" y2="6.90231" gradientUnits="userSpaceOnUse">
            <stop stop-color="#E59714"/>
            <stop offset="1" stop-color="#E59714" stop-opacity="0"/>
        </linearGradient>
        <linearGradient id="paint12_linear_265_683" x1="17.1854" y1="7.33102" x2="16.2238" y2="7.32071" gradientUnits="userSpaceOnUse">
            <stop stop-color="#E59714"/>
            <stop offset="1" stop-color="#E59714" stop-opacity="0"/>
        </linearGradient>
        <linearGradient id="paint13_linear_265_683" x1="14.6406" y1="13.2082" x2="14.6406" y2="11.1462" gradientUnits="userSpaceOnUse">
            <stop offset="0.347826" stop-color="#FFC23E"/>
            <stop offset="1" stop-color="#FFC23E" stop-opacity="0"/>
        </linearGradient>
        <radialGradient id="paint14_radial_265_683" cx="0" cy="0" r="1" gradientUnits="userSpaceOnUse" gradientTransform="translate(17.742 10.1507) rotate(-116.651) scale(11.0832 13.0088)">
            <stop offset="0.869582" stop-color="#D8A13D" stop-opacity="0"/>
            <stop offset="1" stop-color="#D8A13D"/>
        </radialGradient>
        <linearGradient id="paint15_linear_265_683" x1="16.7406" y1="9.61787" x2="19.7591" y2="9.72481" gradientUnits="userSpaceOnUse">
            <stop stop-color="#E69717"/>
            <stop offset="1" stop-color="#E69717" stop-opacity="0"/>
        </linearGradient>
        <linearGradient id="paint16_linear_265_683" x1="18.3359" y1="14.0827" x2="19.3748" y2="12.0793" gradientUnits="userSpaceOnUse">
            <stop stop-color="#FFC23E"/>
            <stop offset="1" stop-color="#FFC23E" stop-opacity="0"/>
        </linearGradient>
        <radialGradient id="paint17_radial_265_683" cx="0" cy="0" r="1" gradientUnits="userSpaceOnUse" gradientTransform="translate(22.883 14.061) rotate(-113.761) scale(12.4255 13.4155)">
            <stop offset="0.869582" stop-color="#D8A13D" stop-opacity="0"/>
            <stop offset="1" stop-color="#D8A13D"/>
        </radialGradient>
        <radialGradient id="paint18_radial_265_683" cx="0" cy="0" r="1" gradientUnits="userSpaceOnUse" gradientTransform="translate(22.7552 13.1136) rotate(48.5035) scale(2.09458 8.01726)">
            <stop stop-color="#E7A30E"/>
            <stop offset="1" stop-color="#E7A30E" stop-opacity="0"/>
        </radialGradient>
        <linearGradient id="paint19_linear_265_683" x1="20.3395" y1="15.8634" x2="6.57546" y2="13.5261" gradientUnits="userSpaceOnUse">
            <stop stop-color="#FFDD3B"/>
            <stop offset="1" stop-color="#FFDD3B" stop-opacity="0"/>
        </linearGradient>
        <radialGradient id="paint20_radial_265_683" cx="0" cy="0" r="1" gradientUnits="userSpaceOnUse" gradientTransform="translate(28.5475 13.0538) rotate(145.784) scale(2.73634 3.20736)">
            <stop stop-color="#FFE84A"/>
            <stop offset="1" stop-color="#FFE84A" stop-opacity="0"/>
        </radialGradient>
        <radialGradient id="paint21_radial_265_683" cx="0" cy="0" r="1" gradientUnits="userSpaceOnUse" gradientTransform="translate(22.1213 3.21842) rotate(130.365) scale(3.1677 3.42057)">
            <stop stop-color="#FFE84A"/>
            <stop offset="1" stop-color="#FFE84A" stop-opacity="0"/>
        </radialGradient>
        <radialGradient id="paint22_radial_265_683" cx="0" cy="0" r="1" gradientUnits="userSpaceOnUse" gradientTransform="translate(17.0528 0.382439) rotate(112.533) scale(3.07037 3.25181)">
            <stop offset="0.32493" stop-color="#FFE84A"/>
            <stop offset="1" stop-color="#FFE84A" stop-opacity="0"/>
        </radialGradient>
        <radialGradient id="paint23_radial_265_683" cx="0" cy="0" r="1" gradientUnits="userSpaceOnUse" gradientTransform="translate(10.2646 4.42521) rotate(122.8) scale(1.61515 1.89008)">
            <stop stop-color="#FFD148"/>
            <stop offset="1" stop-color="#FFCF41" stop-opacity="0"/>
        </radialGradient>
        <radialGradient id="paint24_radial_265_683" cx="0" cy="0" r="1" gradientUnits="userSpaceOnUse" gradientTransform="translate(5.55802 7.92493) rotate(120.411) scale(1.60923 1.73767)">
            <stop stop-color="#FFE84A"/>
            <stop offset="1" stop-color="#FFE84A" stop-opacity="0"/>
        </radialGradient>
    </defs>
</svg>
