<svg width="206" height="205" viewBox="0 0 206 205" fill="none" xmlns="http://www.w3.org/2000/svg">
    <mask id="mask0_0_2260" style="mask-type:alpha" maskUnits="userSpaceOnUse" x="7" y="5" width="199" height="199">
        <circle cx="106.511" cy="104.265" r="99.1454" fill="#D9D9D9"/>
    </mask>
    <g mask="url(#mask0_0_2260)">
        <rect x="-118.222" y="-94.6367" width="409.475" height="320.687" fill="#823CDC"/>
        <path fill-rule="evenodd" clip-rule="evenodd" d="M134.571 138.019C136.522 136.646 142.293 134.035 148.654 130.413C154.671 125.805 159.916 121.05 160.874 119.998C162.609 118.118 176.324 124.263 168.941 131.757C163.52 140.209 147.568 151.477 145.622 152.686C135.663 158.89 128.461 158.569 125.68 153.539C123.396 149.404 125.4 144.491 134.565 138.025L134.571 138.019Z" fill="#FFB400"/>
        <path fill-rule="evenodd" clip-rule="evenodd" d="M166.16 126.802C165.588 125.587 165.261 124.267 165.196 122.923C164.367 122.748 163.561 122.473 162.801 122.094C164.478 124.489 164.904 126.907 166.166 126.796" fill="#F78F0A"/>
        <path fill-rule="evenodd" clip-rule="evenodd" d="M121.447 139.829C113.421 140.781 123.766 162.137 133.573 160.507C138.252 159.683 142.435 158.813 149.345 151.494C149.345 151.494 149.473 146.336 146.477 141.318C145.081 138.976 141.722 138.041 139.678 134.951C139.678 134.951 132.721 138.491 121.453 139.834L121.447 139.829Z" fill="#F8DEAD"/>
        <path d="M150.94 150.21L148.16 152.774C148.16 152.774 148.014 148.744 144.83 142.774C141.647 136.804 137.441 135.899 137.441 135.899L140.811 134.035C140.811 134.035 144.509 134.882 147.961 140.151C151.413 145.42 150.934 150.21 150.934 150.21H150.94Z" fill="#ED7155"/>
        <path fill-rule="evenodd" clip-rule="evenodd" d="M27.7465 176.83C28.8797 177.969 31.1345 180.569 33.5703 185.107C35.8951 189.424 39.7387 193.636 44.4643 197.012C44.5169 197.053 44.5636 197.07 44.6103 197.117C52.1456 202.444 61.8772 205.669 71.3693 204.016C85.3417 201.58 94.0977 192.853 95.745 191.06C95.9378 190.861 96.0195 190.762 96.0195 190.762L91.1829 180.896L88.7354 175.907L86.7903 171.929C82.6722 168.062 77.6253 165.919 72.3389 164.026C72.263 163.985 72.1695 163.974 72.0994 163.933C70.6391 163.401 69.1613 162.916 67.6776 162.391C67.2453 162.239 66.8364 162.087 66.41 161.941C62.5606 160.556 58.6995 159.038 55.1305 156.824C51.3862 154.534 48.1794 151.473 45.7202 147.84C38.2959 136.975 34.2946 126.344 32.6766 120.094C32.2735 118.528 31.4441 118.482 30.8833 120.006C29.8669 122.763 29.1251 125.614 28.6753 128.517C26.8762 139.802 29.2127 150.293 30.7431 153.448C30.3751 152.898 30.0538 152.367 29.7559 151.859C28.9148 150.439 28.1846 148.967 27.5654 147.437C27.5421 147.39 27.5362 147.343 27.507 147.302C27.0514 146.234 26.549 146.333 26.3913 147.577C26.368 147.834 26.3212 148.12 26.2979 148.412C25.7196 153.821 25.521 165.393 31.8588 178.571C30.8424 177.449 29.5164 176.655 28.0503 176.281C27.4603 176.123 27.3142 176.369 27.7465 176.824" fill="#F78F0A"/>
        <path fill-rule="evenodd" clip-rule="evenodd" d="M30.7674 153.442C30.3994 152.893 30.0781 152.361 29.7802 151.853C31.4976 156.678 33.688 161.077 36.4627 164.097C48.1803 176.906 57.9703 167.409 63.8174 165.078C66.5395 163.997 69.7113 163.857 72.3457 164.038C72.2698 163.997 72.1763 163.986 72.1062 163.945C70.6459 163.413 69.1681 162.928 67.6844 162.403C67.2521 162.251 66.8432 162.099 66.4168 161.953C62.5674 160.568 58.7063 159.05 55.1373 156.836C51.393 154.546 48.1861 151.485 45.7269 147.852C38.3026 136.987 34.3014 126.356 32.6833 120.106C32.2803 118.54 31.4508 118.488 30.8901 120.018C29.8737 122.775 29.1318 125.626 28.682 128.535C26.9063 139.814 29.2311 150.299 30.7732 153.448" fill="#FFA400"/>
        <path fill-rule="evenodd" clip-rule="evenodd" d="M27.7468 176.829C28.8801 177.968 31.1348 180.567 33.5706 185.106C35.8955 189.423 39.739 193.634 44.4646 197.01C40.7729 189.312 39.5112 182.88 39.593 177.629C39.7098 169.895 42.7823 164.626 45.557 161.338C48.3316 158.049 52.2686 157.056 55.125 156.852C51.3807 154.562 48.1739 151.501 45.7147 147.868C38.2904 137.009 34.2891 126.372 32.6711 120.122C32.268 118.55 31.4386 118.504 30.8778 120.034C25.6615 134.106 28.8392 149.538 30.7376 153.469C29.4817 151.577 28.4186 149.562 27.5599 147.465C27.0693 146.25 26.5377 146.32 26.3858 147.605C26.3391 147.879 26.3099 148.16 26.2924 148.44C26.234 148.867 26.1989 149.31 26.1697 149.801C26.158 149.965 26.1463 150.128 26.1405 150.315C26.123 150.432 26.1347 150.549 26.123 150.666C26.1171 150.876 26.0879 151.063 26.0821 151.297C26.0354 152.441 26.0062 153.738 26.047 155.158C26.047 155.391 26.0587 155.625 26.0762 155.853C26.4443 163.75 28.4069 171.49 31.8591 178.605C30.8369 177.489 29.5168 176.694 28.0506 176.315C27.4606 176.134 27.3146 176.379 27.7468 176.829Z" fill="#FFE2A4"/>
        <path fill-rule="evenodd" clip-rule="evenodd" d="M44.4701 197.01C52.0112 202.384 61.8129 205.673 71.3692 203.991C86.9304 201.263 96.0078 190.731 96.0078 190.731L91.1712 180.865C88.5543 184.954 79.109 193.243 67.5374 193.044C59.5874 192.904 48.7927 190.322 39.5868 177.605C39.5167 182.88 40.8076 189.294 44.4701 197.01Z" fill="#D46A00"/>
        <path fill-rule="evenodd" clip-rule="evenodd" d="M27.7471 176.83C28.8803 177.969 31.135 180.569 33.5708 185.107C35.8957 189.424 39.7392 193.635 44.4648 197.012C40.7731 189.313 39.5114 182.882 39.5932 177.63C34.4704 170.551 29.8441 161.047 26.2926 148.441C26.2342 148.868 26.1991 149.312 26.1699 149.802C26.1582 149.96 26.1465 150.13 26.1407 150.316C26.1232 150.433 26.1349 150.55 26.1232 150.667C26.1173 150.877 26.0881 151.064 26.0823 151.298C26.0356 152.443 26.0064 153.739 26.0473 155.159C26.0473 155.393 26.0589 155.62 26.0765 155.854C26.4386 163.751 28.4071 171.491 31.8535 178.606C30.8313 177.49 29.5111 176.696 28.045 176.316C27.455 176.135 27.309 176.38 27.7412 176.83" fill="#FFCD7C"/>
        <path fill-rule="evenodd" clip-rule="evenodd" d="M103.519 212.492C103.823 213.765 107.293 213.239 108.596 213.07C114.711 212.27 129.782 202.077 129.992 197.795C129.992 197.795 106.09 200.336 103.321 200.283C103.292 202.351 103.519 212.497 103.519 212.497V212.492Z" fill="#3D3D3F"/>
        <path fill-rule="evenodd" clip-rule="evenodd" d="M144.596 211.654C144.596 211.654 132.539 194.236 127.323 191.747C122.107 189.259 117.159 204.242 118.859 209.376C120.559 214.511 131.593 219.587 134.823 222.841C137.101 225.136 139.648 224.459 143.112 221.322C147.335 217.49 146.88 213.95 144.602 211.654H144.596Z" fill="#FFB400"/>
        <path fill-rule="evenodd" clip-rule="evenodd" d="M127.241 191.567C128.829 192.327 132.615 196.281 134.934 198.886C134.694 201.684 134.011 204.821 132.667 208.291C131.335 211.737 129.086 214.851 126.487 217.567C123.613 215.493 121.09 213.262 120.342 211.019C118.642 205.884 122.018 189.073 127.235 191.567H127.241Z" fill="#FDA200"/>
        <path fill-rule="evenodd" clip-rule="evenodd" d="M62.0116 226.607C60.8317 226.076 58.3667 225.713 56.9122 225.772C56.696 225.789 56.4682 225.807 56.2521 225.836C54.4588 226.023 52.7882 226.841 51.5323 228.138C50.9307 227.162 50.4225 226.134 50.0194 225.059C48.4189 220.813 48.0159 216.215 48.8454 211.753C49.3127 209.58 50.1538 207.804 51.3629 206.788L51.655 206.56C56.2521 203.33 58.4718 206.058 60.7674 208.119C60.9427 208.271 61.1354 208.435 61.3632 208.593C61.7721 208.885 62.2044 209.153 62.6425 209.393C63.7173 209.983 68.1859 211.846 68.1859 211.846C68.1859 211.846 76.6265 214.539 81.5391 219.066C79.5939 223.453 77.5027 227.793 75.9372 232.302C70.5048 231.537 64.354 227.653 62.0116 226.601V226.607Z" fill="#FFB400"/>
        <path fill-rule="evenodd" clip-rule="evenodd" d="M68.5186 209.258L72.4965 209.001C72.4965 209.001 74.0327 204.614 74.5117 203.703C76.5737 199.777 81.4044 190.823 83.6767 188.854C85.1195 187.604 88.747 185.326 93.5719 188.48C107.533 197.622 111.738 205.56 111.738 205.56C111.738 205.56 105.897 223.154 82.8239 234.27C82.2573 234.545 81.6264 234.673 80.9956 234.667L72.8995 234.521C72.8995 234.521 70.271 234.977 69.5642 234.358C64.1201 227.453 68.1915 225.24 65.8316 219.544C65.0956 217.938 68.5186 209.258 68.5186 209.258Z" fill="#F44D37"/>
        <path fill-rule="evenodd" clip-rule="evenodd" d="M107.418 209.916L133.85 187.895C134.738 188.718 144.2 193.701 149.551 202.638C150.27 204.571 152.822 207.439 152.454 215.302C150.503 223.03 147.67 229.695 147.67 229.695C147.67 229.695 138.435 231.804 133.698 231.926C128.283 232.066 123.259 230.629 123.259 230.629L123.587 216.523L107.412 209.916H107.418Z" fill="#F78F0A"/>
        <path fill-rule="evenodd" clip-rule="evenodd" d="M118.602 131.896L119.157 140.553L122.055 148.52C122.055 148.52 105.243 156.698 94.5072 141.557L95.7514 130.383L118.608 131.896H118.602Z" fill="#F78F0A"/>
        <path fill-rule="evenodd" clip-rule="evenodd" d="M98.4774 215.248C99.7216 215.639 111.977 213.846 114.926 212.964C126.288 209.559 136.551 194.178 137.229 189.973C137.229 189.973 101.854 191.404 81.9641 191.474C84.0202 191.468 78.3717 208.922 98.4774 215.254V215.248Z" fill="#F78F0A"/>
        <path fill-rule="evenodd" clip-rule="evenodd" d="M94.7869 138.023C94.7869 138.023 92.1174 137.888 90.6045 138.788C89.5531 139.413 84.6172 141.241 81.6732 146.09C79.0037 150.447 85.581 161.306 87.754 173.263C89.705 184 81.4863 187.306 83.3555 189.455C97.6141 205.881 141.523 199.45 141.546 188.199C141.593 164.992 137.802 161.365 133.976 154.127C132.837 151.972 125.752 143.058 125.203 142.509C122.907 140.219 120.64 139.36 119.572 139.057C119.303 138.981 119.022 139.185 119.028 139.466C119.052 140.482 118.386 142.602 112.761 143.321C101.428 144.775 95.2484 138.344 95.2484 138.344" fill="#FFF4D5"/>
        <path fill-rule="evenodd" clip-rule="evenodd" d="M123.344 164.708C123.344 164.708 115.645 162.856 106.509 167.342C109.097 163.522 115.627 158.674 119.716 158.861C118.449 159.714 117.444 160.899 116.819 162.295C119.559 162.377 122.9 164.013 123.35 164.708" fill="#F8DEAD"/>
        <path d="M69.2783 161.592C66.8506 156.57 66.1658 151.879 67.7488 151.114C69.3317 150.349 72.5829 153.799 75.0106 158.821C77.4383 163.843 78.123 168.534 76.5401 169.3C74.9571 170.065 71.7059 166.614 69.2783 161.592Z" fill="#D8362A"/>
        <path fill-rule="evenodd" clip-rule="evenodd" d="M42.2505 142.775C48.2144 137.418 51.0591 137.558 55.1247 141.314C57.3035 143.411 63.6121 150.246 65.6039 152.249C69.0737 150.117 71.7899 148.406 73.6649 147.436C84.0507 142.062 89.6818 142.775 92.3746 146.951C95.6516 152.033 92.4272 156.145 83.9865 162.775C81.9596 164.364 76.9653 166.812 75.1019 167.647C66.3283 171.584 61.4333 170.918 58.6937 168.763C51.7718 163.307 45.1302 153.92 44.1372 152.728C41.1873 149.183 37.9454 146.174 42.2388 142.775H42.2505Z" fill="#FFB400"/>
        <path fill-rule="evenodd" clip-rule="evenodd" d="M86.7022 141.234C94.7807 140.907 100.698 151.573 94.9676 159.698C91.6381 164.424 88.0281 166.76 78.1622 168.992C78.1622 168.992 77.9636 163.682 74.7334 158.203C73.2672 155.714 71.1059 152.578 68.4773 150.34C68.4773 150.34 79.6342 141.508 86.7022 141.234Z" fill="#F8DEAD"/>
        <path d="M76.3755 169.388L80.3242 168.471C80.3242 168.471 80.295 163.792 77.6606 158.184C75.0262 152.577 70.4057 148.938 70.4057 148.938L67.1229 151.151C67.1229 151.151 71.1768 154.23 73.5483 159.761C75.9199 165.293 76.3697 169.382 76.3697 169.382L76.3755 169.388Z" fill="#ED7155"/>
        <path fill-rule="evenodd" clip-rule="evenodd" d="M159.28 125.122C159.28 125.122 156.996 121.734 157.697 114.509C158.398 107.248 162.283 108.235 162.99 110.104C163.258 110.823 163.603 112.47 163.924 112.862C164.263 113.27 164.917 113.084 165.116 112.587C166.015 110.35 166.95 105.922 170.472 105.478C172.528 105.221 173.995 106.331 174.363 108.229C174.555 109.246 172.966 111.939 172.248 113.317C171.898 113.983 172.563 114.439 172.563 114.439C172.563 114.439 177.114 108.153 180.659 111.898C183.189 114.567 180.636 116.98 180.636 116.98C180.636 116.98 184.398 118.545 182.821 121.653C179.596 128.02 171.506 132.085 167.102 131.723C162.697 131.361 159.274 125.111 159.274 125.111L159.28 125.122Z" fill="#FFB400"/>
        <path fill-rule="evenodd" clip-rule="evenodd" d="M180.636 116.985C180.636 116.985 178.545 116.909 175.35 120.262C175.35 120.262 176.968 115.7 181.308 115.968L180.642 116.985H180.636Z" fill="#F78F0A"/>
        <path fill-rule="evenodd" clip-rule="evenodd" d="M166.944 117.085C166.944 117.085 173.182 116.909 173.994 122.984C173.994 122.984 173.124 120.484 169.42 121.448C169.42 121.448 169.771 118.831 166.944 117.085Z" fill="#F78F0A"/>
        <path fill-rule="evenodd" clip-rule="evenodd" d="M56.0417 143.389C56.0417 143.389 57.7649 138.962 54.2076 132.635C50.9189 126.783 46.8534 129.399 46.8709 131.239C46.8884 133.079 47.3557 133.95 47.3557 133.95C47.3557 133.95 42.0285 127.495 38.5471 129.212C36.6895 130.135 36.3332 131.385 36.3741 132.297C36.4092 133.003 36.6779 133.506 36.6779 133.506C36.6779 133.506 33.3425 132.624 31.999 136.047C30.6613 139.47 33.3133 140.953 33.3133 140.953C33.3133 140.953 30.0772 143.424 32.3903 146.03C37.1276 151.363 45.9889 153.238 50.1537 151.766C54.3186 150.294 56.0417 143.383 56.0417 143.383V143.389Z" fill="#FFB400"/>
        <path fill-rule="evenodd" clip-rule="evenodd" d="M33.3133 140.952C33.3133 140.952 35.3169 140.35 39.2598 142.774C39.2598 142.774 36.5377 138.773 32.4079 140.14L33.3133 140.952Z" fill="#F78F0A"/>
        <path fill-rule="evenodd" clip-rule="evenodd" d="M36.6774 133.501C36.6774 133.501 39.0899 133.705 42.25 136.485C42.25 136.485 40.042 131.766 36.397 131.777L36.6716 133.506L36.6774 133.501Z" fill="#F78F0A"/>
        <path fill-rule="evenodd" clip-rule="evenodd" d="M46.5781 137.566C46.5781 137.566 40.4973 138.986 41.2625 145.067C41.2625 145.067 41.4728 142.426 45.293 142.415C45.293 142.415 44.2883 139.973 46.5781 137.566Z" fill="#F78F0A"/>
        <path fill-rule="evenodd" clip-rule="evenodd" d="M47.6792 109.238C47.6792 109.238 47.7329 109.261 47.7657 109.28L47.7614 109.308C45.9016 113.571 43.448 117.556 40.4828 121.148C40.0724 121.628 40.1393 122.354 40.6207 122.757C40.6653 122.793 40.7099 122.828 40.7556 122.857C40.7803 122.882 40.812 122.908 40.8421 122.899C48.8524 126.854 58.7883 127.185 58.7883 127.185C58.7883 127.185 57.5405 127.622 55.6588 128.133C55.2626 128.243 55.028 128.651 55.1386 129.047C55.1933 129.249 55.3314 129.42 55.5173 129.513C60.1742 131.741 65.9381 133.332 72.363 134.302C87.6186 136.599 106.538 135.277 122.835 130.08C126.431 128.939 129.934 127.52 133.306 125.836C141.913 121.47 147.99 116.027 152.083 111.107C154.557 108.198 156.603 104.951 158.163 101.471C158.266 101.222 158.152 100.94 157.91 100.839C157.769 100.781 157.603 100.791 157.476 100.872C156.721 101.313 155.902 101.616 155.041 101.769C155.041 101.769 159.807 96.939 163.03 90.8904C163.171 90.6259 163.217 90.3255 163.177 90.026C163.063 89.3788 162.507 88.8996 161.851 88.8842C154.011 88.6472 148.188 84.286 147.922 84.0661C147.922 84.0661 156.297 74.2554 161.001 56.6599C165.705 39.0643 163.467 26.3137 157.895 22.5493C155.065 20.6316 150.342 19.9886 144.309 21.3469C138.283 22.7062 130.866 26.0328 122.743 32.0334C106.397 44.1265 100.462 51.4306 100.462 51.4306C94.8046 50.8651 89.0875 51.335 83.6 52.8203C74.9296 45.4013 42.5154 32.88 29.8202 32.5805C17.1331 32.2751 11.2639 39.711 12.4903 51.8833C13.7086 63.9685 22.3263 85.0794 34.0494 97.1475C42.9061 106.234 46.5463 108.605 47.4744 109.128C47.4884 109.13 47.5024 109.132 47.4992 109.153C47.5599 109.177 47.6195 109.207 47.6722 109.237" fill="#FDB201"/>
        <path fill-rule="evenodd" clip-rule="evenodd" d="M100.46 51.4016C102.43 51.4337 104.392 51.6077 106.34 51.9156C107.931 52.1754 109.516 51.4542 110.358 50.0817C116.541 40.1475 131.364 26.5674 144.308 21.2678C138.244 22.5927 130.865 25.9538 122.742 31.9544C106.397 44.0835 100.46 51.4016 100.46 51.4016Z" fill="#F78F0A"/>
        <path fill-rule="evenodd" clip-rule="evenodd" d="M72.3658 134.28C87.6215 136.577 106.534 135.253 122.838 130.057C123.288 129.926 123.735 129.766 124.174 129.605C124.379 129.53 124.62 129.452 124.826 129.37L125.485 129.135C125.767 129.021 126.059 128.937 126.348 128.825C126.561 128.743 126.744 128.671 126.926 128.599L128.099 128.143C128.281 128.071 128.436 127.995 128.619 127.923C128.755 127.88 128.879 127.813 129.008 127.769C129.213 127.693 129.412 127.609 129.606 127.51C130.28 127.221 130.955 126.924 131.598 126.609C131.991 126.426 132.354 126.253 132.739 126.077C132.919 125.976 133.102 125.904 133.305 125.792C133.305 125.792 133.323 125.78 133.36 125.758L133.388 125.762C141.997 121.389 148.088 115.947 152.16 111.024C143.972 110.118 130.434 109.531 115.833 112.686C98.6614 116.403 87.2647 122.385 80.0672 127.627C77.3011 129.604 74.7252 131.832 72.3728 134.281" fill="#F5DCA4"/>
        <path fill-rule="evenodd" clip-rule="evenodd" d="M40.7613 122.865C40.7613 122.865 40.8177 122.917 40.8478 122.907C48.8581 126.862 58.794 127.194 58.794 127.194C58.794 127.194 57.5461 127.631 55.6645 128.141C55.2683 128.252 55.0337 128.659 55.1442 129.056C55.199 129.257 55.337 129.429 55.523 129.522C60.1798 131.75 65.9437 133.341 72.3686 134.311C74.6898 131.879 77.2265 129.673 79.9614 127.713C66.2703 123.576 55.869 116.247 47.7418 109.341C45.8809 113.611 43.4273 117.596 40.4691 121.189C40.0786 121.68 40.1675 122.402 40.6592 122.785C40.6909 122.812 40.7296 122.839 40.7623 122.858" fill="#FDA200"/>
        <path fill-rule="evenodd" clip-rule="evenodd" d="M72.3658 134.284C87.6215 136.581 106.534 135.257 122.838 130.061C123.288 129.93 123.735 129.77 124.174 129.609C124.379 129.534 124.62 129.456 124.826 129.374L125.485 129.139C125.767 129.025 126.059 128.941 126.348 128.829C126.561 128.747 126.744 128.675 126.927 128.603L128.099 128.147C128.281 128.075 128.436 127.999 128.619 127.927C128.755 127.884 128.879 127.817 129.008 127.773C129.213 127.697 129.412 127.613 129.606 127.514C130.28 127.225 130.955 126.928 131.598 126.613C131.991 126.43 132.354 126.257 132.739 126.081C132.919 125.98 133.102 125.908 133.305 125.796C133.305 125.796 133.323 125.784 133.36 125.762L133.332 125.757C127.948 127.781 122.35 129.192 116.657 129.973C102.327 132.011 90.2501 130.719 80.0231 127.639C77.278 129.619 74.723 131.85 72.3728 134.285" fill="#FFCD7C"/>
        <path fill-rule="evenodd" clip-rule="evenodd" d="M152.434 88.9471C151.522 91.0098 152.181 92.0202 155.063 92.0285C157.906 92.0594 160.707 91.3399 163.183 89.9407C163.077 89.2875 162.521 88.8083 161.858 88.7919C154.012 88.5468 148.195 84.1937 147.922 83.9727C148.003 84.1426 149.26 86.4256 152.434 88.9471Z" fill="#FDA200"/>
        <path fill-rule="evenodd" clip-rule="evenodd" d="M62.8338 67.551C62.8338 67.551 66.9648 73.3252 67.7912 67.3217C69.07 58.0614 60.7935 46.3749 45.3658 40.882C29.945 35.3901 19.5639 40.9564 17.0779 46.2173C14.3272 52.0812 18.0023 66.0479 27.6749 81.1119C37.3475 96.1759 47.4882 106.862 54.2112 104.695C48.8102 90.4618 62.8268 67.55 62.8268 67.55" fill="#F78F0A"/>
        <path fill-rule="evenodd" clip-rule="evenodd" d="M25.1812 72.6573C28.0821 78.8926 32.2655 85.3474 36.688 90.8088C43.4867 99.2768 50.7542 105.356 54.2512 104.715C58.0569 104.022 57.7253 99.2636 59.6377 90.5804C62.4788 77.7337 70.6154 70.3473 66.8295 63.3101C65.3025 60.5491 63.389 58.0217 61.1409 55.8076C51.3315 45.9878 35.2368 40.1344 26.0186 43.1258C14.6208 46.7968 19.0067 59.2635 25.1822 72.6503" fill="#F37C00"/>
        <path fill-rule="evenodd" clip-rule="evenodd" d="M34.3041 85.5771C34.9246 87.397 35.7129 89.1497 36.6582 90.8123C43.4569 99.2803 50.7244 105.36 54.2215 104.719C58.0271 104.026 57.6955 99.2671 59.6149 90.5849C62.456 77.7383 70.5856 70.3508 66.8067 63.3147C65.2797 60.5537 63.3662 58.0263 61.1181 55.8121C54.7498 52.3898 48.0833 50.76 42.6514 54.0639C35.5441 58.397 29.9183 72.8313 34.3121 85.5712" fill="#ED6C00"/>
        <path fill-rule="evenodd" clip-rule="evenodd" d="M58.4832 70.2395C59.3056 69.2217 59.4246 67.8021 58.7693 66.6708C58.0006 65.3932 56.5871 63.7514 53.9065 62.3934C48.593 59.6919 47.2326 58.2156 45.6553 56.291C47.2649 62.6418 53.7502 66.6045 53.7502 66.6045C53.7502 66.6045 49.8588 65.6748 48.3395 67.1287C50.4203 67.3211 52.397 68.1412 53.9918 69.4891C53.036 69.6563 52.1145 69.972 51.2692 70.4425C52.8398 70.8351 54.291 71.1664 55.3783 71.3986C56.5453 71.5787 57.7222 71.1379 58.4902 70.2405" fill="#F37C00"/>
        <path fill-rule="evenodd" clip-rule="evenodd" d="M127.505 60.2433C127.505 60.2433 125.406 61.1857 124.627 58.819C123.847 56.4524 124.657 46.4328 134.049 36.9366C142.961 27.96 152.141 24.3761 156.184 26.5954C160.227 28.8147 160.022 37.0531 159.479 41.9628C158.98 46.865 127.498 60.2422 127.498 60.2422" fill="#F78F0A"/>
        <path fill-rule="evenodd" clip-rule="evenodd" d="M134.932 69.4569C137.967 72.9728 140.818 76.6537 143.462 80.4742C143.462 80.4742 148.163 79.404 152.615 69.5674C152.707 69.3884 152.785 69.2073 152.856 69.0251C157.389 58.7003 162.894 35.319 157.026 29.8564C153.473 26.5466 143.793 31.2838 135.825 39.1971C130.629 44.3546 126.183 50.8654 124.612 57.3835C123.723 61.2454 130.241 64.0254 134.931 69.4639" fill="#F37C00"/>
        <path fill-rule="evenodd" clip-rule="evenodd" d="M134.931 69.4604C137.966 72.9763 140.817 76.6572 143.461 80.4777C143.461 80.4777 148.162 79.4075 152.613 69.5709C155.996 59.1472 155.475 46.4399 151.244 41.6806C147.277 37.2552 141.318 36.0494 135.847 39.1898C130.651 44.3473 126.205 50.8582 124.648 57.3785C123.73 61.243 130.247 64.0231 134.938 69.4615" fill="#ED6C00"/>
        <path fill-rule="evenodd" clip-rule="evenodd" d="M132.128 60.1903C131.215 59.477 130.844 58.2679 131.193 57.1629C131.599 55.9235 132.488 54.2435 134.557 52.5168C138.589 49.1542 139.488 47.6403 140.486 45.6696C140.344 51.4568 135.527 56.1076 135.527 56.1076C135.527 56.1076 138.699 54.5582 140.307 55.4932C138.546 56.0585 137.004 57.1511 135.889 58.6245C136.724 58.5959 137.56 58.6963 138.362 58.9203C137.102 59.5771 135.916 60.1668 135.006 60.5485C134.058 60.9889 132.935 60.8513 132.121 60.1892" fill="#F37C00"/>
        <path d="M77.2951 117.027C76.8925 117.087 76.5147 116.8 76.4622 116.398C76.4644 116.384 76.4596 116.369 76.4606 116.362C76.4173 115.948 76.7115 115.571 77.134 115.522C77.5566 115.472 77.9252 115.773 77.9744 116.195C78.0339 116.598 77.7467 116.975 77.3451 117.028C77.3312 117.026 77.3161 117.031 77.3091 117.03" fill="#F5DCA4"/>
        <path d="M83.85 120.814C83.4382 120.886 83.0443 120.611 82.9719 120.199C82.8995 119.787 83.1749 119.393 83.5867 119.321C83.6169 119.311 83.6529 119.31 83.6819 119.307C84.0964 119.264 84.4731 119.558 84.5164 119.972C84.5759 120.375 84.2886 120.753 83.8871 120.805L83.8521 120.8" fill="#F5DCA4"/>
        <path d="M88.3669 114.731C87.9525 114.775 87.5758 114.48 87.5265 114.058C87.4773 113.635 87.7774 113.267 88.1999 113.217C88.6225 113.168 88.9911 113.468 89.0403 113.891C89.0896 114.313 88.7895 114.682 88.3739 114.732" fill="#F5DCA4"/>
        <path d="M90.444 112.161C90.0424 112.213 89.6636 111.933 89.6122 111.524C89.6143 111.511 89.6154 111.504 89.6106 111.488C89.5893 111.07 89.9163 110.713 90.3334 110.699C90.7156 110.679 91.0466 110.945 91.1174 111.32C91.1769 111.723 90.8896 112.101 90.4881 112.153C90.4741 112.151 90.459 112.156 90.452 112.155" fill="#F5DCA4"/>
        <path fill-rule="evenodd" clip-rule="evenodd" d="M145.857 101.97C145.9 102.385 146.276 102.686 146.697 102.644C147.112 102.6 147.413 102.225 147.371 101.803C147.328 101.382 146.952 101.088 146.53 101.13C146.115 101.18 145.815 101.549 145.865 101.964L145.857 101.97Z" fill="#F5DCA4"/>
        <path d="M142.451 106.101C142.033 106.122 141.675 105.795 141.661 105.378C141.641 104.996 141.907 104.665 142.283 104.594C142.698 104.544 143.074 104.845 143.117 105.259C143.169 105.668 142.89 106.04 142.48 106.098C142.466 106.096 142.459 106.095 142.444 106.1" fill="#F5DCA4"/>
        <path d="M140.006 104.14C139.604 104.193 139.225 103.912 139.174 103.504C139.175 103.497 139.177 103.483 139.171 103.475C139.099 103.063 139.374 102.669 139.786 102.597C140.198 102.524 140.592 102.8 140.664 103.212C140.674 103.242 140.675 103.278 140.678 103.307C140.731 103.708 140.45 104.087 140.042 104.139C140.028 104.136 140.021 104.135 140.006 104.14Z" fill="#F5DCA4"/>
        <path fill-rule="evenodd" clip-rule="evenodd" d="M83.6017 52.813C86.0149 53.5861 88.327 54.644 90.4841 55.9641C94.6569 58.5469 98.519 58.8782 103.166 57.1344C100.729 56.5651 99.5399 55.4158 99.5399 55.4158C99.5399 55.4158 105.205 54.2154 107.548 48.9109C105.398 50.1387 103.121 51.1251 100.756 51.8476C101.007 51.6574 108.441 46.552 108.589 38.827C100.756 47.6767 94.2733 47.914 94.2733 47.914C94.8152 46.6741 95.7279 45.6274 96.8807 44.9253C94.589 45.1726 92.3547 45.8365 90.3039 46.8864C87.6027 48.2581 85.2918 50.2981 83.5947 52.8119" fill="#FFE2A4"/>
        <path fill-rule="evenodd" clip-rule="evenodd" d="M132.841 118.241C132.841 118.241 129.144 122.17 128.375 125.764C127.599 129.307 126.455 130.74 123.305 131.313C119.998 131.926 111.295 128.844 108.045 123.435C104.205 117.069 117.904 114.712 122.665 114.181C127.426 113.649 132.841 118.241 132.841 118.241Z" fill="#FDB201"/>
        <path fill-rule="evenodd" clip-rule="evenodd" d="M112.915 122.89C112.951 122.982 112.995 123.067 113.054 123.148C115.476 127.02 119.934 128.173 121.797 128.289C123.661 128.405 125.52 128.226 125.994 125.338C126.095 124.874 126.224 124.407 126.386 123.96C127.362 121.485 129.568 119.057 129.568 119.057L124.217 114.046C124.217 114.046 111.233 119.046 112.915 122.89Z" fill="#A60023"/>
        <path fill-rule="evenodd" clip-rule="evenodd" d="M112.915 122.891C112.951 122.982 112.995 123.068 113.054 123.148C115.475 127.02 119.933 128.173 121.797 128.289C123.66 128.405 125.519 128.227 125.994 125.338C126.094 124.875 126.223 124.408 126.385 123.961C125.676 122.993 124.771 122.181 123.725 121.59C121.588 120.466 118.886 120.958 118.886 120.958L112.908 122.89L112.915 122.891Z" fill="#DA0739"/>
        <path fill-rule="evenodd" clip-rule="evenodd" d="M117.744 121.31C117.744 121.31 119.839 121.591 121.647 125.082C117.988 121.813 115.23 122.253 115.23 122.253L117.737 121.309L117.744 121.31Z" fill="#A60023"/>
        <path fill-rule="evenodd" clip-rule="evenodd" d="M96.8777 114.857C96.8777 114.857 95.8712 114.101 95.0443 114.545C93.1719 118.241 96.7679 125.349 105.992 126.723C114.634 128.021 120.196 123.227 122.412 118.926C112.774 115.972 96.8836 114.865 96.8836 114.865" fill="#F78F0A"/>
        <path fill-rule="evenodd" clip-rule="evenodd" d="M135.454 108.537C135.454 108.537 134.94 107.835 136.825 107.625C139.414 109.348 140.226 114.653 137.083 118.239C134.279 121.44 128.147 121.631 124.929 118.373C127.854 113.609 135.454 108.537 135.454 108.537Z" fill="#F78F0A"/>
        <path fill-rule="evenodd" clip-rule="evenodd" d="M95.7532 118.198C99.0917 123.22 104.87 125.457 111.298 124.739C114.063 124.436 116.71 123.464 119.017 121.917C120.271 121.066 121.413 120.062 122.412 118.921C123.037 118.209 124.057 117.995 124.911 118.398C124.959 118.413 125.005 118.434 125.051 118.463C125.118 118.495 125.176 118.532 125.227 118.576C125.677 118.903 126.164 119.178 126.676 119.386C127.963 119.943 129.376 120.153 130.775 119.99C135.252 119.486 138.465 115.447 137.962 110.969C137.828 109.797 137.444 108.671 136.84 107.67L136.844 107.642L136.542 107.187C136.048 106.496 135.456 105.882 134.784 105.371C134.641 105.277 134.491 105.182 134.376 105.093C133.133 104.2 124.334 100.768 117.265 101.558C109.949 102.375 98.8071 111.065 96.6144 112.386C95.8331 112.859 95.2904 113.641 95.1082 114.543C94.8281 115.802 95.0624 117.111 95.7532 118.198Z" fill="#FDB201"/>
        <path fill-rule="evenodd" clip-rule="evenodd" d="M125.051 118.462C125.118 118.494 125.176 118.532 125.227 118.575C128.931 121.136 134.003 120.209 136.564 116.504C138.395 113.861 138.495 110.385 136.823 107.638L136.828 107.61C137.554 110.276 137.408 114.324 133.602 117.063C129.244 120.218 125.792 118.805 125.045 118.454" fill="#FDA200"/>
        <path fill-rule="evenodd" clip-rule="evenodd" d="M95.7537 118.198C99.0922 123.22 104.871 125.457 111.299 124.739C115.607 124.267 119.578 122.175 122.41 118.892C119.993 120.458 114.477 123.663 106.705 122.335C100.037 121.177 96.7309 118.356 95.0517 114.541C94.8205 115.808 95.071 117.105 95.7617 118.192" fill="#FDA200"/>
        <path fill-rule="evenodd" clip-rule="evenodd" d="M121.253 101.759C121.253 101.759 119.203 98.7745 115.518 99.4291C111.778 100.068 110.576 104.146 110.576 104.146C110.576 104.146 116.015 100.193 121.253 101.759Z" fill="#FDA200"/>
        <path fill-rule="evenodd" clip-rule="evenodd" d="M121.253 101.756C121.253 101.756 117.23 100.842 110.573 104.114C113.337 101.222 118.069 99.5767 121.253 101.756Z" fill="#F78F0A"/>
        <path d="M100.701 117.398C100.298 117.458 99.9204 117.17 99.8679 116.769C99.87 116.755 99.8711 116.748 99.8663 116.733C99.8229 116.318 100.117 115.942 100.54 115.892C100.954 115.849 101.331 116.143 101.38 116.566C101.433 116.967 101.152 117.346 100.744 117.398C100.73 117.395 100.723 117.394 100.708 117.399" fill="#F5DCA4"/>
        <path d="M132.537 107.467C132.135 107.52 131.756 107.239 131.705 106.831C131.707 106.817 131.708 106.81 131.703 106.795C131.682 106.377 132.009 106.019 132.426 106.005C132.808 105.985 133.138 106.258 133.21 106.627C133.27 107.029 132.982 107.407 132.581 107.46C132.567 107.457 132.552 107.462 132.545 107.461" fill="#F5DCA4"/>
        <path d="M134.414 113.286C133.996 113.307 133.639 112.98 133.624 112.563C133.605 112.181 133.87 111.85 134.246 111.779C134.661 111.736 135.037 112.03 135.087 112.452C135.139 112.854 134.859 113.233 134.45 113.284C134.436 113.282 134.429 113.281 134.414 113.286Z" fill="#F5DCA4"/>
        <path d="M131.07 116.32C130.659 116.393 130.265 116.117 130.192 115.705C130.12 115.294 130.395 114.9 130.807 114.827C130.837 114.818 130.873 114.816 130.902 114.813C131.318 114.763 131.693 115.064 131.737 115.479C131.795 115.888 131.509 116.259 131.106 116.319C131.092 116.317 131.077 116.321 131.07 116.32Z" fill="#F5DCA4"/>
        <path fill-rule="evenodd" clip-rule="evenodd" d="M111.179 111.243C111.2 111.661 111.55 111.987 111.969 111.966C112.387 111.945 112.713 111.594 112.691 111.176C112.697 111.141 112.687 111.111 112.677 111.081C112.619 110.671 112.25 110.371 111.836 110.415C111.422 110.458 111.12 110.834 111.171 111.249" fill="#F5DCA4"/>
        <path fill-rule="evenodd" clip-rule="evenodd" d="M109.018 118.018C109.061 118.432 109.437 118.734 109.851 118.69C110.261 118.632 110.554 118.262 110.517 117.849C110.474 117.434 110.098 117.133 109.684 117.177C109.274 117.235 108.974 117.604 109.011 118.017" fill="#F5DCA4"/>
        <path d="M114.646 119.185C114.243 119.245 113.866 118.957 113.813 118.556C113.815 118.542 113.811 118.527 113.812 118.52C113.768 118.105 114.062 117.729 114.485 117.679C114.899 117.636 115.276 117.93 115.325 118.353C115.385 118.755 115.098 119.133 114.696 119.186C114.682 119.184 114.667 119.188 114.66 119.187" fill="#F5DCA4"/>
        <path fill-rule="evenodd" clip-rule="evenodd" d="M119.81 114.223C118.882 113.98 118.009 113.566 117.221 113.015C115.598 111.899 114.627 109.517 116.479 108.086C117.484 107.325 118.75 107.234 119.963 107.071C121.329 106.888 122.707 106.765 124.082 106.662C125.049 106.611 126.095 106.601 126.948 107.19C127.827 107.755 128.315 108.761 128.213 109.797C128.023 111.534 126.463 112.882 125.018 113.668C123.426 114.531 121.55 114.728 119.81 114.223Z" fill="#070809"/>
        <path d="M119.342 110.953C118.185 111.082 117.176 110.569 117.092 109.819C117.007 109.069 117.899 108.341 119.036 108.209C120.178 108.085 121.201 108.593 121.285 109.35C121.368 110.107 120.499 110.824 119.342 110.953Z" fill="white"/>
        <path fill-rule="evenodd" clip-rule="evenodd" d="M103.805 90.6328C103.805 90.6328 100.158 81.3992 92.1071 80.7219C86.6394 80.2716 82.496 84.8689 81.7562 89.6624C81.211 93.3341 81.7839 97.0854 83.3933 100.424C96.1201 91.7575 103.807 90.6258 103.807 90.6258" fill="#F78F0A"/>
        <path fill-rule="evenodd" clip-rule="evenodd" d="M105.548 96.915C104.69 89.9576 100.549 83.3664 94.4589 82.4981C88.3689 81.6298 83.0207 85.4116 82.4082 92.5784C81.844 99.1089 84.7394 104.406 86.7947 106.247C84.9462 107.099 82.8566 107.335 80.5242 107.383C84.6843 108.332 89.2857 108.556 93.4754 106.069C96.8446 104.078 101.064 102.604 104.75 102.222C105.232 102.16 105.593 101.765 105.618 101.283C105.699 99.8286 105.674 98.3653 105.548 96.915Z" fill="#FDA200"/>
        <path fill-rule="evenodd" clip-rule="evenodd" d="M84.6954 99.6809C85.4604 101.723 86.4916 103.664 87.7626 105.441C88.1537 105.966 88.8476 106.152 89.4444 105.901C89.5729 105.856 89.6756 105.794 89.8111 105.75C91.3584 105.087 92.9924 104.281 94.8608 103.439C97.5825 102.213 100.684 101.726 103.034 101.517L103.223 101.496C103.998 101.436 104.575 100.76 104.522 99.9864C104.33 97.8033 103.896 94.5886 102.754 92.2088C100.899 88.2812 96.569 84.3507 90.8052 85.865C85.0414 87.3792 82.8781 94.8147 84.6965 99.6739" fill="white"/>
        <mask id="mask1_0_2260" style="mask-type:luminance" maskUnits="userSpaceOnUse" x="84" y="85" width="21" height="22">
            <path d="M84.6944 99.677C85.4595 101.719 86.4906 103.66 87.7616 105.437C88.1527 105.963 88.8466 106.148 89.4434 105.897C89.5719 105.852 89.6746 105.79 89.8101 105.746C91.3575 105.084 92.9915 104.277 94.8598 103.435C97.5815 102.21 100.683 101.722 103.033 101.513L103.222 101.492C103.997 101.433 104.574 100.756 104.521 99.9825C104.329 97.7994 103.895 94.5846 102.753 92.2049C100.898 88.2772 96.568 84.3468 90.8042 85.8611C85.0405 87.3753 82.8771 94.8107 84.6955 99.67" fill="white"/>
        </mask>
        <g mask="url(#mask1_0_2260)">
            <path fill-rule="evenodd" clip-rule="evenodd" d="M92.9459 100.589C96.3777 106.119 101.035 104.963 102.35 104.365C104.426 103.433 109.379 100.492 105.21 92.0937C103.496 88.6456 98.699 86.3958 94.9094 88.4222C91.1187 90.4556 90.5564 96.1851 92.9459 100.589Z" fill="#111111" stroke="#474747" stroke-width="1.81664" stroke-miterlimit="10"/>
            <path d="M93.8991 95.622C92.8471 95.6242 92.0026 94.5138 92.0048 93.1549C92.006 91.8029 92.8424 90.6944 93.9014 90.6932C94.9534 90.691 95.7968 91.8085 95.7956 93.1604C95.7944 94.5123 94.965 95.622 93.8991 95.622Z" fill="white"/>
            <path d="M94.6429 99.0964C94.2638 99.3742 93.6382 99.1631 93.2493 98.6238C92.8523 98.0904 92.8257 97.4281 93.2048 97.1504C93.5839 96.8726 94.2084 97.0906 94.5985 97.623C94.9954 98.1564 95.022 98.8187 94.6429 99.0964Z" fill="white"/>
        </g>
        <path fill-rule="evenodd" clip-rule="evenodd" d="M121.523 89.034C121.523 89.034 119.705 92.7454 119.346 89.2775C118.659 82.6541 123.911 76.7612 129.407 77.7239C135.908 78.8488 137.161 85.7026 137.163 91.0684C131.699 90.9191 121.523 89.034 121.523 89.034Z" fill="#F78F0A"/>
        <path fill-rule="evenodd" clip-rule="evenodd" d="M119.575 93.3589C118.019 83.3248 124.046 79.0826 127.875 79.1655C133.535 79.3021 136.813 84.5727 137.142 90.6471C137.478 96.8157 136.119 99.0383 136.119 99.0383C136.119 99.0383 137.093 99.4962 140.489 98.9044C138.356 100.256 135.514 101.663 131.409 100.493C128.585 99.7357 125.643 99.5177 122.73 99.848C122.152 99.9805 121.559 99.6959 121.291 99.1609C120.453 97.3146 119.875 95.3581 119.576 93.3519" fill="#FDA200"/>
        <path fill-rule="evenodd" clip-rule="evenodd" d="M120.164 93.5231C120.244 93.979 120.343 94.4021 120.412 94.7919C120.457 94.9204 120.468 95.0795 120.511 95.215C120.768 96.2418 121.115 97.2396 121.553 98.2015C121.783 98.7021 122.312 98.984 122.854 98.9031C124.778 98.5777 127.766 98.2733 130.526 98.8352C130.97 98.9252 131.393 99.0119 131.78 99.1003C132.166 99.1956 132.535 99.2598 132.897 99.3298C133.458 99.4451 134.025 99.1605 134.263 98.6322C135.038 96.8559 135.582 94.3501 135.207 90.9871C134.54 85.0178 130.718 81.552 126.205 82.0574C121.684 82.5616 119.075 87.4601 120.163 93.5301" fill="white"/>
        <mask id="mask2_0_2260" style="mask-type:luminance" maskUnits="userSpaceOnUse" x="119" y="82" width="17" height="18">
            <path d="M120.164 93.5212C120.244 93.9771 120.343 94.4002 120.412 94.7899C120.457 94.9184 120.468 95.0775 120.511 95.213C120.768 96.2398 121.115 97.2377 121.553 98.1996C121.783 98.7001 122.312 98.9821 122.854 98.9012C124.778 98.5758 127.766 98.2713 130.526 98.8333C130.97 98.9232 131.393 99.01 131.78 99.0983C132.166 99.1937 132.535 99.2578 132.897 99.3279C133.458 99.4432 134.025 99.1585 134.263 98.6302C135.038 96.854 135.582 94.3482 135.207 90.9851C134.54 85.0158 130.718 81.5501 126.205 82.0554C121.684 82.5596 119.075 87.4582 120.163 93.5282" fill="white"/>
        </mask>
        <g mask="url(#mask2_0_2260)">
            <path fill-rule="evenodd" clip-rule="evenodd" d="M124.853 93.0305C125.674 99.4884 129.122 99.4911 131.05 99.6528C132.942 99.816 137.141 99.3551 137.429 91.6017C137.599 87.0208 135.12 83.2471 129.914 83.8316C126.022 84.2969 124.223 89.7425 124.853 93.0305Z" fill="#111111" stroke="#474747" stroke-width="1.81664" stroke-miterlimit="10"/>
            <path d="M127.766 90.6106C126.731 90.408 126.115 89.1611 126.37 87.8341C126.625 86.507 127.663 85.5726 128.698 85.7753C129.733 85.9779 130.349 87.2247 130.094 88.5518C129.839 89.8789 128.8 90.8132 127.766 90.6106Z" fill="white"/>
            <path d="M128.718 93.5779C128.359 93.8659 127.791 93.7425 127.436 93.3085C127.081 92.8746 127.079 92.2876 127.438 91.9996C127.797 91.7116 128.365 91.835 128.72 92.269C129.075 92.703 129.077 93.29 128.718 93.5779Z" fill="white"/>
        </g>
        <path fill-rule="evenodd" clip-rule="evenodd" d="M91.2394 74.8903C88.9475 76.7615 86.068 77.6192 84.1826 78.015C83.6794 78.1233 83.1839 77.8108 83.0745 77.3146C83.0241 77.085 83.0629 76.8335 83.1802 76.6298C83.3169 76.3933 83.4471 76.1058 83.609 75.8446C84.5883 73.8567 85.4262 71.8112 86.1368 69.7102C87.181 66.6521 90.0822 65.5617 92.0864 66.1572C92.554 66.2794 92.9791 66.5382 93.3111 66.8899C95.0659 68.6845 94.2084 72.4797 91.2405 74.8833" fill="#F78F0A"/>
        <path fill-rule="evenodd" clip-rule="evenodd" d="M123.781 71.2493C126.432 72.567 129.42 72.7705 131.356 72.7403C131.872 72.7341 132.281 72.3107 132.275 71.7946C132.274 71.5656 132.181 71.3366 132.021 71.1688C131.837 70.9687 131.647 70.7176 131.43 70.4982C130.037 68.7736 128.763 66.9674 127.61 65.0725C125.91 62.3205 122.841 61.9041 121.024 62.9257C120.595 63.1528 120.235 63.4908 119.992 63.911C118.675 66.0472 120.35 69.5609 123.781 71.2493Z" fill="#F78F0A"/>
        <path fill-rule="evenodd" clip-rule="evenodd" d="M86.7899 82.0795C84.3286 83.8888 81.152 84.4001 78.2486 83.4655C78.2486 83.4655 82.5808 86.6381 83.655 85.1942C82.3344 85.9633 80.7362 86.0744 79.3238 85.4915C79.3238 85.4915 81.5496 87.2015 83.1777 86.2008C82.3388 86.9083 81.205 87.1626 80.1403 86.8766C80.1403 86.8766 81.94 88.0558 82.6406 87.5487C82.6428 87.5347 83.5863 83.9244 86.7899 82.0795Z" fill="#F99108"/>
        <path fill-rule="evenodd" clip-rule="evenodd" d="M130.462 78.023C133.257 79.2413 136.471 79.0434 139.093 77.4879C139.093 77.4879 136.12 80.8064 134.516 80.5374C135.9 80.8869 137.372 80.5774 138.5 79.7072C138.5 79.7072 137.025 82.2695 135.215 81.6682C135.215 81.6682 136.13 82.8754 138.012 81.2486C138.012 81.2486 136.396 83.4674 135.603 83.1375C135.603 83.1375 134.008 79.1498 130.461 78.03" fill="#F99108"/>
    </g>
    <path fill-rule="evenodd" clip-rule="evenodd" d="M134.373 138.39C136.324 137.017 142.096 134.406 148.457 130.785C154.473 126.176 159.719 121.421 160.677 120.37C162.412 118.489 176.127 124.634 168.744 132.128C163.323 140.58 147.37 151.848 145.425 153.057C135.466 159.261 128.263 158.94 125.483 153.91C123.199 149.775 125.203 144.862 134.368 138.396L134.373 138.39Z" fill="#FFB400"/>
    <path fill-rule="evenodd" clip-rule="evenodd" d="M165.964 127.173C165.391 125.958 165.064 124.638 165 123.294C164.171 123.119 163.365 122.845 162.605 122.465C164.282 124.86 164.708 127.278 165.97 127.167" fill="#F78F0A"/>
    <path fill-rule="evenodd" clip-rule="evenodd" d="M121.246 140.196C113.22 141.148 123.565 162.504 133.372 160.874C138.051 160.05 142.233 159.18 149.144 151.861C149.144 151.861 149.272 146.703 146.276 141.685C144.88 139.343 141.521 138.408 139.476 135.318C139.476 135.318 132.519 138.858 121.252 140.202L121.246 140.196Z" fill="#F8DEAD"/>
    <path d="M150.739 150.577L147.959 153.141C147.959 153.141 147.813 149.111 144.629 143.141C141.446 137.171 137.24 136.266 137.24 136.266L140.61 134.402C140.61 134.402 144.308 135.249 147.76 140.518C151.212 145.787 150.733 150.577 150.733 150.577H150.739Z" fill="#ED7155"/>
    <path fill-rule="evenodd" clip-rule="evenodd" d="M27.5453 177.197C28.6785 178.336 30.9333 180.936 33.3691 185.475C35.6939 189.791 39.5375 194.003 44.2631 197.379C44.3157 197.42 44.3624 197.437 44.4092 197.484C51.9444 202.811 61.676 206.036 71.1681 204.383C85.1405 201.947 93.8966 193.22 95.5438 191.427C95.7366 191.228 95.8184 191.129 95.8184 191.129L90.9818 181.263L88.5343 176.274L86.5891 172.297C82.471 168.43 77.4241 166.286 72.1378 164.393C72.0618 164.352 71.9684 164.341 71.8983 164.3C70.438 163.768 68.9601 163.283 67.4764 162.758C67.0442 162.606 66.6353 162.454 66.2088 162.308C62.3594 160.924 58.4983 159.405 54.9293 157.191C51.185 154.901 47.9782 151.84 45.519 148.207C38.0947 137.342 34.0934 126.711 32.4754 120.461C32.0723 118.895 31.2429 118.849 30.6821 120.373C29.6657 123.13 28.9239 125.981 28.4741 128.884C26.675 140.169 29.0115 150.66 30.5419 153.815C30.1739 153.266 29.8526 152.734 29.5547 152.226C28.7136 150.806 27.9834 149.334 27.3643 147.804C27.3409 147.757 27.3351 147.711 27.3058 147.67C26.8502 146.601 26.3479 146.7 26.1902 147.944C26.1668 148.201 26.1201 148.487 26.0967 148.78C25.5184 154.189 25.3198 165.76 31.6576 178.938C30.6412 177.817 29.3152 177.022 27.8491 176.648C27.2591 176.491 27.1131 176.736 27.5453 177.192" fill="#F78F0A"/>
    <path fill-rule="evenodd" clip-rule="evenodd" d="M30.5662 153.809C30.1982 153.26 29.8769 152.729 29.579 152.22C31.2964 157.045 33.4869 161.444 36.2615 164.464C47.9791 177.274 57.7691 167.776 63.6162 165.445C66.3383 164.364 69.5101 164.224 72.1445 164.405C72.0686 164.364 71.9751 164.353 71.905 164.312C70.4447 163.78 68.9669 163.295 67.4832 162.77C67.0509 162.618 66.642 162.466 66.2156 162.32C62.3662 160.936 58.5051 159.417 54.9361 157.203C51.1918 154.913 47.9849 151.852 45.5258 148.219C38.1015 137.354 34.1002 126.723 32.4822 120.473C32.0791 118.907 31.2496 118.855 30.6889 120.385C29.6725 123.142 28.9307 125.993 28.4809 128.902C26.7051 140.181 29.03 150.667 30.5721 153.815" fill="#FFA400"/>
    <path fill-rule="evenodd" clip-rule="evenodd" d="M27.5457 177.196C28.6789 178.335 30.9336 180.934 33.3694 185.473C35.6943 189.79 39.5379 194.001 44.2635 197.378C40.5718 189.679 39.31 183.248 39.3918 177.996C39.5086 170.262 42.5812 164.994 45.3558 161.705C48.1304 158.416 52.0674 157.423 54.9238 157.219C51.1796 154.929 47.9727 151.868 45.5135 148.235C38.0892 137.376 34.0879 126.739 32.4699 120.489C32.0669 118.917 31.2374 118.871 30.6766 120.401C25.4603 134.473 28.638 149.905 30.5364 153.837C29.2806 151.944 28.2174 149.929 27.3588 147.832C26.8681 146.617 26.3365 146.687 26.1847 147.972C26.1379 148.247 26.1087 148.527 26.0912 148.807C26.0328 149.234 25.9977 149.678 25.9685 150.168C25.9569 150.332 25.9452 150.495 25.9393 150.682C25.9218 150.799 25.9335 150.916 25.9218 151.033C25.916 151.243 25.8868 151.43 25.8809 151.664C25.8342 152.809 25.805 154.105 25.8459 155.525C25.8459 155.758 25.8576 155.992 25.8751 156.22C26.2431 164.117 28.2057 171.857 31.658 178.972C30.6357 177.856 29.3156 177.062 27.8494 176.682C27.2595 176.501 27.1134 176.746 27.5457 177.196Z" fill="#FFE2A4"/>
    <path fill-rule="evenodd" clip-rule="evenodd" d="M44.2689 197.377C51.81 202.751 61.6117 206.04 71.1681 204.358C86.7293 201.63 95.8066 191.098 95.8066 191.098L90.9701 181.232C88.3532 185.321 78.9078 193.61 67.3362 193.411C59.3862 193.271 48.5915 190.689 39.3856 177.973C39.3155 183.247 40.6064 189.661 44.2689 197.377Z" fill="#D46A00"/>
    <path fill-rule="evenodd" clip-rule="evenodd" d="M27.5459 177.197C28.6791 178.336 30.9338 180.936 33.3696 185.474C35.6945 189.791 39.5381 194.003 44.2637 197.379C40.572 189.68 39.3102 183.249 39.392 177.998C34.2692 170.918 29.6429 161.414 26.0914 148.809C26.033 149.235 25.9979 149.679 25.9687 150.17C25.9571 150.327 25.9454 150.497 25.9395 150.684C25.922 150.8 25.9337 150.917 25.922 151.034C25.9162 151.244 25.887 151.431 25.8811 151.665C25.8344 152.81 25.8052 154.107 25.8461 155.526C25.8461 155.76 25.8578 155.988 25.8753 156.221C26.2374 164.119 28.2059 171.858 31.6523 178.973C30.6301 177.857 29.31 177.063 27.8438 176.683C27.2538 176.502 27.1078 176.747 27.5401 177.197" fill="#FFCD7C"/>
    <path fill-rule="evenodd" clip-rule="evenodd" d="M118.403 132.261L118.958 140.918L121.855 148.885C121.855 148.885 105.044 157.063 94.3079 141.922L95.5521 130.748L118.409 132.261H118.403Z" fill="#F78F0A"/>
    <path fill-rule="evenodd" clip-rule="evenodd" d="M94.5877 138.392C94.5877 138.392 91.9182 138.258 90.4053 139.157C89.3539 139.782 84.418 141.61 81.474 146.459C78.8045 150.816 85.3818 161.675 87.5548 173.632C89.5058 184.369 81.2871 187.675 83.1563 189.824C97.4149 206.25 141.324 199.819 141.347 188.569C141.394 165.361 137.603 161.734 133.777 154.496C132.638 152.341 125.552 143.427 125.003 142.878C122.708 140.588 120.441 139.73 119.372 139.426C119.104 139.35 118.823 139.554 118.829 139.835C118.852 140.851 118.187 142.971 112.561 143.69C101.229 145.144 95.0491 138.713 95.0491 138.713" fill="#FFF4D5"/>
    <path fill-rule="evenodd" clip-rule="evenodd" d="M123.147 165.077C123.147 165.077 115.448 163.225 106.312 167.711C108.9 163.891 115.43 159.043 119.519 159.23C118.251 160.083 117.247 161.268 116.622 162.665C119.361 162.746 122.703 164.382 123.152 165.077" fill="#F8DEAD"/>
    <path d="M69.081 161.961C66.6533 156.94 65.9686 152.248 67.5515 151.483C69.1344 150.718 72.3857 154.169 74.8133 159.19C77.241 164.212 77.9258 168.904 76.3428 169.669C74.7599 170.434 71.5087 166.983 69.081 161.961Z" fill="#D8362A"/>
    <path fill-rule="evenodd" clip-rule="evenodd" d="M42.0532 143.144C48.0172 137.787 50.8619 137.928 54.9274 141.684C57.1062 143.781 63.4148 150.615 65.4067 152.618C68.8764 150.486 71.5926 148.775 73.4677 147.805C83.8535 142.431 89.4845 143.144 92.1773 147.32C95.4543 152.402 92.2299 156.515 83.7892 163.144C81.7623 164.733 76.768 167.181 74.9046 168.016C66.131 171.953 61.236 171.287 58.4964 169.132C51.5745 163.676 44.9329 154.289 43.9399 153.097C40.9901 149.552 37.7482 146.543 42.0415 143.144H42.0532Z" fill="#FFB400"/>
    <path fill-rule="evenodd" clip-rule="evenodd" d="M86.5049 141.603C94.5834 141.276 100.501 151.942 94.7703 160.067C91.4408 164.793 87.8309 167.129 77.9649 169.361C77.9649 169.361 77.7663 164.051 74.5361 158.572C73.0699 156.084 70.9087 152.947 68.2801 150.71C68.2801 150.71 79.4369 141.878 86.5049 141.603Z" fill="#F8DEAD"/>
    <path d="M76.1782 169.755L80.127 168.838C80.127 168.838 80.0977 164.159 77.4633 158.551C74.8289 152.944 70.2084 149.305 70.2084 149.305L66.9256 151.519C66.9256 151.519 70.9795 154.597 73.3511 160.129C75.7226 165.66 76.1724 169.749 76.1724 169.749L76.1782 169.755Z" fill="#ED7155"/>
    <path fill-rule="evenodd" clip-rule="evenodd" d="M159.081 125.49C159.081 125.49 156.797 122.102 157.498 114.876C158.199 107.615 162.084 108.602 162.79 110.472C163.059 111.19 163.404 112.837 163.725 113.229C164.064 113.638 164.718 113.451 164.917 112.954C165.816 110.717 166.751 106.289 170.273 105.845C172.329 105.588 173.795 106.698 174.163 108.597C174.356 109.613 172.767 112.306 172.049 113.684C171.698 114.35 172.364 114.806 172.364 114.806C172.364 114.806 176.915 108.521 180.46 112.265C182.99 114.934 180.437 117.347 180.437 117.347C180.437 117.347 184.199 118.912 182.622 122.02C179.397 128.387 171.307 132.452 166.903 132.09C162.498 131.728 159.075 125.478 159.075 125.478L159.081 125.49Z" fill="#FFB400"/>
    <path fill-rule="evenodd" clip-rule="evenodd" d="M180.437 117.352C180.437 117.352 178.345 117.276 175.15 120.629C175.15 120.629 176.768 116.067 181.108 116.336L180.442 117.352H180.437Z" fill="#F78F0A"/>
    <path fill-rule="evenodd" clip-rule="evenodd" d="M166.744 117.452C166.744 117.452 172.983 117.276 173.795 123.351C173.795 123.351 172.925 120.851 169.221 121.815C169.221 121.815 169.572 119.198 166.744 117.452Z" fill="#F78F0A"/>
    <path fill-rule="evenodd" clip-rule="evenodd" d="M55.8406 143.757C55.8406 143.757 57.5637 139.329 54.0064 133.003C50.7178 127.15 46.6522 129.767 46.6697 131.607C46.6873 133.447 47.1546 134.317 47.1546 134.317C47.1546 134.317 41.8273 127.862 38.3459 129.58C36.4884 130.503 36.132 131.753 36.1729 132.664C36.208 133.371 36.4767 133.873 36.4767 133.873C36.4767 133.873 33.1413 132.991 31.7978 136.414C30.4601 139.837 33.1121 141.321 33.1121 141.321C33.1121 141.321 29.876 143.792 32.1892 146.397C36.9265 151.73 45.7877 153.605 49.9525 152.133C54.1174 150.661 55.8406 143.751 55.8406 143.751V143.757Z" fill="#FFB400"/>
    <path fill-rule="evenodd" clip-rule="evenodd" d="M33.1121 141.319C33.1121 141.319 35.1157 140.718 39.0586 143.142C39.0586 143.142 36.3365 139.14 32.2068 140.507L33.1121 141.319Z" fill="#F78F0A"/>
    <path fill-rule="evenodd" clip-rule="evenodd" d="M36.4762 133.868C36.4762 133.868 38.8887 134.072 42.0488 136.853C42.0488 136.853 39.8408 132.133 36.1958 132.145L36.4704 133.874L36.4762 133.868Z" fill="#F78F0A"/>
    <path fill-rule="evenodd" clip-rule="evenodd" d="M46.377 137.934C46.377 137.934 40.2962 139.353 41.0614 145.434C41.0614 145.434 41.2717 142.794 45.0919 142.782C45.0919 142.782 44.0872 140.34 46.377 137.934Z" fill="#F78F0A"/>
    <path fill-rule="evenodd" clip-rule="evenodd" d="M47.4761 109.603C47.4761 109.603 47.5298 109.626 47.5626 109.645L47.5583 109.673C45.6985 113.936 43.2449 117.921 40.2797 121.513C39.8693 121.993 39.9362 122.719 40.4176 123.123C40.4622 123.158 40.5068 123.194 40.5525 123.222C40.5772 123.247 40.6089 123.274 40.639 123.264C48.6493 127.219 58.5852 127.55 58.5852 127.55C58.5852 127.55 57.3374 127.987 55.4557 128.498C55.0595 128.609 54.8249 129.016 54.9355 129.412C54.9902 129.614 55.1283 129.785 55.3142 129.878C59.971 132.107 65.735 133.697 72.1598 134.667C87.4155 136.964 106.335 135.642 122.632 130.445C126.228 129.304 129.731 127.885 133.103 126.202C141.71 121.835 147.787 116.392 151.88 111.472C154.354 108.563 156.4 105.316 157.96 101.837C158.063 101.588 157.949 101.305 157.707 101.204C157.566 101.146 157.4 101.156 157.273 101.237C156.518 101.678 155.699 101.981 154.838 102.135C154.838 102.135 159.604 97.3042 162.827 91.2556C162.968 90.9912 163.014 90.6907 162.974 90.3913C162.86 89.744 162.304 89.2648 161.648 89.2494C153.808 89.0125 147.985 84.6513 147.719 84.4313C147.719 84.4313 156.094 74.6207 160.798 57.0251C165.502 39.4296 163.263 26.6789 157.692 22.9145C154.861 20.9969 150.139 20.3539 144.106 21.7121C138.08 23.0714 130.663 26.3981 122.54 32.3987C106.194 44.4917 100.259 51.7959 100.259 51.7959C94.6014 51.2304 88.8844 51.7002 83.3969 53.1856C74.7265 45.7665 42.3123 33.2452 29.6171 32.9457C16.93 32.6404 11.0608 40.0762 12.2871 52.2485C13.5054 64.3337 22.1232 85.4446 33.8463 97.5128C42.703 106.599 46.3432 108.971 47.2713 109.493C47.2853 109.495 47.2993 109.497 47.296 109.518C47.3568 109.542 47.4164 109.573 47.4691 109.602" fill="#FDB201"/>
    <path fill-rule="evenodd" clip-rule="evenodd" d="M100.257 51.7668C102.227 51.7989 104.189 51.9729 106.137 52.2808C107.728 52.5406 109.313 51.8195 110.154 50.4469C116.338 40.5127 131.161 26.9326 144.105 21.6331C138.041 22.958 130.661 26.319 122.538 32.3196C106.194 44.4487 100.257 51.7668 100.257 51.7668Z" fill="#F78F0A"/>
    <path fill-rule="evenodd" clip-rule="evenodd" d="M72.1627 134.645C87.4183 136.942 106.33 135.618 122.635 130.422C123.085 130.292 123.531 130.132 123.971 129.971C124.176 129.895 124.417 129.818 124.623 129.735L125.281 129.5C125.564 129.386 125.856 129.303 126.145 129.19C126.358 129.108 126.541 129.036 126.723 128.964L127.895 128.509C128.078 128.437 128.233 128.36 128.416 128.288C128.551 128.245 128.676 128.178 128.805 128.134C129.009 128.058 129.208 127.974 129.402 127.876C130.077 127.586 130.752 127.29 131.395 126.974C131.788 126.791 132.151 126.618 132.535 126.442C132.716 126.341 132.898 126.269 133.102 126.157C133.102 126.157 133.12 126.146 133.157 126.123L133.185 126.127C141.794 121.754 147.885 116.312 151.957 111.389C143.769 110.483 130.231 109.897 115.629 113.052C98.4583 116.769 87.0616 122.751 79.8641 127.993C77.098 129.969 74.5221 132.197 72.1697 134.646" fill="#F5DCA4"/>
    <path fill-rule="evenodd" clip-rule="evenodd" d="M40.5581 123.231C40.5581 123.231 40.6146 123.282 40.6447 123.273C48.655 127.227 58.5909 127.559 58.5909 127.559C58.5909 127.559 57.343 127.996 55.4614 128.507C55.0651 128.617 54.8306 129.025 54.9411 129.421C54.9958 129.622 55.1339 129.794 55.3199 129.887C59.9767 132.115 65.7406 133.706 72.1655 134.676C74.4867 132.244 77.0233 130.039 79.7582 128.078C66.0672 123.941 55.6658 116.612 47.5387 109.706C45.6778 113.976 43.2242 117.962 40.266 121.554C39.8755 122.045 39.9644 122.767 40.456 123.15C40.4877 123.177 40.5264 123.204 40.5592 123.224" fill="#FDA200"/>
    <path fill-rule="evenodd" clip-rule="evenodd" d="M72.1627 134.649C87.4183 136.946 106.33 135.622 122.635 130.426C123.085 130.296 123.531 130.136 123.971 129.974C124.176 129.899 124.417 129.822 124.623 129.739L125.281 129.504C125.564 129.39 125.856 129.307 126.145 129.194C126.358 129.112 126.541 129.04 126.723 128.968L127.895 128.513C128.078 128.441 128.233 128.364 128.416 128.292C128.551 128.249 128.676 128.182 128.805 128.138C129.009 128.062 129.208 127.978 129.403 127.88C130.077 127.59 130.752 127.294 131.395 126.978C131.788 126.795 132.151 126.622 132.535 126.446C132.716 126.345 132.898 126.273 133.102 126.161C133.102 126.161 133.12 126.15 133.157 126.127L133.129 126.122C127.745 128.146 122.147 129.557 116.453 130.338C102.124 132.376 90.047 131.085 79.82 128.004C77.0749 129.984 74.5199 132.215 72.1697 134.65" fill="#FFCD7C"/>
    <path fill-rule="evenodd" clip-rule="evenodd" d="M152.231 89.3104C151.319 91.3731 151.978 92.3834 154.86 92.3918C157.703 92.4227 160.504 91.7031 162.98 90.304C162.874 89.6508 162.318 89.1716 161.655 89.1552C153.809 88.9101 147.992 84.557 147.719 84.3359C147.8 84.5058 149.057 86.7889 152.231 89.3104Z" fill="#FDA200"/>
    <path fill-rule="evenodd" clip-rule="evenodd" d="M62.6307 67.9163C62.6307 67.9163 66.7617 73.6904 67.588 67.6869C68.8669 58.4266 60.5904 46.7402 45.1626 41.2472C29.7419 35.7554 19.3608 41.3217 16.8748 46.5826C14.1241 52.4465 17.7992 66.4132 27.4718 81.4772C37.1444 96.5411 47.285 107.228 54.0081 105.06C48.6071 90.827 62.6237 67.9152 62.6237 67.9152" fill="#F78F0A"/>
    <path fill-rule="evenodd" clip-rule="evenodd" d="M24.978 73.0206C27.8789 79.2559 32.0623 85.7106 36.4849 91.1721C43.2836 99.64 50.5511 105.719 54.0481 105.079C57.8538 104.385 57.5222 99.6269 59.4346 90.9436C62.2756 78.097 70.4122 70.7106 66.6264 63.6734C65.0994 60.9124 63.1858 58.385 60.9378 56.1708C51.1284 46.3511 35.0337 40.4977 25.8154 43.4891C14.4177 47.1601 18.8036 59.6268 24.9791 73.0136" fill="#F37C00"/>
    <path fill-rule="evenodd" clip-rule="evenodd" d="M34.1009 85.9423C34.7215 87.7622 35.5098 89.515 36.4551 91.1775C43.2538 99.6455 50.5213 105.725 54.0183 105.084C57.824 104.391 57.4924 99.6323 59.4118 90.9502C62.2528 78.1035 70.3824 70.7161 66.6036 63.6799C65.0766 60.9189 63.163 58.3915 60.915 56.1774C54.5466 52.755 47.8802 51.1253 42.4483 54.4292C35.3409 58.7622 29.7151 73.1966 34.109 85.9364" fill="#ED6C00"/>
    <path fill-rule="evenodd" clip-rule="evenodd" d="M58.2811 70.6066C59.1035 69.5889 59.2224 68.1693 58.5671 67.038C57.7985 65.7604 56.385 64.1186 53.7043 62.7606C48.3908 60.059 47.0305 58.5828 45.4531 56.6582C47.0628 63.009 53.5481 66.9717 53.5481 66.9717C53.5481 66.9717 49.6566 66.042 48.1374 67.4959C50.2182 67.6883 52.1949 68.5084 53.7897 69.8563C52.8338 70.0235 51.9123 70.3392 51.0671 70.8097C52.6376 71.2023 54.0888 71.5336 55.1762 71.7658C56.3431 71.9458 57.52 71.5051 58.2881 70.6077" fill="#F37C00"/>
    <path fill-rule="evenodd" clip-rule="evenodd" d="M127.302 60.6065C127.302 60.6065 125.203 61.549 124.424 59.1823C123.644 56.8156 124.454 46.7961 133.846 37.2999C142.757 28.3232 151.938 24.7394 155.981 26.9587C160.024 29.178 159.819 37.4164 159.276 42.3261C158.777 47.2283 127.295 60.6055 127.295 60.6055" fill="#F78F0A"/>
    <path fill-rule="evenodd" clip-rule="evenodd" d="M134.729 69.8202C137.764 73.3361 140.615 77.017 143.259 80.8375C143.259 80.8375 147.96 79.7673 152.411 69.9306C152.503 69.7517 152.581 69.5706 152.652 69.3884C157.186 59.0636 162.69 35.6823 156.823 30.2196C153.27 26.9099 143.589 31.6471 135.622 39.5603C130.426 44.7178 125.98 51.2287 124.409 57.7468C123.52 61.6087 130.037 64.3887 134.728 69.8272" fill="#F37C00"/>
    <path fill-rule="evenodd" clip-rule="evenodd" d="M134.728 69.8217C137.762 73.3377 140.614 77.0185 143.258 80.8391C143.258 80.8391 147.959 79.7689 152.41 69.9322C155.793 59.5086 155.272 46.8012 151.041 42.0419C147.074 37.6165 141.115 36.4107 135.644 39.5512C130.448 44.7087 126.002 51.2195 124.445 57.7398C123.527 61.6043 130.044 64.3844 134.735 69.8228" fill="#ED6C00"/>
    <path fill-rule="evenodd" clip-rule="evenodd" d="M131.923 60.5535C131.01 59.8403 130.639 58.6312 130.988 57.5262C131.394 56.2868 132.283 54.6068 134.352 52.8801C138.384 49.5175 139.283 48.0036 140.281 46.0329C140.139 51.8201 135.322 56.4708 135.322 56.4708C135.322 56.4708 138.494 54.9215 140.102 55.8565C138.341 56.4217 136.799 57.5144 135.684 58.9878C136.519 58.9592 137.354 59.0596 138.157 59.2836C136.897 59.9404 135.711 60.5301 134.801 60.9118C133.853 61.3522 132.729 61.2146 131.916 60.5525" fill="#F37C00"/>
    <path d="M77.091 117.402C76.6884 117.462 76.3106 117.175 76.2581 116.773C76.2603 116.759 76.2555 116.744 76.2565 116.737C76.2132 116.323 76.5074 115.946 76.9299 115.897C77.3525 115.847 77.7211 116.148 77.7703 116.57C77.8298 116.973 77.5426 117.351 77.141 117.403C77.1271 117.401 77.112 117.406 77.105 117.405" fill="#F5DCA4"/>
    <path d="M83.6459 121.189C83.2341 121.261 82.8402 120.986 82.7678 120.574C82.6954 120.162 82.9708 119.768 83.3826 119.696C83.4127 119.686 83.4488 119.685 83.4778 119.682C83.8923 119.639 84.269 119.933 84.3123 120.347C84.3718 120.75 84.0845 121.128 83.683 121.18L83.648 121.175" fill="#F5DCA4"/>
    <path d="M88.1628 115.106C87.7484 115.15 87.3717 114.855 87.3224 114.433C87.2732 114.01 87.5733 113.642 87.9958 113.592C88.4184 113.543 88.787 113.843 88.8362 114.266C88.8855 114.688 88.5854 115.057 88.1698 115.107" fill="#F5DCA4"/>
    <path d="M90.2399 112.536C89.8383 112.588 89.4595 112.308 89.4081 111.9C89.4102 111.886 89.4113 111.879 89.4065 111.864C89.3851 111.445 89.7122 111.088 90.1293 111.074C90.5115 111.054 90.8425 111.32 90.9133 111.695C90.9728 112.098 90.6855 112.476 90.284 112.528C90.27 112.526 90.2549 112.531 90.2479 112.53" fill="#F5DCA4"/>
    <path fill-rule="evenodd" clip-rule="evenodd" d="M145.653 102.343C145.696 102.758 146.072 103.059 146.493 103.017C146.908 102.973 147.209 102.598 147.167 102.176C147.124 101.755 146.748 101.461 146.326 101.503C145.911 101.553 145.61 101.922 145.661 102.337L145.653 102.343Z" fill="#F5DCA4"/>
    <path d="M142.247 106.474C141.829 106.495 141.471 106.168 141.457 105.751C141.437 105.369 141.703 105.038 142.079 104.967C142.494 104.917 142.87 105.218 142.913 105.632C142.965 106.041 142.686 106.413 142.276 106.471C142.262 106.469 142.255 106.468 142.24 106.473" fill="#F5DCA4"/>
    <path d="M139.802 104.513C139.4 104.566 139.021 104.285 138.97 103.877C138.971 103.87 138.973 103.856 138.967 103.848C138.895 103.436 139.17 103.042 139.582 102.97C139.994 102.897 140.388 103.173 140.46 103.585C140.47 103.615 140.471 103.651 140.474 103.68C140.526 104.081 140.246 104.46 139.838 104.512C139.824 104.509 139.817 104.508 139.802 104.513Z" fill="#F5DCA4"/>
    <path fill-rule="evenodd" clip-rule="evenodd" d="M83.3976 53.1802C85.8108 53.9532 88.1229 55.0112 90.28 56.3313C94.4528 58.914 98.3149 59.2454 102.962 57.5016C100.525 56.9323 99.3358 55.783 99.3358 55.783C99.3358 55.783 105.001 54.5826 107.343 49.2781C105.194 50.5059 102.917 51.4923 100.552 52.2148C100.803 52.0246 108.237 46.9192 108.385 39.1942C100.552 48.0439 94.0692 48.2811 94.0692 48.2811C94.6111 47.0413 95.5238 45.9946 96.6766 45.2925C94.3849 45.5398 92.1505 46.2037 90.0998 47.2536C87.3986 48.6253 85.0877 50.6653 83.3906 53.1791" fill="#FFE2A4"/>
    <path fill-rule="evenodd" clip-rule="evenodd" d="M132.637 118.608C132.637 118.608 128.94 122.537 128.171 126.131C127.395 129.675 126.251 131.108 123.101 131.68C119.794 132.293 111.091 129.212 107.841 123.802C104.001 117.436 117.7 115.079 122.461 114.548C127.222 114.016 132.637 118.608 132.637 118.608Z" fill="#FDB201"/>
    <path fill-rule="evenodd" clip-rule="evenodd" d="M112.712 123.261C112.748 123.353 112.792 123.438 112.851 123.519C115.273 127.391 119.731 128.544 121.594 128.66C123.458 128.776 125.317 128.598 125.791 125.709C125.891 125.245 126.021 124.779 126.183 124.331C127.158 121.856 129.365 119.428 129.365 119.428L124.014 114.417C124.014 114.417 111.03 119.418 112.712 123.261Z" fill="#A60023"/>
    <path fill-rule="evenodd" clip-rule="evenodd" d="M112.711 123.26C112.747 123.351 112.791 123.437 112.85 123.517C115.271 127.389 119.729 128.542 121.593 128.658C123.456 128.774 125.315 128.596 125.79 125.708C125.89 125.244 126.019 124.777 126.181 124.33C125.472 123.362 124.567 122.55 123.521 121.959C121.383 120.835 118.682 121.327 118.682 121.327L112.704 123.259L112.711 123.26Z" fill="#DA0739"/>
    <path fill-rule="evenodd" clip-rule="evenodd" d="M117.539 121.679C117.539 121.679 119.635 121.96 121.443 125.451C117.784 122.182 115.026 122.622 115.026 122.622L117.532 121.678L117.539 121.679Z" fill="#A60023"/>
    <path fill-rule="evenodd" clip-rule="evenodd" d="M96.6746 115.226C96.6746 115.226 95.6681 114.47 94.8411 114.915C92.9687 118.61 96.5648 125.719 105.789 127.092C114.431 128.39 119.993 123.597 122.209 119.296C112.57 116.342 96.6805 115.234 96.6805 115.234" fill="#F78F0A"/>
    <path fill-rule="evenodd" clip-rule="evenodd" d="M135.252 108.906C135.252 108.906 134.738 108.204 136.623 107.994C139.212 109.717 140.024 115.022 136.881 118.608C134.076 121.809 127.944 122 124.727 118.742C127.652 113.978 135.252 108.906 135.252 108.906Z" fill="#F78F0A"/>
    <path fill-rule="evenodd" clip-rule="evenodd" d="M95.5501 118.567C98.8886 123.59 104.667 125.826 111.095 125.109C113.86 124.806 116.507 123.833 118.813 122.286C120.068 121.435 121.21 120.431 122.209 119.29C122.834 118.579 123.854 118.364 124.708 118.768C124.756 118.782 124.802 118.804 124.848 118.832C124.915 118.864 124.973 118.902 125.024 118.945C125.474 119.272 125.961 119.548 126.473 119.755C127.76 120.312 129.173 120.523 130.572 120.359C135.049 119.856 138.262 115.816 137.759 111.338C137.625 110.166 137.24 109.041 136.637 108.039L136.641 108.011L136.339 107.557C135.845 106.865 135.253 106.251 134.581 105.74C134.438 105.646 134.288 105.552 134.173 105.462C132.93 104.569 124.131 101.137 117.062 101.927C109.746 102.744 98.604 111.434 96.4113 112.755C95.63 113.228 95.0872 114.01 94.9051 114.912C94.625 116.171 94.8593 117.481 95.5501 118.567Z" fill="#FDB201"/>
    <path fill-rule="evenodd" clip-rule="evenodd" d="M124.848 118.831C124.915 118.863 124.973 118.901 125.024 118.944C128.728 121.505 133.8 120.578 136.361 116.874C138.192 114.23 138.292 110.754 136.62 108.007L136.625 107.979C137.351 110.645 137.205 114.693 133.399 117.432C129.041 120.587 125.589 119.175 124.842 118.823" fill="#FDA200"/>
    <path fill-rule="evenodd" clip-rule="evenodd" d="M95.5505 118.567C98.889 123.589 104.668 125.826 111.096 125.108C115.404 124.636 119.375 122.544 122.207 119.261C119.79 120.827 114.273 124.032 106.502 122.704C99.8339 121.546 96.5277 118.725 94.8486 114.91C94.6174 116.177 94.8678 117.475 95.5586 118.561" fill="#FDA200"/>
    <path fill-rule="evenodd" clip-rule="evenodd" d="M121.054 102.127C121.054 102.127 119.004 99.1417 115.318 99.7963C111.578 100.435 110.377 104.514 110.377 104.514C110.377 104.514 115.816 100.56 121.054 102.127Z" fill="#FDA200"/>
    <path fill-rule="evenodd" clip-rule="evenodd" d="M121.053 102.127C121.053 102.127 117.03 101.213 110.373 104.486C113.137 101.593 117.869 99.9478 121.053 102.127Z" fill="#F78F0A"/>
    <path d="M100.501 117.769C100.098 117.829 99.7202 117.541 99.6677 117.14C99.6698 117.126 99.6709 117.119 99.6661 117.104C99.6227 116.689 99.917 116.313 100.339 116.263C100.754 116.22 101.131 116.514 101.18 116.937C101.232 117.338 100.952 117.717 100.544 117.769C100.53 117.766 100.523 117.765 100.508 117.77" fill="#F5DCA4"/>
    <path d="M132.337 107.838C131.935 107.891 131.556 107.61 131.505 107.202C131.507 107.188 131.508 107.181 131.503 107.166C131.482 106.748 131.809 106.39 132.226 106.376C132.608 106.356 132.938 106.629 133.01 106.998C133.069 107.4 132.782 107.778 132.381 107.831C132.367 107.829 132.352 107.833 132.345 107.832" fill="#F5DCA4"/>
    <path d="M134.214 113.657C133.796 113.678 133.439 113.351 133.424 112.934C133.405 112.552 133.67 112.221 134.046 112.15C134.46 112.107 134.837 112.401 134.886 112.823C134.939 113.225 134.659 113.604 134.25 113.655C134.236 113.653 134.229 113.652 134.214 113.657Z" fill="#F5DCA4"/>
    <path d="M130.87 116.691C130.458 116.764 130.064 116.488 129.992 116.077C129.92 115.665 130.195 115.271 130.607 115.198C130.637 115.189 130.673 115.187 130.702 115.185C131.118 115.134 131.493 115.435 131.537 115.85C131.595 116.26 131.309 116.63 130.906 116.69C130.892 116.688 130.877 116.692 130.87 116.691Z" fill="#F5DCA4"/>
    <path fill-rule="evenodd" clip-rule="evenodd" d="M110.979 111.614C111 112.033 111.35 112.358 111.768 112.337C112.187 112.316 112.513 111.966 112.491 111.547C112.497 111.512 112.487 111.482 112.477 111.452C112.419 111.042 112.05 110.742 111.636 110.786C111.221 110.829 110.92 111.205 110.97 111.62" fill="#F5DCA4"/>
    <path fill-rule="evenodd" clip-rule="evenodd" d="M108.817 118.389C108.861 118.804 109.236 119.105 109.651 119.061C110.06 119.003 110.354 118.633 110.317 118.22C110.274 117.805 109.898 117.504 109.484 117.548C109.074 117.606 108.774 117.975 108.81 118.388" fill="#F5DCA4"/>
    <path d="M114.446 119.556C114.043 119.616 113.665 119.329 113.613 118.927C113.615 118.913 113.61 118.898 113.611 118.891C113.568 118.476 113.862 118.1 114.285 118.051C114.699 118.007 115.076 118.301 115.125 118.724C115.185 119.127 114.897 119.504 114.496 119.557C114.482 119.555 114.467 119.56 114.46 119.558" fill="#F5DCA4"/>
    <path fill-rule="evenodd" clip-rule="evenodd" d="M119.606 114.594C118.678 114.351 117.805 113.937 117.017 113.386C115.393 112.27 114.423 109.888 116.275 108.457C117.28 107.696 118.546 107.606 119.758 107.442C121.124 107.259 122.503 107.136 123.878 107.033C124.844 106.982 125.891 106.972 126.744 107.562C127.622 108.126 128.111 109.132 128.009 110.168C127.819 111.905 126.259 113.253 124.814 114.039C123.222 114.902 121.345 115.099 119.606 114.594Z" fill="#070809"/>
    <path d="M119.138 111.324C117.98 111.453 116.972 110.94 116.888 110.19C116.803 109.44 117.695 108.712 118.832 108.58C119.974 108.456 120.997 108.964 121.081 109.721C121.164 110.478 120.295 111.195 119.138 111.324Z" fill="white"/>
    <path fill-rule="evenodd" clip-rule="evenodd" d="M103.602 91.002C103.602 91.002 99.9551 81.7684 91.904 81.091C86.4363 80.6407 82.2928 85.238 81.5531 90.0315C81.0079 93.7033 81.5807 97.4546 83.1902 100.793C95.917 92.1267 103.603 90.995 103.603 90.995" fill="#F78F0A"/>
    <path fill-rule="evenodd" clip-rule="evenodd" d="M105.345 97.288C104.487 90.3307 100.346 83.7394 94.2558 82.8711C88.1658 82.0028 82.8175 85.7846 82.2051 92.9515C81.6409 99.4819 84.5363 104.779 86.5915 106.62C84.7431 107.472 82.6535 107.708 80.321 107.756C84.4812 108.705 89.0825 108.929 93.2723 106.442C96.6415 104.451 100.861 102.977 104.547 102.595C105.029 102.533 105.39 102.138 105.415 101.656C105.496 100.202 105.471 98.7384 105.345 97.288Z" fill="#FDA200"/>
    <path fill-rule="evenodd" clip-rule="evenodd" d="M84.4923 100.05C85.2573 102.093 86.2885 104.033 87.5595 105.81C87.9506 106.336 88.6445 106.521 89.2413 106.27C89.3698 106.226 89.4725 106.163 89.6079 106.119C91.1553 105.457 92.7893 104.65 94.6577 103.808C97.3793 102.583 100.481 102.095 102.831 101.886L103.02 101.865C103.795 101.806 104.371 101.129 104.319 100.356C104.127 98.1724 103.693 94.9577 102.55 92.578C100.696 88.6503 96.3659 84.7198 90.6021 86.2341C84.8383 87.7484 82.6749 95.1838 84.4933 100.043" fill="white"/>
    <mask id="mask3_0_2260" style="mask-type:luminance" maskUnits="userSpaceOnUse" x="83" y="85" width="22" height="22">
        <path d="M84.4932 100.048C85.2583 102.091 86.2895 104.031 87.5605 105.808C87.9516 106.334 88.6454 106.519 89.2422 106.268C89.3707 106.224 89.4734 106.161 89.6089 106.117C91.1563 105.455 92.7903 104.648 94.6587 103.806C97.3803 102.581 100.482 102.093 102.832 101.884L103.021 101.863C103.796 101.804 104.372 101.127 104.32 100.354C104.128 98.1705 103.694 94.9557 102.551 92.576C100.697 88.6483 96.3668 84.7179 90.6031 86.2321C84.8393 87.7464 82.6759 95.1818 84.4943 100.041" fill="white"/>
    </mask>
    <g mask="url(#mask3_0_2260)">
        <path fill-rule="evenodd" clip-rule="evenodd" d="M92.7457 100.958C96.1775 106.488 100.834 105.332 102.15 104.734C104.225 103.803 109.179 100.861 105.01 92.4628C103.295 89.0147 98.4988 86.765 94.7092 88.7914C90.9185 90.8248 90.3562 96.5542 92.7457 100.958Z" fill="#111111" stroke="#474747" stroke-width="1.81664" stroke-miterlimit="10"/>
        <path d="M93.6989 95.9892C92.6469 95.9914 91.8024 94.881 91.8046 93.522C91.8058 92.1701 92.6422 91.0615 93.7012 91.0604C94.7532 91.0582 95.5966 92.1757 95.5954 93.5276C95.5942 94.8795 94.7648 95.9892 93.6989 95.9892Z" fill="white"/>
        <path d="M94.4427 99.4656C94.0636 99.7433 93.438 99.5323 93.0491 98.9929C92.6521 98.4595 92.6255 97.7972 93.0046 97.5195C93.3837 97.2418 94.0082 97.4598 94.3983 97.9921C94.7953 98.5256 94.8218 99.1878 94.4427 99.4656Z" fill="white"/>
    </g>
    <path fill-rule="evenodd" clip-rule="evenodd" d="M121.32 89.3992C121.32 89.3992 119.502 93.1107 119.143 89.6428C118.456 83.0193 123.708 77.1265 129.204 78.0891C135.705 79.214 136.958 86.0678 136.96 91.4337C131.495 91.2843 121.32 89.3992 121.32 89.3992Z" fill="#F78F0A"/>
    <path fill-rule="evenodd" clip-rule="evenodd" d="M119.373 93.7241C117.817 83.69 123.844 79.4478 127.673 79.5308C133.332 79.6673 136.611 84.9379 136.94 91.0124C137.276 97.1809 135.917 99.4036 135.917 99.4036C135.917 99.4036 136.891 99.8615 140.287 99.2696C138.154 100.622 135.311 102.029 131.207 100.859C128.383 100.101 125.441 99.883 122.528 100.213C121.95 100.346 121.357 100.061 121.089 99.5261C120.251 97.6798 119.673 95.7234 119.374 93.7171" fill="#FDA200"/>
    <path fill-rule="evenodd" clip-rule="evenodd" d="M119.961 93.8884C120.041 94.3442 120.14 94.7673 120.209 95.1571C120.254 95.2856 120.265 95.4447 120.308 95.5802C120.565 96.607 120.911 97.6049 121.35 98.5668C121.58 99.0673 122.109 99.3493 122.651 99.2683C124.575 98.943 127.563 98.6385 130.323 99.2005C130.767 99.2904 131.19 99.3772 131.577 99.4655C131.963 99.5608 132.332 99.625 132.694 99.695C133.255 99.8103 133.821 99.5257 134.06 98.9974C134.835 97.2212 135.379 94.7154 135.004 91.3523C134.337 85.383 130.515 81.9173 126.002 82.4226C121.481 82.9268 118.872 87.8254 119.96 93.8953" fill="white"/>
    <mask id="mask4_0_2260" style="mask-type:luminance" maskUnits="userSpaceOnUse" x="119" y="82" width="17" height="18">
        <path d="M119.962 93.8884C120.042 94.3442 120.141 94.7673 120.21 95.1571C120.254 95.2856 120.266 95.4447 120.309 95.5802C120.566 96.607 120.912 97.6049 121.351 98.5668C121.581 99.0673 122.11 99.3493 122.652 99.2683C124.576 98.943 127.564 98.6385 130.324 99.2005C130.768 99.2904 131.191 99.3772 131.578 99.4655C131.964 99.5608 132.333 99.625 132.695 99.695C133.256 99.8103 133.822 99.5257 134.061 98.9974C134.836 97.2212 135.38 94.7154 135.005 91.3523C134.338 85.383 130.516 81.9173 126.003 82.4226C121.482 82.9268 118.873 87.8254 119.961 93.8953" fill="white"/>
    </mask>
    <g mask="url(#mask4_0_2260)">
        <path fill-rule="evenodd" clip-rule="evenodd" d="M124.651 93.4035C125.472 99.8615 128.92 99.8642 130.848 100.026C132.74 100.189 136.939 99.7282 137.227 91.9747C137.397 87.3938 134.918 83.6201 129.712 84.2047C125.82 84.67 124.021 90.1156 124.651 93.4035Z" fill="#111111" stroke="#474747" stroke-width="1.81664" stroke-miterlimit="10"/>
        <path d="M127.564 90.9856C126.529 90.783 125.913 89.5361 126.168 88.2091C126.423 86.882 127.461 85.9476 128.496 86.1503C129.53 86.3529 130.146 87.5997 129.892 88.9268C129.637 90.2539 128.598 91.1882 127.564 90.9856Z" fill="white"/>
        <path d="M128.516 93.951C128.157 94.2389 127.589 94.1156 127.234 93.6816C126.879 93.2476 126.877 92.6606 127.236 92.3726C127.595 92.0847 128.163 92.2081 128.518 92.642C128.873 93.076 128.875 93.663 128.516 93.951Z" fill="white"/>
    </g>
    <path fill-rule="evenodd" clip-rule="evenodd" d="M91.0373 75.2556C88.7454 77.1268 85.8658 77.9844 83.9805 78.3802C83.4773 78.4886 82.9818 78.176 82.8724 77.6798C82.822 77.4503 82.8608 77.1987 82.9781 76.995C83.1147 76.7586 83.2449 76.471 83.4069 76.2099C84.3861 74.2219 85.224 72.1764 85.9346 70.0755C86.9789 67.0173 89.88 65.9269 91.8843 66.5224C92.3519 66.6446 92.7769 66.9034 93.109 67.2551C94.8638 69.0497 94.0062 72.845 91.0383 75.2486" fill="#F78F0A"/>
    <path fill-rule="evenodd" clip-rule="evenodd" d="M123.579 71.6145C126.23 72.9322 129.218 73.1358 131.154 73.1055C131.67 73.0993 132.079 72.6759 132.073 72.1598C132.072 71.9308 131.979 71.7018 131.819 71.534C131.635 71.334 131.445 71.0828 131.228 70.8634C129.835 69.1388 128.561 67.3326 127.408 65.4377C125.708 62.6858 122.639 62.2693 120.822 63.2909C120.393 63.5181 120.033 63.856 119.79 64.2763C118.473 66.4124 120.148 69.9261 123.579 71.6145Z" fill="#F78F0A"/>
    <path fill-rule="evenodd" clip-rule="evenodd" d="M86.5867 82.4466C84.1255 84.256 80.9489 84.7673 78.0455 83.8327C78.0455 83.8327 82.3777 87.0052 83.4519 85.5613C82.1313 86.3305 80.5331 86.4416 79.1207 85.8587C79.1207 85.8587 81.3464 87.5686 82.9746 86.5679C82.1357 87.2755 81.0019 87.5298 79.9371 87.2438C79.9371 87.2438 81.7368 88.423 82.4375 87.9159C82.4397 87.9019 83.3831 84.2916 86.5867 82.4466Z" fill="#F99108"/>
    <path fill-rule="evenodd" clip-rule="evenodd" d="M130.26 78.3921C133.055 79.6105 136.269 79.4125 138.891 77.857C138.891 77.857 135.918 81.1755 134.314 80.9065C135.698 81.2561 137.17 80.9466 138.298 80.0763C138.298 80.0763 136.823 82.6386 135.012 82.0373C135.012 82.0373 135.928 83.2446 137.81 81.6178C137.81 81.6178 136.194 83.8365 135.401 83.5066C135.401 83.5066 133.806 79.5189 130.258 78.3991" fill="#F99108"/>
</svg>
