<svg width="32" height="32" viewBox="0 0 32 32" fill="none" xmlns="http://www.w3.org/2000/svg">
    <path d="M11.6587 3.78387C11.6587 1.69411 13.3528 0 15.4426 0C17.5325 0 19.2267 1.69411 19.2267 3.78387V8.13837C19.2267 8.50972 19.2009 8.87999 19.1435 9.25017C19.1225 9.38536 19.1016 9.52032 19.0886 9.65518C19.0473 10.0814 19.0977 10.6382 19.3874 11.0121L18.6955 11.6795C22.165 13.452 24.5423 17.0766 24.5423 21.26C24.5423 22.3934 24.3678 23.4857 24.0443 24.5114L22.8978 31.9979H13.5758V31.9947C7.81893 31.8707 3.2002 28.1167 3.2002 21.26C3.2002 17.2294 5.13019 13.9846 8.05 12.155L8.04277 12.1492C8.24167 12.011 8.47622 11.8704 8.72772 11.7196L8.72955 11.7185C9.55765 11.2221 10.5696 10.6154 11.1037 9.62319C11.5667 8.76303 11.6565 7.36692 11.6565 6.71969L11.6587 6.72068V3.78387Z" fill="url(#paint0_linear_265_28)"/>
    <path d="M11.6587 3.78387C11.6587 1.69411 13.3528 0 15.4426 0C17.5325 0 19.2267 1.69411 19.2267 3.78387V8.13837C19.2267 8.50972 19.2009 8.87999 19.1435 9.25017C19.1225 9.38536 19.1016 9.52032 19.0886 9.65518C19.0473 10.0814 19.0977 10.6382 19.3874 11.0121L18.6955 11.6795C22.165 13.452 24.5423 17.0766 24.5423 21.26C24.5423 22.3934 24.3678 23.4857 24.0443 24.5114L22.8978 31.9979H13.5758V31.9947C7.81893 31.8707 3.2002 28.1167 3.2002 21.26C3.2002 17.2294 5.13019 13.9846 8.05 12.155L8.04277 12.1492C8.24167 12.011 8.47622 11.8704 8.72772 11.7196L8.72955 11.7185C9.55765 11.2221 10.5696 10.6154 11.1037 9.62319C11.5667 8.76303 11.6565 7.36692 11.6565 6.71969L11.6587 6.72068V3.78387Z" fill="url(#paint1_radial_265_28)"/>
    <path d="M11.6587 3.78387C11.6587 1.69411 13.3528 0 15.4426 0C17.5325 0 19.2267 1.69411 19.2267 3.78387V8.13837C19.2267 8.50972 19.2009 8.87999 19.1435 9.25017C19.1225 9.38536 19.1016 9.52032 19.0886 9.65518C19.0473 10.0814 19.0977 10.6382 19.3874 11.0121L18.6955 11.6795C22.165 13.452 24.5423 17.0766 24.5423 21.26C24.5423 22.3934 24.3678 23.4857 24.0443 24.5114L22.8978 31.9979H13.5758V31.9947C7.81893 31.8707 3.2002 28.1167 3.2002 21.26C3.2002 17.2294 5.13019 13.9846 8.05 12.155L8.04277 12.1492C8.24167 12.011 8.47622 11.8704 8.72772 11.7196L8.72955 11.7185C9.55765 11.2221 10.5696 10.6154 11.1037 9.62319C11.5667 8.76303 11.6565 7.36692 11.6565 6.71969L11.6587 6.72068V3.78387Z" fill="url(#paint2_radial_265_28)"/>
    <path d="M11.6587 3.78387C11.6587 1.69411 13.3528 0 15.4426 0C17.5325 0 19.2267 1.69411 19.2267 3.78387V8.13837C19.2267 8.50972 19.2009 8.87999 19.1435 9.25017C19.1225 9.38536 19.1016 9.52032 19.0886 9.65518C19.0473 10.0814 19.0977 10.6382 19.3874 11.0121L18.6955 11.6795C22.165 13.452 24.5423 17.0766 24.5423 21.26C24.5423 22.3934 24.3678 23.4857 24.0443 24.5114L22.8978 31.9979H13.5758V31.9947C7.81893 31.8707 3.2002 28.1167 3.2002 21.26C3.2002 17.2294 5.13019 13.9846 8.05 12.155L8.04277 12.1492C8.24167 12.011 8.47622 11.8704 8.72772 11.7196L8.72955 11.7185C9.55765 11.2221 10.5696 10.6154 11.1037 9.62319C11.5667 8.76303 11.6565 7.36692 11.6565 6.71969L11.6587 6.72068V3.78387Z" fill="url(#paint3_radial_265_28)"/>
    <path d="M11.6587 3.78387C11.6587 1.69411 13.3528 0 15.4426 0C17.5325 0 19.2267 1.69411 19.2267 3.78387V8.13837C19.2267 8.50972 19.2009 8.87999 19.1435 9.25017C19.1225 9.38536 19.1016 9.52032 19.0886 9.65518C19.0473 10.0814 19.0977 10.6382 19.3874 11.0121L18.6955 11.6795C22.165 13.452 24.5423 17.0766 24.5423 21.26C24.5423 22.3934 24.3678 23.4857 24.0443 24.5114L22.8978 31.9979H13.5758V31.9947C7.81893 31.8707 3.2002 28.1167 3.2002 21.26C3.2002 17.2294 5.13019 13.9846 8.05 12.155L8.04277 12.1492C8.24167 12.011 8.47622 11.8704 8.72772 11.7196L8.72955 11.7185C9.55765 11.2221 10.5696 10.6154 11.1037 9.62319C11.5667 8.76303 11.6565 7.36692 11.6565 6.71969L11.6587 6.72068V3.78387Z" fill="url(#paint4_linear_265_28)"/>
    <path d="M24.7882 14.7725C24.7882 13.151 23.4736 11.8364 21.852 11.8364H18.5997C16.9781 11.8364 15.6634 13.151 15.6634 14.7725C15.6634 15.6768 16.0723 16.4856 16.7151 17.0242C16.0044 17.562 15.5449 18.4156 15.5449 19.3743C15.5449 20.2719 15.9478 21.0774 16.5825 21.6178C15.9478 22.1564 15.5449 22.9599 15.5449 23.8575V24.0024C15.5449 24.8069 15.8685 25.5358 16.3925 26.0661C15.8692 26.584 15.5449 27.3027 15.5449 28.0972C15.5449 29.6752 16.8241 30.9545 18.4021 30.9545H21.6281C23.2062 30.9545 24.4854 29.6752 24.4854 28.0972C24.4854 27.575 24.3452 27.0854 24.1005 26.6641C25.1016 26.1964 25.7955 25.1804 25.7955 24.0024V23.8575C25.7955 22.949 25.3827 22.1369 24.7347 21.5983C25.3563 21.058 25.7493 20.2611 25.7493 19.3743C25.7493 18.1981 25.0577 17.1799 24.0589 16.7093C24.513 16.1924 24.7882 15.5146 24.7882 14.7725Z" fill="url(#paint5_linear_265_28)"/>
    <path d="M27.4102 13.5442V13.5442C27.4102 11.6949 25.911 10.1957 24.0617 10.1957H20.3528C18.5034 10.1957 17.0043 11.6949 17.0043 13.5442V13.5442C17.0043 15.3935 18.5034 16.8926 20.3528 16.8926H24.0617C25.911 16.8926 27.4102 15.3935 27.4102 13.5442Z" fill="url(#paint6_linear_265_28)"/>
    <path d="M27.4102 13.5442V13.5442C27.4102 11.6949 25.911 10.1957 24.0617 10.1957H20.3528C18.5034 10.1957 17.0043 11.6949 17.0043 13.5442V13.5442C17.0043 15.3935 18.5034 16.8926 20.3528 16.8926H24.0617C25.911 16.8926 27.4102 15.3935 27.4102 13.5442Z" fill="url(#paint7_radial_265_28)"/>
    <path d="M23.806 32C25.6056 32 27.0645 30.5412 27.0645 28.7417C27.0645 26.9421 25.6056 25.4833 23.806 25.4833H20.1271C18.3276 25.4833 16.8687 26.9421 16.8687 28.7417C16.8687 30.5412 18.3276 32 20.1271 32H23.806Z" fill="url(#paint8_linear_265_28)"/>
    <path d="M23.806 32C25.6056 32 27.0645 30.5412 27.0645 28.7417C27.0645 26.9421 25.6056 25.4833 23.806 25.4833H20.1271C18.3276 25.4833 16.8687 26.9421 16.8687 28.7417C16.8687 30.5412 18.3276 32 20.1271 32H23.806Z" fill="url(#paint9_radial_265_28)"/>
    <path d="M23.806 32C25.6056 32 27.0645 30.5412 27.0645 28.7417C27.0645 26.9421 25.6056 25.4833 23.806 25.4833H20.1271C18.3276 25.4833 16.8687 26.9421 16.8687 28.7417C16.8687 30.5412 18.3276 32 20.1271 32H23.806Z" fill="url(#paint10_radial_265_28)"/>
    <path d="M23.807 31.9986C25.6066 31.9986 27.0654 30.5398 27.0654 28.7403C27.0654 26.9407 25.6066 25.4819 23.807 25.4819H20.1281C18.3285 25.4819 16.8697 26.9407 16.8697 28.7403C16.8697 30.5398 18.3285 31.9986 20.1281 31.9986H23.807Z" fill="url(#paint11_linear_265_28)"/>
    <path d="M23.807 31.9986C25.6066 31.9986 27.0654 30.5398 27.0654 28.7403C27.0654 26.9407 25.6066 25.4819 23.807 25.4819H20.1281C18.3285 25.4819 16.8697 26.9407 16.8697 28.7403C16.8697 30.5398 18.3285 31.9986 20.1281 31.9986H23.807Z" fill="url(#paint12_radial_265_28)"/>
    <path d="M25.4501 27.4166H20.9694C20.5004 27.4166 20.1201 27.7968 20.1201 28.2658C20.1201 28.7349 20.5004 29.1151 20.9694 29.1151H25.4501C25.9192 29.1151 26.2994 28.7349 26.2994 28.2658C26.2994 27.7968 25.9192 27.4166 25.4501 27.4166Z" fill="url(#paint13_linear_265_28)"/>
    <path d="M28.5586 23.9875V23.9875C28.5586 22.0926 27.0224 20.5565 25.1275 20.5565H20.2999C18.405 20.5565 16.8688 22.0926 16.8688 23.9875V23.9875C16.8688 25.8824 18.405 27.4185 20.2999 27.4185H25.1275C27.0224 27.4185 28.5586 25.8824 28.5586 23.9875Z" fill="#C4C4C4" fill-opacity="0.66"/>
    <path d="M28.5586 24.069V23.9039C28.5586 22.0546 27.0594 20.5554 25.2101 20.5554H20.2173C18.368 20.5554 16.8688 22.0546 16.8688 23.9039V24.069C16.8688 25.9183 18.368 27.4175 20.2173 27.4175H25.2101C27.0594 27.4175 28.5586 25.9183 28.5586 24.069Z" fill="url(#paint14_linear_265_28)"/>
    <path d="M28.5586 24.069V23.9039C28.5586 22.0546 27.0594 20.5554 25.2101 20.5554H20.2173C18.368 20.5554 16.8688 22.0546 16.8688 23.9039V24.069C16.8688 25.9183 18.368 27.4175 20.2173 27.4175H25.2101C27.0594 27.4175 28.5586 25.9183 28.5586 24.069Z" fill="url(#paint15_radial_265_28)"/>
    <path d="M28.5586 24.069V23.9039C28.5586 22.0546 27.0594 20.5554 25.2101 20.5554H20.2173C18.368 20.5554 16.8688 22.0546 16.8688 23.9039V24.069C16.8688 25.9183 18.368 27.4175 20.2173 27.4175H25.2101C27.0594 27.4175 28.5586 25.9183 28.5586 24.069Z" fill="url(#paint16_radial_265_28)"/>
    <path d="M26.5605 22.9656H20.5212C20.0521 22.9656 19.6719 23.3458 19.6719 23.8149C19.6719 24.2839 20.0521 24.6641 20.5212 24.6641H26.5605C27.0296 24.6641 27.4098 24.2839 27.4098 23.8149C27.4098 23.3458 27.0296 22.9656 26.5605 22.9656Z" fill="url(#paint17_linear_265_28)"/>
    <path d="M28.5068 18.8003V18.7853C28.5068 16.936 27.0077 15.4368 25.1583 15.4368H20.2181C18.3688 15.4368 16.8696 16.936 16.8696 18.7853V18.8003C16.8696 20.6496 18.3688 22.1487 20.2181 22.1487H25.1583C27.0077 22.1487 28.5068 20.6496 28.5068 18.8003Z" fill="url(#paint18_linear_265_28)"/>
    <path d="M28.5068 18.8003V18.7853C28.5068 16.936 27.0077 15.4368 25.1583 15.4368H20.2181C18.3688 15.4368 16.8696 16.936 16.8696 18.7853V18.8003C16.8696 20.6496 18.3688 22.1487 20.2181 22.1487H25.1583C27.0077 22.1487 28.5068 20.6496 28.5068 18.8003Z" fill="url(#paint19_radial_265_28)"/>
    <path d="M15.4428 0C13.353 0 11.6589 1.69411 11.6589 3.78387V6.72068L11.6567 6.71969C11.6567 7.36692 11.5669 8.76303 11.1039 9.62319C10.5698 10.6155 9.55784 11.2221 8.72975 11.7185C8.47756 11.8697 8.24235 12.0107 8.04297 12.1492C9.18768 13.0661 11.5318 14.8981 11.5893 14.855C11.6468 14.8118 14.2861 13.4107 15.5986 12.7155L15.5427 11.921C17.5864 11.8679 19.2269 10.1947 19.2269 8.13837V3.78387C19.2269 1.69411 17.5326 0 15.4428 0Z" fill="url(#paint20_radial_265_28)"/>
    <path d="M15.4428 0C13.353 0 11.6589 1.69411 11.6589 3.78387V6.72068L11.6567 6.71969C11.6567 7.36692 11.5669 8.76303 11.1039 9.62319C10.5698 10.6155 9.55784 11.2221 8.72975 11.7185C8.47756 11.8697 8.24235 12.0107 8.04297 12.1492C9.18768 13.0661 11.5318 14.8981 11.5893 14.855C11.6468 14.8118 14.2861 13.4107 15.5986 12.7155L15.5427 11.921C17.5864 11.8679 19.2269 10.1947 19.2269 8.13837V3.78387C19.2269 1.69411 17.5326 0 15.4428 0Z" fill="url(#paint21_radial_265_28)"/>
    <path d="M13.0482 0.853699C12.1997 1.54759 11.6582 2.60267 11.6582 3.78421V4.00527H13.3685C13.3745 3.77754 13.3631 3.19445 13.2696 2.68385L13.2502 2.5787C13.1555 2.06433 13.0469 1.47459 13.0482 0.853699Z" fill="#FFBF71"/>
    <path d="M13.0482 0.853699C12.1997 1.54759 11.6582 2.60267 11.6582 3.78421V4.00527H13.3685C13.3745 3.77754 13.3631 3.19445 13.2696 2.68385L13.2502 2.5787C13.1555 2.06433 13.0469 1.47459 13.0482 0.853699Z" fill="url(#paint22_radial_265_28)"/>
    <path d="M24.853 11.1084H20.6875C19.8882 11.1084 19.2402 11.7563 19.2402 12.5556V12.5556C19.2402 13.3549 19.8882 14.0029 20.6875 14.0029H24.853C25.6523 14.0029 26.3003 13.3549 26.3003 12.5556V12.5556C26.3003 11.7563 25.6523 11.1084 24.853 11.1084Z" fill="url(#paint23_linear_265_28)"/>
    <path d="M25.9635 16.2592H20.6055C19.8062 16.2592 19.1582 16.9072 19.1582 17.7064V17.7064C19.1582 18.5057 19.8062 19.1537 20.6055 19.1537H25.9635C26.7628 19.1537 27.4107 18.5057 27.4107 17.7064V17.7064C27.4107 16.9072 26.7628 16.2592 25.9635 16.2592Z" fill="url(#paint24_linear_265_28)"/>
    <path d="M18.2725 3.07785C18.2725 2.16746 17.5344 1.42944 16.624 1.42944C15.7136 1.42944 14.9756 2.16746 14.9756 3.07785V8.98304C14.9756 9.89343 15.7136 10.6314 16.624 10.6314C17.5344 10.6314 18.2725 9.89343 18.2725 8.98304V3.07785Z" fill="url(#paint25_linear_265_28)"/>
    <defs>
        <linearGradient id="paint0_linear_265_28" x1="19.6976" y1="5.48817" x2="8.11959" y2="29.8672" gradientUnits="userSpaceOnUse">
            <stop stop-color="#FFCA44"/>
            <stop offset="1" stop-color="#F8A528"/>
        </linearGradient>
        <radialGradient id="paint1_radial_265_28" cx="0" cy="0" r="1" gradientUnits="userSpaceOnUse" gradientTransform="translate(21.0622 3.42248) rotate(141.117) scale(5.77119 17.0333)">
            <stop stop-color="#FFE34C"/>
            <stop offset="1" stop-color="#FFE34C" stop-opacity="0"/>
        </radialGradient>
        <radialGradient id="paint2_radial_265_28" cx="0" cy="0" r="1" gradientUnits="userSpaceOnUse" gradientTransform="translate(10.5557 15.9989) rotate(125.192) scale(8.54944 6.19339)">
            <stop stop-color="#FFCA2E"/>
            <stop offset="1" stop-color="#FFCA2E" stop-opacity="0"/>
        </radialGradient>
        <radialGradient id="paint3_radial_265_28" cx="0" cy="0" r="1" gradientUnits="userSpaceOnUse" gradientTransform="translate(19.8304 18.7108) rotate(146.744) scale(18.6297 32.6024)">
            <stop offset="0.681103" stop-color="#E18E3F" stop-opacity="0"/>
            <stop offset="1" stop-color="#E18E3F"/>
        </radialGradient>
        <linearGradient id="paint4_linear_265_28" x1="13.8712" y1="27.2608" x2="13.8712" y2="33.1298" gradientUnits="userSpaceOnUse">
            <stop stop-color="#D8796F" stop-opacity="0"/>
            <stop offset="1" stop-color="#D8796F"/>
        </linearGradient>
        <linearGradient id="paint5_linear_265_28" x1="20.6701" y1="11.8364" x2="20.6701" y2="27.1259" gradientUnits="userSpaceOnUse">
            <stop stop-color="#D1730B"/>
            <stop offset="1" stop-color="#E27D47"/>
        </linearGradient>
        <linearGradient id="paint6_linear_265_28" x1="27.4102" y1="13.5442" x2="17.0043" y2="13.5442" gradientUnits="userSpaceOnUse">
            <stop stop-color="#FFDB44"/>
            <stop offset="1" stop-color="#F9A928"/>
        </linearGradient>
        <radialGradient id="paint7_radial_265_28" cx="0" cy="0" r="1" gradientUnits="userSpaceOnUse" gradientTransform="translate(18.6969 16.5123) rotate(-142.634) scale(2.67075 1.78772)">
            <stop stop-color="#D98320"/>
            <stop offset="1" stop-color="#D98320" stop-opacity="0"/>
        </radialGradient>
        <linearGradient id="paint8_linear_265_28" x1="26.1713" y1="28.7417" x2="16.8688" y2="28.7417" gradientUnits="userSpaceOnUse">
            <stop stop-color="#FFDB44"/>
            <stop offset="1" stop-color="#F9A928"/>
        </linearGradient>
        <radialGradient id="paint9_radial_265_28" cx="0" cy="0" r="1" gradientUnits="userSpaceOnUse" gradientTransform="translate(18.9342 32) scale(8.41524 3.20129)">
            <stop stop-color="#F29545"/>
            <stop offset="1" stop-color="#F29545" stop-opacity="0"/>
        </radialGradient>
        <radialGradient id="paint10_radial_265_28" cx="0" cy="0" r="1" gradientUnits="userSpaceOnUse" gradientTransform="translate(18.5303 26.6274) scale(8.53425 2.29085)">
            <stop stop-color="#DA810B"/>
            <stop offset="1" stop-color="#FFB610" stop-opacity="0"/>
        </radialGradient>
        <linearGradient id="paint11_linear_265_28" x1="21.9676" y1="32.6703" x2="21.9676" y2="30.5623" gradientUnits="userSpaceOnUse">
            <stop stop-color="#DC7C6A"/>
            <stop offset="1" stop-color="#DC7C6A" stop-opacity="0"/>
        </linearGradient>
        <radialGradient id="paint12_radial_265_28" cx="0" cy="0" r="1" gradientUnits="userSpaceOnUse" gradientTransform="translate(15.5203 28.7403) scale(6.44736 9.69136)">
            <stop stop-color="#E38811"/>
            <stop offset="1" stop-color="#E38811" stop-opacity="0"/>
        </radialGradient>
        <linearGradient id="paint13_linear_265_28" x1="25.9784" y1="27.8823" x2="19.3177" y2="27.8823" gradientUnits="userSpaceOnUse">
            <stop stop-color="#FFF166"/>
            <stop offset="1" stop-color="#FFF166" stop-opacity="0"/>
        </linearGradient>
        <linearGradient id="paint14_linear_265_28" x1="27.5345" y1="23.9865" x2="16.8688" y2="23.9865" gradientUnits="userSpaceOnUse">
            <stop stop-color="#FFDB44"/>
            <stop offset="1" stop-color="#F9A928"/>
        </linearGradient>
        <radialGradient id="paint15_radial_265_28" cx="0" cy="0" r="1" gradientUnits="userSpaceOnUse" gradientTransform="translate(19.237 27.4174) scale(9.64839 3.37095)">
            <stop stop-color="#F29545"/>
            <stop offset="1" stop-color="#F29545" stop-opacity="0"/>
        </radialGradient>
        <radialGradient id="paint16_radial_265_28" cx="0" cy="0" r="1" gradientUnits="userSpaceOnUse" gradientTransform="translate(18.7738 21.76) scale(9.78484 2.41226)">
            <stop stop-color="#DA810B"/>
            <stop offset="1" stop-color="#FFB610" stop-opacity="0"/>
        </radialGradient>
        <linearGradient id="paint17_linear_265_28" x1="27.0078" y1="23.4313" x2="18.667" y2="23.4313" gradientUnits="userSpaceOnUse">
            <stop stop-color="#FFF166"/>
            <stop offset="1" stop-color="#FFF166" stop-opacity="0"/>
        </linearGradient>
        <linearGradient id="paint18_linear_265_28" x1="28.5068" y1="18.7929" x2="16.8696" y2="18.7929" gradientUnits="userSpaceOnUse">
            <stop stop-color="#FFDB44"/>
            <stop offset="1" stop-color="#F9A928"/>
        </linearGradient>
        <radialGradient id="paint19_radial_265_28" cx="0" cy="0" r="1" gradientUnits="userSpaceOnUse" gradientTransform="translate(19.2762 21.3372) scale(6.32934 2.81727)">
            <stop stop-color="#F29545"/>
            <stop offset="1" stop-color="#F29545" stop-opacity="0"/>
        </radialGradient>
        <radialGradient id="paint20_radial_265_28" cx="0" cy="0" r="1" gradientUnits="userSpaceOnUse" gradientTransform="translate(11.9689 3.42248) rotate(90) scale(7.31812 2.71718)">
            <stop stop-color="#F3A52A"/>
            <stop offset="1" stop-color="#F3A52A" stop-opacity="0"/>
        </radialGradient>
        <radialGradient id="paint21_radial_265_28" cx="0" cy="0" r="1" gradientUnits="userSpaceOnUse" gradientTransform="translate(9.83135 8.24084) rotate(42.9969) scale(3.66555 5.54658)">
            <stop stop-color="#CDA25E"/>
            <stop offset="1" stop-color="#CDA25E" stop-opacity="0"/>
        </radialGradient>
        <radialGradient id="paint22_radial_265_28" cx="0" cy="0" r="1" gradientUnits="userSpaceOnUse" gradientTransform="translate(13.6347 2.96995) rotate(-168.366) scale(1.88644 4.1175)">
            <stop offset="0.549892" stop-color="#CCB28B" stop-opacity="0"/>
            <stop offset="1" stop-color="#CCB28B"/>
        </radialGradient>
        <linearGradient id="paint23_linear_265_28" x1="25.9334" y1="11.9021" x2="18.3233" y2="11.9021" gradientUnits="userSpaceOnUse">
            <stop stop-color="#FFF166"/>
            <stop offset="1" stop-color="#FFF166" stop-opacity="0"/>
        </linearGradient>
        <linearGradient id="paint24_linear_265_28" x1="26.982" y1="17.0528" x2="18.0865" y2="17.0528" gradientUnits="userSpaceOnUse">
            <stop stop-color="#FFF166"/>
            <stop offset="1" stop-color="#FFF166" stop-opacity="0"/>
        </linearGradient>
        <linearGradient id="paint25_linear_265_28" x1="18.1012" y1="3.95254" x2="14.5474" y2="3.95254" gradientUnits="userSpaceOnUse">
            <stop stop-color="#FFF166"/>
            <stop offset="1" stop-color="#FFF166" stop-opacity="0"/>
        </linearGradient>
    </defs>
</svg>
