<svg width="32" height="32" viewBox="0 0 32 32" fill="none" xmlns="http://www.w3.org/2000/svg">
    <mask id="mask0_265_339" style="mask-type:luminance" maskUnits="userSpaceOnUse" x="0" y="0" width="32" height="32">
        <path d="M0 0H32V32H0V0Z" fill="white"/>
    </mask>
    <g mask="url(#mask0_265_339)">
        <path d="M10.5818 13.7157C11.7823 13.2738 12.9495 14.441 12.5076 15.6415L9.8888 22.7559C9.63666 23.4409 8.75938 23.6337 8.24325 23.1175L3.10576 17.98C2.58963 17.4639 2.78244 16.5866 3.46742 16.3345L10.5818 13.7157Z" fill="url(#paint0_linear_265_339)"/>
        <path d="M10.5818 13.7157C11.7823 13.2738 12.9495 14.441 12.5076 15.6415L9.8888 22.7559C9.63666 23.4409 8.75938 23.6337 8.24325 23.1175L3.10576 17.98C2.58963 17.4639 2.78244 16.5866 3.46742 16.3345L10.5818 13.7157Z" fill="url(#paint1_radial_265_339)"/>
        <path d="M10.5818 13.7157C11.7823 13.2738 12.9495 14.441 12.5076 15.6415L9.8888 22.7559C9.63666 23.4409 8.75938 23.6337 8.24325 23.1175L3.10576 17.98C2.58963 17.4639 2.78244 16.5866 3.46742 16.3345L10.5818 13.7157Z" fill="url(#paint2_linear_265_339)"/>
        <path d="M16.5818 19.7159C17.7823 19.274 18.9495 20.4412 18.5076 21.6417L15.8888 28.7561C15.6367 29.4411 14.7594 29.6339 14.2433 29.1177L9.10576 23.9802C8.58963 23.4641 8.78244 22.5868 9.46742 22.3347L16.5818 19.7159Z" fill="url(#paint3_linear_265_339)"/>
        <path d="M16.5818 19.7159C17.7823 19.274 18.9495 20.4412 18.5076 21.6417L15.8888 28.7561C15.6367 29.4411 14.7594 29.6339 14.2433 29.1177L9.10576 23.9802C8.58963 23.4641 8.78244 22.5868 9.46742 22.3347L16.5818 19.7159Z" fill="url(#paint4_radial_265_339)"/>
        <path d="M16.5818 19.7159C17.7823 19.274 18.9495 20.4412 18.5076 21.6417L15.8888 28.7561C15.6367 29.4411 14.7594 29.6339 14.2433 29.1177L9.10576 23.9802C8.58963 23.4641 8.78244 22.5868 9.46742 22.3347L16.5818 19.7159Z" fill="url(#paint5_radial_265_339)"/>
        <path d="M22.3992 3.54951C22.4551 3.52675 22.519 3.54003 22.5616 3.58291L28.4475 9.51319C28.4898 9.5558 28.5027 9.61932 28.4801 9.67492C27.0707 13.1344 25.1275 16.8144 22.5256 19.4164C19.9918 21.9501 15.7061 24.1097 11.8364 25.6977L6.34473 20.2061C7.93275 16.3364 10.0923 12.0507 12.6261 9.51684C15.236 6.90696 18.9305 4.95992 22.3992 3.54951Z" fill="url(#paint6_linear_265_339)"/>
        <path d="M22.3992 3.54951C22.4551 3.52675 22.519 3.54003 22.5616 3.58291L28.4475 9.51319C28.4898 9.5558 28.5027 9.61932 28.4801 9.67492C27.0707 13.1344 25.1275 16.8144 22.5256 19.4164C19.9918 21.9501 15.7061 24.1097 11.8364 25.6977L6.34473 20.2061C7.93275 16.3364 10.0923 12.0507 12.6261 9.51684C15.236 6.90696 18.9305 4.95992 22.3992 3.54951Z" fill="url(#paint7_radial_265_339)"/>
        <path d="M22.3992 3.54951C22.4551 3.52675 22.519 3.54003 22.5616 3.58291L28.4475 9.51319C28.4898 9.5558 28.5027 9.61932 28.4801 9.67492C27.0707 13.1344 25.1275 16.8144 22.5256 19.4164C19.9918 21.9501 15.7061 24.1097 11.8364 25.6977L6.34473 20.2061C7.93275 16.3364 10.0923 12.0507 12.6261 9.51684C15.236 6.90696 18.9305 4.95992 22.3992 3.54951Z" fill="url(#paint8_radial_265_339)"/>
        <path d="M22.3992 3.54951C22.4551 3.52675 22.519 3.54003 22.5616 3.58291L28.4475 9.51319C28.4898 9.5558 28.5027 9.61932 28.4801 9.67492C27.0707 13.1344 25.1275 16.8144 22.5256 19.4164C19.9918 21.9501 15.7061 24.1097 11.8364 25.6977L6.34473 20.2061C7.93275 16.3364 10.0923 12.0507 12.6261 9.51684C15.236 6.90696 18.9305 4.95992 22.3992 3.54951Z" fill="url(#paint9_radial_265_339)"/>
        <path d="M22.3992 3.54951C22.4551 3.52675 22.519 3.54003 22.5616 3.58291L28.4475 9.51319C28.4898 9.5558 28.5027 9.61932 28.4801 9.67492C27.0707 13.1344 25.1275 16.8144 22.5256 19.4164C19.9918 21.9501 15.7061 24.1097 11.8364 25.6977L6.34473 20.2061C7.93275 16.3364 10.0923 12.0507 12.6261 9.51684C15.236 6.90696 18.9305 4.95992 22.3992 3.54951Z" fill="url(#paint10_radial_265_339)"/>
        <path d="M24.5009 11.0617C24.5009 12.917 22.9969 14.4211 21.1415 14.4211C19.2862 14.4211 17.7822 12.917 17.7822 11.0617C17.7822 9.20638 19.2862 7.70233 21.1415 7.70233C22.9969 7.70233 24.5009 9.20638 24.5009 11.0617Z" fill="url(#paint11_linear_265_339)"/>
        <path d="M24.5009 11.0617C24.5009 12.917 22.9969 14.4211 21.1415 14.4211C19.2862 14.4211 17.7822 12.917 17.7822 11.0617C17.7822 9.20638 19.2862 7.70233 21.1415 7.70233C22.9969 7.70233 24.5009 9.20638 24.5009 11.0617Z" fill="url(#paint12_radial_265_339)"/>
        <path d="M23.4669 11.0611C23.4669 12.3456 22.4256 13.3868 21.1411 13.3868C19.8567 13.3868 18.8154 12.3456 18.8154 11.0611C18.8154 9.77668 19.8567 8.73541 21.1411 8.73541C22.4256 8.73541 23.4669 9.77668 23.4669 11.0611Z" fill="url(#paint13_radial_265_339)"/>
        <path d="M2.42369 29.5325C1.71658 28.8254 2.00026 23.9216 4.50024 22.9216C4.50024 22.9216 7.00024 21.9216 8.61125 23.5222C10.2222 25.1228 9.50024 26.9216 9.50024 26.9216C8.79315 29.0429 5.7828 29.8861 5.42926 29.5326C5.234 29.3373 5.58562 28.9818 5.42927 28.8255C5.27292 28.6691 5.03151 28.8476 4.36861 29.179C3.89721 29.4147 2.70653 29.8154 2.42369 29.5325Z" fill="url(#paint14_radial_265_339)"/>
        <path d="M2.42369 29.5325C1.71658 28.8254 2.00026 23.9216 4.50024 22.9216C4.50024 22.9216 7.00024 21.9216 8.61125 23.5222C10.2222 25.1228 9.50024 26.9216 9.50024 26.9216C8.79315 29.0429 5.7828 29.8861 5.42926 29.5326C5.234 29.3373 5.58562 28.9818 5.42927 28.8255C5.27292 28.6691 5.03151 28.8476 4.36861 29.179C3.89721 29.4147 2.70653 29.8154 2.42369 29.5325Z" fill="url(#paint15_radial_265_339)"/>
        <path d="M6.06141 20.9814C6.6472 20.3956 7.59695 20.3956 8.18274 20.9814L11.7183 24.5169C12.3041 25.1027 12.3041 26.0525 11.7183 26.6383C11.1325 27.2241 10.1828 27.2241 9.59695 26.6383L6.06141 23.1027C5.47563 22.5169 5.47563 21.5672 6.06141 20.9814Z" fill="url(#paint16_linear_265_339)"/>
        <path d="M6.06141 20.9814C6.6472 20.3956 7.59695 20.3956 8.18274 20.9814L11.7183 24.5169C12.3041 25.1027 12.3041 26.0525 11.7183 26.6383C11.1325 27.2241 10.1828 27.2241 9.59695 26.6383L6.06141 23.1027C5.47563 22.5169 5.47563 21.5672 6.06141 20.9814Z" fill="url(#paint17_radial_265_339)"/>
        <path d="M6.06141 20.9814C6.6472 20.3956 7.59695 20.3956 8.18274 20.9814L11.7183 24.5169C12.3041 25.1027 12.3041 26.0525 11.7183 26.6383C11.1325 27.2241 10.1828 27.2241 9.59695 26.6383L6.06141 23.1027C5.47563 22.5169 5.47563 21.5672 6.06141 20.9814Z" fill="url(#paint18_radial_265_339)"/>
        <path d="M29.1724 2.87011C28.2253 1.92302 26.5644 2.03023 25.354 2.44586C24.485 2.74427 23.5717 3.07898 22.6398 3.45247C22.5734 3.47906 22.5558 3.56473 22.6062 3.61546L28.4152 9.46433C28.4657 9.51524 28.5519 9.49787 28.5786 9.43128C28.9567 8.48947 29.2952 7.56639 29.5967 6.6885C30.0067 5.49431 30.3365 4.03423 29.1724 2.87011Z" fill="url(#paint19_linear_265_339)"/>
        <path d="M29.1724 2.87011C28.2253 1.92302 26.5644 2.03023 25.354 2.44586C24.485 2.74427 23.5717 3.07898 22.6398 3.45247C22.5734 3.47906 22.5558 3.56473 22.6062 3.61546L28.4152 9.46433C28.4657 9.51524 28.5519 9.49787 28.5786 9.43128C28.9567 8.48947 29.2952 7.56639 29.5967 6.6885C30.0067 5.49431 30.3365 4.03423 29.1724 2.87011Z" fill="url(#paint20_radial_265_339)"/>
        <path d="M29.1724 2.87011C28.2253 1.92302 26.5644 2.03023 25.354 2.44586C24.485 2.74427 23.5717 3.07898 22.6398 3.45247C22.5734 3.47906 22.5558 3.56473 22.6062 3.61546L28.4152 9.46433C28.4657 9.51524 28.5519 9.49787 28.5786 9.43128C28.9567 8.48947 29.2952 7.56639 29.5967 6.6885C30.0067 5.49431 30.3365 4.03423 29.1724 2.87011Z" fill="url(#paint21_linear_265_339)"/>
        <path d="M13.5818 16.7161C14.7823 16.2742 15.9495 17.4414 15.5076 18.6419L12.8888 25.7563C12.6367 26.4413 11.7594 26.6341 11.2433 26.1179L6.10576 20.9804C5.58963 20.4643 5.78244 19.587 6.46742 19.3349L13.5818 16.7161Z" fill="url(#paint22_linear_265_339)"/>
        <path d="M13.5818 16.7161C14.7823 16.2742 15.9495 17.4414 15.5076 18.6419L12.8888 25.7563C12.6367 26.4413 11.7594 26.6341 11.2433 26.1179L6.10576 20.9804C5.58963 20.4643 5.78244 19.587 6.46742 19.3349L13.5818 16.7161Z" fill="url(#paint23_radial_265_339)"/>
        <path d="M13.5818 16.7161C14.7823 16.2742 15.9495 17.4414 15.5076 18.6419L12.8888 25.7563C12.6367 26.4413 11.7594 26.6341 11.2433 26.1179L6.10576 20.9804C5.58963 20.4643 5.78244 19.587 6.46742 19.3349L13.5818 16.7161Z" fill="url(#paint24_radial_265_339)"/>
        <path d="M13.5818 16.7161C14.7823 16.2742 15.9495 17.4414 15.5076 18.6419L12.8888 25.7563C12.6367 26.4413 11.7594 26.6341 11.2433 26.1179L6.10576 20.9804C5.58963 20.4643 5.78244 19.587 6.46742 19.3349L13.5818 16.7161Z" fill="url(#paint25_radial_265_339)"/>
        <path d="M9.20508 22.0458L14.8301 17.6395L11.2051 24.077L9.20508 22.0458Z" fill="url(#paint26_linear_265_339)"/>
    </g>
    <defs>
        <linearGradient id="paint0_linear_265_339" x1="8.11117" y1="17.3057" x2="3.11117" y2="16.4821" gradientUnits="userSpaceOnUse">
            <stop stop-color="#EE2452"/>
            <stop offset="1" stop-color="#F63E7A"/>
        </linearGradient>
        <radialGradient id="paint1_radial_265_339" cx="0" cy="0" r="1" gradientUnits="userSpaceOnUse" gradientTransform="translate(2.39782 17.0609) rotate(-19.9576) scale(8.00168 1.36045)">
            <stop offset="0.163866" stop-color="#FF8DB0"/>
            <stop offset="1" stop-color="#FF8DB0" stop-opacity="0"/>
        </radialGradient>
        <linearGradient id="paint2_linear_265_339" x1="4.90503" y1="19.731" x2="5.7203" y2="18.9361" gradientUnits="userSpaceOnUse">
            <stop offset="0.491189" stop-color="#DD467C"/>
            <stop offset="1" stop-color="#DD467C" stop-opacity="0"/>
        </linearGradient>
        <linearGradient id="paint3_linear_265_339" x1="17.8924" y1="21.6698" x2="11.6745" y2="26.549" gradientUnits="userSpaceOnUse">
            <stop stop-color="#F83267"/>
            <stop offset="1" stop-color="#FF3190"/>
        </linearGradient>
        <radialGradient id="paint4_radial_265_339" cx="0" cy="0" r="1" gradientUnits="userSpaceOnUse" gradientTransform="translate(14.5799 22.201) rotate(86.482) scale(7.63907 6.58606)">
            <stop offset="0.756562" stop-color="#E76CBE" stop-opacity="0"/>
            <stop offset="0.951296" stop-color="#E76CBE"/>
        </radialGradient>
        <radialGradient id="paint5_radial_265_339" cx="0" cy="0" r="1" gradientUnits="userSpaceOnUse" gradientTransform="translate(13.4549 26.2323) rotate(-57.3464) scale(5.27051 2.31507)">
            <stop stop-color="#FF5898"/>
            <stop offset="1" stop-color="#FF5898" stop-opacity="0"/>
        </radialGradient>
        <linearGradient id="paint6_linear_265_339" x1="13.486" y1="8.67027" x2="22.2985" y2="17.5453" gradientUnits="userSpaceOnUse">
            <stop stop-color="#CCBBC0"/>
            <stop offset="1" stop-color="#EAD2EC"/>
        </linearGradient>
        <radialGradient id="paint7_radial_265_339" cx="0" cy="0" r="1" gradientUnits="userSpaceOnUse" gradientTransform="translate(23.9695 21.5757) rotate(-142.447) scale(16.6769 31.3483)">
            <stop offset="0.811143" stop-color="#E7E5E5" stop-opacity="0"/>
            <stop offset="1" stop-color="#E7E5E5"/>
        </radialGradient>
        <radialGradient id="paint8_radial_265_339" cx="0" cy="0" r="1" gradientUnits="userSpaceOnUse" gradientTransform="translate(9.18147 21.3082) rotate(-56.9293) scale(9.80381 4.6077)">
            <stop offset="0.281006" stop-color="#B5A3A5"/>
            <stop offset="1" stop-color="#B5A3A5" stop-opacity="0"/>
        </radialGradient>
        <radialGradient id="paint9_radial_265_339" cx="0" cy="0" r="1" gradientUnits="userSpaceOnUse" gradientTransform="translate(6.34473 20.0896) rotate(-73.625) scale(8.69119 1.4727)">
            <stop offset="0.207885" stop-color="#B28F96"/>
            <stop offset="1" stop-color="#B28F96" stop-opacity="0"/>
        </radialGradient>
        <radialGradient id="paint10_radial_265_339" cx="0" cy="0" r="1" gradientUnits="userSpaceOnUse" gradientTransform="translate(27.111 7.10778) rotate(137.284) scale(13.175 4.09069)">
            <stop stop-color="#FAECF1"/>
            <stop offset="1" stop-color="#FAECF1" stop-opacity="0"/>
        </radialGradient>
        <linearGradient id="paint11_linear_265_339" x1="17.7822" y1="10.4906" x2="24.5009" y2="11.0617" gradientUnits="userSpaceOnUse">
            <stop stop-color="#A796A0"/>
            <stop offset="1" stop-color="#A5959F"/>
        </linearGradient>
        <radialGradient id="paint12_radial_265_339" cx="0" cy="0" r="1" gradientUnits="userSpaceOnUse" gradientTransform="translate(21.1415 11.0617) rotate(90) scale(3.35938)">
            <stop offset="0.586538" stop-color="#93859B"/>
            <stop offset="1" stop-color="#93859B" stop-opacity="0"/>
        </radialGradient>
        <radialGradient id="paint13_radial_265_339" cx="0" cy="0" r="1" gradientUnits="userSpaceOnUse" gradientTransform="translate(21.1411 13.3868) rotate(-90) scale(4.84559 4.45626)">
            <stop stop-color="#72CDFF"/>
            <stop offset="0.738019" stop-color="#66ACFF"/>
            <stop offset="1" stop-color="#3B57F4"/>
        </radialGradient>
        <radialGradient id="paint14_radial_265_339" cx="0" cy="0" r="1" gradientUnits="userSpaceOnUse" gradientTransform="translate(8.19138 24.2457) rotate(135) scale(5.80645 4.56401)">
            <stop stop-color="#D46213"/>
            <stop offset="1" stop-color="#FF9542"/>
        </radialGradient>
        <radialGradient id="paint15_radial_265_339" cx="0" cy="0" r="1" gradientUnits="userSpaceOnUse" gradientTransform="translate(8.30386 28.9702) rotate(-131.186) scale(7.17453 7.56076)">
            <stop offset="0.870944" stop-color="#FFC484" stop-opacity="0"/>
            <stop offset="1" stop-color="#FFC484"/>
        </radialGradient>
        <linearGradient id="paint16_linear_265_339" x1="5.79916" y1="21.952" x2="11.2992" y2="27.3583" gradientUnits="userSpaceOnUse">
            <stop stop-color="#452860"/>
            <stop offset="1" stop-color="#51509F"/>
        </linearGradient>
        <radialGradient id="paint17_radial_265_339" cx="0" cy="0" r="1" gradientUnits="userSpaceOnUse" gradientTransform="translate(6.83041 21.452) rotate(77.8285) scale(1.6304 1.4405)">
            <stop stop-color="#8E839A"/>
            <stop offset="1" stop-color="#8E839A" stop-opacity="0"/>
        </radialGradient>
        <radialGradient id="paint18_radial_265_339" cx="0" cy="0" r="1" gradientUnits="userSpaceOnUse" gradientTransform="translate(7.20763 22.4169) rotate(47.9357) scale(6.2123 3.25637)">
            <stop offset="0.860492" stop-color="#6175B9" stop-opacity="0"/>
            <stop offset="1" stop-color="#6175B9"/>
        </radialGradient>
        <linearGradient id="paint19_linear_265_339" x1="29.1768" y1="2.87449" x2="25.5007" y2="6.55058" gradientUnits="userSpaceOnUse">
            <stop stop-color="#FF3745"/>
            <stop offset="1" stop-color="#ED224B"/>
        </linearGradient>
        <radialGradient id="paint20_radial_265_339" cx="0" cy="0" r="1" gradientUnits="userSpaceOnUse" gradientTransform="translate(28.7386 4.34605) rotate(135) scale(8.24677 1.9797)">
            <stop offset="0.189394" stop-color="#FF5971"/>
            <stop offset="1" stop-color="#FF5971" stop-opacity="0"/>
        </radialGradient>
        <linearGradient id="paint21_linear_265_339" x1="25.8219" y1="6.79539" x2="26.1891" y2="6.41258" gradientUnits="userSpaceOnUse">
            <stop stop-color="#D2575E"/>
            <stop offset="1" stop-color="#F93251" stop-opacity="0"/>
        </linearGradient>
        <linearGradient id="paint22_linear_265_339" x1="15.1606" y1="17.0631" x2="8.6745" y2="23.5492" gradientUnits="userSpaceOnUse">
            <stop stop-color="#FF2644"/>
            <stop offset="1" stop-color="#FF2982"/>
        </linearGradient>
        <radialGradient id="paint23_radial_265_339" cx="0" cy="0" r="1" gradientUnits="userSpaceOnUse" gradientTransform="translate(6.23617 19.42) rotate(-20.8651) scale(7.45782 1.95239)">
            <stop stop-color="#FF95AF"/>
            <stop offset="1" stop-color="#FF95AF" stop-opacity="0"/>
        </radialGradient>
        <radialGradient id="paint24_radial_265_339" cx="0" cy="0" r="1" gradientUnits="userSpaceOnUse" gradientTransform="translate(5.39782 20.3061) rotate(44.7044) scale(4.61021 1.36182)">
            <stop offset="0.381871" stop-color="#E14678"/>
            <stop offset="1" stop-color="#E14678" stop-opacity="0"/>
        </radialGradient>
        <radialGradient id="paint25_radial_265_339" cx="0" cy="0" r="1" gradientUnits="userSpaceOnUse" gradientTransform="translate(11.5799 19.1387) rotate(84.6743) scale(7.40698 7.89321)">
            <stop offset="0.831791" stop-color="#E67BC7" stop-opacity="0"/>
            <stop offset="1" stop-color="#E67BC7"/>
        </radialGradient>
        <linearGradient id="paint26_linear_265_339" x1="13.9863" y1="18.1083" x2="9.86133" y2="22.4208" gradientUnits="userSpaceOnUse">
            <stop stop-color="#FF5970"/>
            <stop offset="1" stop-color="#FF5794"/>
        </linearGradient>
    </defs>
</svg>
