<svg width="32" height="32" viewBox="0 0 32 32" fill="none" xmlns="http://www.w3.org/2000/svg">
    <path d="M4.19434 31.999C4.19434 25.478 9.72561 20.1918 16.5487 20.1918H17.3244C24.1476 20.1918 29.6789 25.478 29.6789 31.999H4.19434Z" fill="url(#paint0_radial_265_959)"/>
    <path d="M4.19434 31.999C4.19434 25.478 9.72561 20.1918 16.5487 20.1918H17.3244C24.1476 20.1918 29.6789 25.478 29.6789 31.999H4.19434Z" fill="url(#paint1_radial_265_959)"/>
    <path d="M4.19434 31.999C4.19434 25.478 9.72561 20.1918 16.5487 20.1918H17.3244C24.1476 20.1918 29.6789 25.478 29.6789 31.999H4.19434Z" fill="url(#paint2_radial_265_959)"/>
    <path d="M4.19434 31.999C4.19434 25.478 9.72561 20.1918 16.5487 20.1918H17.3244C24.1476 20.1918 29.6789 25.478 29.6789 31.999H4.19434Z" fill="url(#paint3_radial_265_959)"/>
    <path d="M4.19434 31.999C4.19434 25.478 9.72561 20.1918 16.5487 20.1918H17.3244C24.1476 20.1918 29.6789 25.478 29.6789 31.999H4.19434Z" fill="url(#paint4_radial_265_959)"/>
    <path d="M4.29345 14.2888C5.41931 14.2888 6.33201 13.4165 6.33201 12.3405C6.33201 11.2645 5.41931 10.3922 4.29345 10.3922C3.16758 10.3922 2.25488 11.2645 2.25488 12.3405C2.25488 13.4165 3.16758 14.2888 4.29345 14.2888Z" fill="url(#paint5_radial_265_959)"/>
    <path d="M4.29345 14.2888C5.41931 14.2888 6.33201 13.4165 6.33201 12.3405C6.33201 11.2645 5.41931 10.3922 4.29345 10.3922C3.16758 10.3922 2.25488 11.2645 2.25488 12.3405C2.25488 13.4165 3.16758 14.2888 4.29345 14.2888Z" fill="url(#paint6_radial_265_959)"/>
    <path d="M7.82177 3.89651C8.94763 3.89651 9.86033 3.02425 9.86033 1.94826C9.86033 0.872264 8.94763 0 7.82177 0C6.6959 0 5.7832 0.872264 5.7832 1.94826C5.7832 3.02425 6.6959 3.89651 7.82177 3.89651Z" fill="url(#paint7_radial_265_959)"/>
    <path d="M7.82177 3.89651C8.94763 3.89651 9.86033 3.02425 9.86033 1.94826C9.86033 0.872264 8.94763 0 7.82177 0C6.6959 0 5.7832 0.872264 5.7832 1.94826C5.7832 3.02425 6.6959 3.89651 7.82177 3.89651Z" fill="url(#paint8_radial_265_959)"/>
    <path d="M27.1528 5.07162C28.2787 5.07162 29.1914 4.19936 29.1914 3.12337C29.1914 2.04737 28.2787 1.17511 27.1528 1.17511C26.027 1.17511 25.1143 2.04737 25.1143 3.12337C25.1143 4.19936 26.027 5.07162 27.1528 5.07162Z" fill="url(#paint9_radial_265_959)"/>
    <path d="M27.1528 5.07162C28.2787 5.07162 29.1914 4.19936 29.1914 3.12337C29.1914 2.04737 28.2787 1.17511 27.1528 1.17511C26.027 1.17511 25.1143 2.04737 25.1143 3.12337C25.1143 4.19936 26.027 5.07162 27.1528 5.07162Z" fill="url(#paint10_radial_265_959)"/>
    <path d="M28.3921 16.5942C29.5179 16.5942 30.4306 15.7219 30.4306 14.6459C30.4306 13.5699 29.5179 12.6977 28.3921 12.6977C27.2662 12.6977 26.3535 13.5699 26.3535 14.6459C26.3535 15.7219 27.2662 16.5942 28.3921 16.5942Z" fill="url(#paint11_radial_265_959)"/>
    <path d="M28.3921 16.5942C29.5179 16.5942 30.4306 15.7219 30.4306 14.6459C30.4306 13.5699 29.5179 12.6977 28.3921 12.6977C27.2662 12.6977 26.3535 13.5699 26.3535 14.6459C26.3535 15.7219 27.2662 16.5942 28.3921 16.5942Z" fill="url(#paint12_radial_265_959)"/>
    <path d="M28.3921 16.5942C29.5179 16.5942 30.4306 15.7219 30.4306 14.6459C30.4306 13.5699 29.5179 12.6977 28.3921 12.6977C27.2662 12.6977 26.3535 13.5699 26.3535 14.6459C26.3535 15.7219 27.2662 16.5942 28.3921 16.5942Z" fill="url(#paint13_radial_265_959)"/>
    <path d="M16.9212 31.0825C17.4154 31.0825 17.816 30.6996 17.816 30.2273C17.816 29.755 17.4154 29.3721 16.9212 29.3721C16.427 29.3721 16.0264 29.755 16.0264 30.2273C16.0264 30.6996 16.427 31.0825 16.9212 31.0825Z" fill="url(#paint14_radial_265_959)"/>
    <path d="M16.9212 28.7541C17.4154 28.7541 17.816 28.3712 17.816 27.8989C17.816 27.4266 17.4154 27.0437 16.9212 27.0437C16.427 27.0437 16.0264 27.4266 16.0264 27.8989C16.0264 28.3712 16.427 28.7541 16.9212 28.7541Z" fill="url(#paint15_radial_265_959)"/>
    <path d="M23.5339 31.9996H21.623V20.9269C22.2891 21.1632 22.928 21.4527 23.5339 21.7902V31.9996Z" fill="url(#paint16_radial_265_959)"/>
    <path d="M23.5339 31.9996H21.623V20.9269C22.2891 21.1632 22.928 21.4527 23.5339 21.7902V31.9996Z" fill="url(#paint17_linear_265_959)"/>
    <path d="M23.5339 31.9996H21.623V20.9269C22.2891 21.1632 22.928 21.4527 23.5339 21.7902V31.9996Z" fill="url(#paint18_linear_265_959)"/>
    <path d="M12.194 32.0001H10.2832V21.8218C10.8889 21.4804 11.5277 21.1872 12.194 20.9473V32.0001Z" fill="url(#paint19_radial_265_959)"/>
    <path d="M12.194 32.0001H10.2832V21.8218C10.8889 21.4804 11.5277 21.1872 12.194 20.9473V32.0001Z" fill="url(#paint20_radial_265_959)"/>
    <path d="M12.194 32.0001H10.2832V21.8218C10.8889 21.4804 11.5277 21.1872 12.194 20.9473V32.0001Z" fill="url(#paint21_radial_265_959)"/>
    <path d="M12.194 32.0001H10.2832V21.8218C10.8889 21.4804 11.5277 21.1872 12.194 20.9473V32.0001Z" fill="url(#paint22_radial_265_959)"/>
    <path d="M13.1865 20.6343L13.9283 24.3596H19.9163L20.8808 20.6884C19.7546 20.3654 18.5606 20.1918 17.3243 20.1918H16.5486C15.3832 20.1918 14.2555 20.346 13.1865 20.6343Z" fill="url(#paint23_radial_265_959)"/>
    <path d="M13.1865 20.6343L13.9283 24.3596H19.9163L20.8808 20.6884C19.7546 20.3654 18.5606 20.1918 17.3243 20.1918H16.5486C15.3832 20.1918 14.2555 20.346 13.1865 20.6343Z" fill="url(#paint24_radial_265_959)"/>
    <path d="M3.21094 22.6697H8.16783V31.9996H3.21094V22.6697Z" fill="url(#paint25_linear_265_959)"/>
    <path d="M3.21094 22.6697H8.16783V31.9996H3.21094V22.6697Z" fill="url(#paint26_linear_265_959)"/>
    <path d="M25.417 25.3819H30.3739V31.9996H25.417V25.3819Z" fill="url(#paint27_linear_265_959)"/>
    <path d="M25.417 25.3819H30.3739V31.9996H25.417V25.3819Z" fill="url(#paint28_linear_265_959)"/>
    <path fill-rule="evenodd" clip-rule="evenodd" d="M16.0263 24.9364C15.7691 24.651 15.3363 24.3182 14.6272 24.0885C14.1898 23.9467 13.6855 24.0103 13.4518 24.3977C13.2819 24.6794 13.1074 25.0965 13.1074 25.6768C13.1074 26.257 13.2819 26.6742 13.4518 26.9558C13.6855 27.3431 14.1898 27.4068 14.6272 27.265C15.3585 27.0281 15.7957 26.7159 16.0498 26.4479C16.1079 26.6041 16.2421 26.725 16.4184 26.7571C16.7705 26.8213 17.0771 26.8213 17.4292 26.7571C17.6126 26.7236 17.7506 26.5941 17.8045 26.4284C18.0557 26.7007 18.4962 27.0224 19.2454 27.265C19.6828 27.4068 20.187 27.3431 20.4207 26.9558C20.5906 26.6742 20.765 26.2632 20.765 25.6768C20.765 25.0903 20.5906 24.6794 20.4207 24.3977C20.187 24.0103 19.6828 23.9467 19.2454 24.0885C18.5161 24.3247 18.0793 24.6698 17.825 24.9603C17.7979 24.7525 17.6451 24.5803 17.4292 24.5408C17.0771 24.4766 16.7705 24.4766 16.4184 24.5408C16.2108 24.5788 16.0615 24.7394 16.0263 24.9364Z" fill="#BC9EBB"/>
    <path d="M14.6272 23.4784C15.7277 23.835 16.1623 24.4395 16.3085 24.7301L16.3426 25.0668L16.3085 25.4811C16.1623 25.7715 15.7277 26.2985 14.6272 26.6551C14.1898 26.7967 13.6855 26.7332 13.4518 26.3459C13.2819 26.0642 13.1074 25.6469 13.1074 25.0668C13.1074 24.4866 13.2819 24.0693 13.4518 23.7878C13.6855 23.4003 14.1898 23.3368 14.6272 23.4784Z" fill="url(#paint29_radial_265_959)"/>
    <path d="M14.6272 23.4784C15.7277 23.835 16.1623 24.4395 16.3085 24.7301L16.3426 25.0668L16.3085 25.4811C16.1623 25.7715 15.7277 26.2985 14.6272 26.6551C14.1898 26.7967 13.6855 26.7332 13.4518 26.3459C13.2819 26.0642 13.1074 25.6469 13.1074 25.0668C13.1074 24.4866 13.2819 24.0693 13.4518 23.7878C13.6855 23.4003 14.1898 23.3368 14.6272 23.4784Z" fill="url(#paint30_radial_265_959)"/>
    <path d="M14.6272 23.4784C15.7277 23.835 16.1623 24.4395 16.3085 24.7301L16.3426 25.0668L16.3085 25.4811C16.1623 25.7715 15.7277 26.2985 14.6272 26.6551C14.1898 26.7967 13.6855 26.7332 13.4518 26.3459C13.2819 26.0642 13.1074 25.6469 13.1074 25.0668C13.1074 24.4866 13.2819 24.0693 13.4518 23.7878C13.6855 23.4003 14.1898 23.3368 14.6272 23.4784Z" fill="url(#paint31_radial_265_959)"/>
    <path d="M19.2458 23.4784C18.1453 23.835 17.7106 24.4395 17.5643 24.7301L17.5303 25.0668L17.5643 25.4811C17.7106 25.7715 18.1453 26.2985 19.2458 26.6551C19.6832 26.7967 20.1873 26.7332 20.421 26.3459C20.5909 26.0642 20.7654 25.6533 20.7654 25.0668C20.7654 24.4802 20.5909 24.0693 20.421 23.7878C20.1873 23.4003 19.6832 23.3368 19.2458 23.4784Z" fill="url(#paint32_radial_265_959)"/>
    <path d="M19.2458 23.4784C18.1453 23.835 17.7106 24.4395 17.5643 24.7301L17.5303 25.0668L17.5643 25.4811C17.7106 25.7715 18.1453 26.2985 19.2458 26.6551C19.6832 26.7967 20.1873 26.7332 20.421 26.3459C20.5909 26.0642 20.7654 25.6533 20.7654 25.0668C20.7654 24.4802 20.5909 24.0693 20.421 23.7878C20.1873 23.4003 19.6832 23.3368 19.2458 23.4784Z" fill="url(#paint33_radial_265_959)"/>
    <path d="M16.0217 24.3604C16.0453 24.1484 16.1994 23.9716 16.4186 23.9317C16.7707 23.8673 17.0773 23.8673 17.4294 23.9317C17.6484 23.9716 17.8027 24.1484 17.8263 24.3604C17.8773 24.8177 17.8774 25.2603 17.8263 25.719C17.8027 25.931 17.6484 26.1078 17.4294 26.1478C17.0773 26.2121 16.7707 26.2121 16.4186 26.1478C16.1994 26.1078 16.0453 25.931 16.0217 25.719C15.9707 25.262 15.9706 24.8188 16.0217 24.3604Z" fill="url(#paint34_linear_265_959)"/>
    <path d="M16.0217 24.3604C16.0453 24.1484 16.1994 23.9716 16.4186 23.9317C16.7707 23.8673 17.0773 23.8673 17.4294 23.9317C17.6484 23.9716 17.8027 24.1484 17.8263 24.3604C17.8773 24.8177 17.8774 25.2603 17.8263 25.719C17.8027 25.931 17.6484 26.1078 17.4294 26.1478C17.0773 26.2121 16.7707 26.2121 16.4186 26.1478C16.1994 26.1078 16.0453 25.931 16.0217 25.719C15.9707 25.262 15.9706 24.8188 16.0217 24.3604Z" fill="url(#paint35_radial_265_959)"/>
    <path d="M30.3492 20.4304L29.8075 21.3853L28.3885 23.0307L26.5947 25.3361L30.3466 25.3904C30.4665 25.1915 30.6116 24.735 30.8075 23.8539C31.0061 23.0899 31.2027 22.5652 31.3778 22.2622L31.9137 21.1932C32.1027 20.816 31.9724 20.3633 31.6081 20.1316C31.1781 19.8582 30.5952 19.9964 30.3492 20.4304Z" fill="#FFD942"/>
    <path d="M28.0111 18.5992C27.9187 18.1581 28.2382 17.7349 28.7054 17.6798C29.1399 17.6284 29.5384 17.9167 29.6046 18.3304L30.0163 20.9012C30.0265 20.9643 30.0284 21.0283 30.0224 21.0918L30.0043 21.28C29.9983 21.3435 30.0022 21.4075 30.0054 21.4713C30.0232 21.8122 29.8279 22.0663 29.4549 22.116C29.0685 22.1673 28.707 21.922 28.6305 21.5564L28.0111 18.5992Z" fill="#FFDD46"/>
    <path d="M26.2411 18.2679C26.1181 17.8112 26.4404 17.3543 26.9297 17.2923L26.9571 17.2888C27.3866 17.2343 27.7868 17.5075 27.872 17.9135L28.5444 21.1128C28.6308 21.5241 28.3282 21.9172 27.8916 21.9607C27.525 21.9973 27.1855 21.7717 27.0934 21.4305L26.2411 18.2679Z" fill="#FFD343"/>
    <path d="M24.9681 19.2446C24.8496 18.7909 25.1698 18.3393 25.6548 18.2764C26.0843 18.2206 26.4853 18.4936 26.5706 18.8998L27.2433 22.1006C27.3295 22.5105 27.0279 22.9023 26.5927 22.9457C26.2251 22.9823 25.8853 22.7548 25.7958 22.4121L24.9681 19.2446Z" fill="#FFC93E"/>
    <path d="M23.7664 20.4904C23.6517 20.0374 23.9744 19.5886 24.4576 19.526C24.8879 19.4701 25.2913 19.7432 25.3768 20.1501L25.8131 22.2259C25.9536 22.8944 25.1602 23.3783 24.5848 22.9752C24.4361 22.8709 24.3308 22.7198 24.2874 22.5485L23.7664 20.4904Z" fill="#FFC239"/>
    <path d="M24.4632 23.1895C24.607 23.7257 25.1727 24.8745 25.4376 25.3818H30.3377L30.0256 20.9971L24.1699 22.066C24.2078 22.2171 24.3195 22.6531 24.4632 23.1895Z" fill="url(#paint36_radial_265_959)"/>
    <path d="M24.4632 23.1895C24.607 23.7257 25.1727 24.8745 25.4376 25.3818H30.3377L30.0256 20.9971L24.1699 22.066C24.2078 22.2171 24.3195 22.6531 24.4632 23.1895Z" fill="url(#paint37_radial_265_959)"/>
    <path d="M4.8635 17.9602C4.55248 17.5585 4.64107 16.992 5.06135 16.6948C5.47652 16.4012 6.06132 16.4798 6.37565 16.8714L7.5031 18.2761C7.91008 18.7832 8.13066 19.4044 8.13066 20.0435L6.31553 19.8354L4.8635 17.9602Z" fill="url(#paint38_radial_265_959)"/>
    <path fill-rule="evenodd" clip-rule="evenodd" d="M1.80016 16.872C2.21426 16.6015 2.77935 16.7031 3.06231 17.0989C3.13679 17.203 3.20082 17.302 3.2624 17.3971C3.43352 17.6615 3.58577 17.8968 3.89107 18.1344C4.24461 18.4095 4.85287 18.6961 6.00646 18.6212C6.50685 18.5887 6.94007 18.9499 6.97407 19.4282C7.00807 19.9065 6.62997 20.3204 6.12958 20.3529C4.56823 20.4543 3.49267 20.0628 2.74416 19.4803C2.1662 19.0305 1.79974 18.4503 1.63466 18.189C1.60356 18.1397 1.57959 18.1018 1.56273 18.0782C1.27975 17.6825 1.38605 17.1424 1.80016 16.872Z" fill="url(#paint39_radial_265_959)"/>
    <path fill-rule="evenodd" clip-rule="evenodd" d="M1.80016 16.872C2.21426 16.6015 2.77935 16.7031 3.06231 17.0989C3.13679 17.203 3.20082 17.302 3.2624 17.3971C3.43352 17.6615 3.58577 17.8968 3.89107 18.1344C4.24461 18.4095 4.85287 18.6961 6.00646 18.6212C6.50685 18.5887 6.94007 18.9499 6.97407 19.4282C7.00807 19.9065 6.62997 20.3204 6.12958 20.3529C4.56823 20.4543 3.49267 20.0628 2.74416 19.4803C2.1662 19.0305 1.79974 18.4503 1.63466 18.189C1.60356 18.1397 1.57959 18.1018 1.56273 18.0782C1.27975 17.6825 1.38605 17.1424 1.80016 16.872Z" fill="url(#paint40_radial_265_959)"/>
    <path fill-rule="evenodd" clip-rule="evenodd" d="M0.452496 17.2334C0.866605 16.963 1.43169 17.0646 1.71465 17.4604C1.7593 17.5227 1.80578 17.5902 1.85493 17.6616C2.06079 17.9605 2.3135 18.3275 2.67366 18.6755C3.10872 19.0961 3.60374 19.3864 4.1821 19.4158C4.68294 19.4413 5.06736 19.85 5.04072 20.3286C5.01407 20.8072 4.58647 21.1746 4.08563 21.1492C2.88556 21.0882 1.99 20.4836 1.38215 19.8959C0.878604 19.4093 0.505192 18.8628 0.306928 18.5726C0.270203 18.5187 0.239485 18.4738 0.215062 18.4397C-0.0679002 18.0439 0.0383997 17.5039 0.452496 17.2334Z" fill="url(#paint41_radial_265_959)"/>
    <path fill-rule="evenodd" clip-rule="evenodd" d="M0.452496 17.2334C0.866605 16.963 1.43169 17.0646 1.71465 17.4604C1.7593 17.5227 1.80578 17.5902 1.85493 17.6616C2.06079 17.9605 2.3135 18.3275 2.67366 18.6755C3.10872 19.0961 3.60374 19.3864 4.1821 19.4158C4.68294 19.4413 5.06736 19.85 5.04072 20.3286C5.01407 20.8072 4.58647 21.1746 4.08563 21.1492C2.88556 21.0882 1.99 20.4836 1.38215 19.8959C0.878604 19.4093 0.505192 18.8628 0.306928 18.5726C0.270203 18.5187 0.239485 18.4738 0.215062 18.4397C-0.0679002 18.0439 0.0383997 17.5039 0.452496 17.2334Z" fill="url(#paint42_radial_265_959)"/>
    <path fill-rule="evenodd" clip-rule="evenodd" d="M0.395861 18.5266C0.809957 18.2561 1.37505 18.3577 1.65802 18.7535C2.03485 19.2805 2.83656 20.1472 3.89749 20.1472C4.39904 20.1472 4.80562 20.5357 4.80562 21.0151C4.80562 21.4944 4.39904 21.883 3.89749 21.883C1.83672 21.883 0.55729 20.2906 0.158427 19.7327C-0.124548 19.3371 -0.0182356 18.797 0.395861 18.5266Z" fill="url(#paint43_radial_265_959)"/>
    <path fill-rule="evenodd" clip-rule="evenodd" d="M0.395861 18.5266C0.809957 18.2561 1.37505 18.3577 1.65802 18.7535C2.03485 19.2805 2.83656 20.1472 3.89749 20.1472C4.39904 20.1472 4.80562 20.5357 4.80562 21.0151C4.80562 21.4944 4.39904 21.883 3.89749 21.883C1.83672 21.883 0.55729 20.2906 0.158427 19.7327C-0.124548 19.3371 -0.0182356 18.797 0.395861 18.5266Z" fill="url(#paint44_radial_265_959)"/>
    <path fill-rule="evenodd" clip-rule="evenodd" d="M0.763009 19.8648C1.1611 19.5732 1.73113 19.6453 2.03621 20.0258C2.33074 20.3931 3.04446 21.0464 4.21481 21.0464C4.71635 21.0464 5.12294 21.435 5.12294 21.9143C5.12294 22.3936 4.71635 22.6887 4.21481 22.6887C2.17788 22.6887 1.07576 21.6816 0.594592 21.0816C0.28952 20.7011 0.36492 20.1563 0.763009 19.8648Z" fill="url(#paint45_radial_265_959)"/>
    <path fill-rule="evenodd" clip-rule="evenodd" d="M0.763009 19.8648C1.1611 19.5732 1.73113 19.6453 2.03621 20.0258C2.33074 20.3931 3.04446 21.0464 4.21481 21.0464C4.71635 21.0464 5.12294 21.435 5.12294 21.9143C5.12294 22.3936 4.71635 22.6887 4.21481 22.6887C2.17788 22.6887 1.07576 21.6816 0.594592 21.0816C0.28952 20.7011 0.36492 20.1563 0.763009 19.8648Z" fill="url(#paint46_radial_265_959)"/>
    <path d="M3.8462 19.3455C3.55089 19.5343 3.39941 19.8631 3.39941 20.2027V22.6418L4.14673 22.687H8.14464V19.9928C8.14464 19.0255 7.1703 18.5463 5.76079 18.6639C4.96721 18.7301 4.29752 19.0569 3.8462 19.3455Z" fill="url(#paint47_radial_265_959)"/>
    <path d="M3.8462 19.3455C3.55089 19.5343 3.39941 19.8631 3.39941 20.2027V22.6418L4.14673 22.687H8.14464V19.9928C8.14464 19.0255 7.1703 18.5463 5.76079 18.6639C4.96721 18.7301 4.29752 19.0569 3.8462 19.3455Z" fill="url(#paint48_radial_265_959)"/>
    <path d="M14.501 18.7333C14.501 17.5867 15.5916 16.6572 16.9368 16.6572C18.2822 16.6572 19.3727 17.5867 19.3727 18.7333V21.4248C19.3727 22.5714 18.2822 23.5009 16.9368 23.5009C15.5916 23.5009 14.501 22.5714 14.501 21.4248V18.7333Z" fill="url(#paint49_radial_265_959)"/>
    <path d="M27.435 22.0718C28.8264 21.8127 29.905 21.3608 29.8442 21.0625C29.7834 20.7643 28.6061 20.7325 27.2147 20.9917C25.8233 21.2508 24.7446 21.7027 24.8054 22.001C24.8663 22.2993 26.0435 22.331 27.435 22.0718Z" fill="url(#paint50_radial_265_959)"/>
    <path d="M10.9327 16.4275C12.0934 16.4275 13.0344 15.5282 13.0344 14.4189C13.0344 13.3096 12.0934 12.4104 10.9327 12.4104C9.772 12.4104 8.83105 13.3096 8.83105 14.4189C8.83105 15.5282 9.772 16.4275 10.9327 16.4275Z" fill="url(#paint51_radial_265_959)"/>
    <path d="M10.9328 15.6153C11.6243 15.6153 12.1849 15.0795 12.1849 14.4186C12.1849 13.7577 11.6243 13.222 10.9328 13.222C10.2413 13.222 9.68066 13.7577 9.68066 14.4186C9.68066 15.0795 10.2413 15.6153 10.9328 15.6153Z" fill="url(#paint52_linear_265_959)"/>
    <path d="M22.9093 16.428C24.07 16.428 25.0109 15.5287 25.0109 14.4194C25.0109 13.3101 24.07 12.4109 22.9093 12.4109C21.7486 12.4109 20.8076 13.3101 20.8076 14.4194C20.8076 15.5287 21.7486 16.428 22.9093 16.428Z" fill="url(#paint53_linear_265_959)"/>
    <path d="M22.9093 16.428C24.07 16.428 25.0109 15.5287 25.0109 14.4194C25.0109 13.3101 24.07 12.4109 22.9093 12.4109C21.7486 12.4109 20.8076 13.3101 20.8076 14.4194C20.8076 15.5287 21.7486 16.428 22.9093 16.428Z" fill="url(#paint54_radial_265_959)"/>
    <path d="M22.9084 15.6153C23.5999 15.6153 24.1605 15.0795 24.1605 14.4186C24.1605 13.7577 23.5999 13.222 22.9084 13.222C22.2168 13.222 21.6562 13.7577 21.6562 14.4186C21.6562 15.0795 22.2168 15.6153 22.9084 15.6153Z" fill="#FFBF34"/>
    <path d="M22.9084 15.6153C23.5999 15.6153 24.1605 15.0795 24.1605 14.4186C24.1605 13.7577 23.5999 13.222 22.9084 13.222C22.2168 13.222 21.6562 13.7577 21.6562 14.4186C21.6562 15.0795 22.2168 15.6153 22.9084 15.6153Z" fill="url(#paint55_radial_265_959)"/>
    <path d="M22.9084 15.6153C23.5999 15.6153 24.1605 15.0795 24.1605 14.4186C24.1605 13.7577 23.5999 13.222 22.9084 13.222C22.2168 13.222 21.6562 13.7577 21.6562 14.4186C21.6562 15.0795 22.2168 15.6153 22.9084 15.6153Z" fill="url(#paint56_radial_265_959)"/>
    <path d="M10.4904 13.6829C10.4572 13.3056 10.417 12.2292 10.417 11.9524C10.417 11.6315 10.5521 11.2465 10.8221 11.054L11.0247 10.8615C11.3624 10.6048 11.4974 10.2198 11.4974 9.8348V8.80814C11.4974 8.48731 11.7 8.23064 12.0377 8.16647C12.848 7.97397 14.5362 7.65314 16.967 7.65314C19.3979 7.65314 21.0861 7.97397 21.8964 8.16647C22.1665 8.23064 22.4367 8.48731 22.4367 8.80814V9.8348C22.4367 10.2198 22.6392 10.6048 22.9093 10.8615C23.5413 11.2848 23.502 11.5176 23.4495 12.0165C23.4332 12.1711 23.382 13.4536 23.3373 13.7487L23.0026 18.5112C22.8005 20.6402 21.0492 22.1241 18.9611 22.1241H14.9196C12.7641 22.1241 11.0802 20.6402 10.8781 18.5112L10.4904 13.6829Z" fill="url(#paint57_linear_265_959)"/>
    <path d="M10.4904 13.6829C10.4572 13.3056 10.417 12.2292 10.417 11.9524C10.417 11.6315 10.5521 11.2465 10.8221 11.054L11.0247 10.8615C11.3624 10.6048 11.4974 10.2198 11.4974 9.8348V8.80814C11.4974 8.48731 11.7 8.23064 12.0377 8.16647C12.848 7.97397 14.5362 7.65314 16.967 7.65314C19.3979 7.65314 21.0861 7.97397 21.8964 8.16647C22.1665 8.23064 22.4367 8.48731 22.4367 8.80814V9.8348C22.4367 10.2198 22.6392 10.6048 22.9093 10.8615C23.5413 11.2848 23.502 11.5176 23.4495 12.0165C23.4332 12.1711 23.382 13.4536 23.3373 13.7487L23.0026 18.5112C22.8005 20.6402 21.0492 22.1241 18.9611 22.1241H14.9196C12.7641 22.1241 11.0802 20.6402 10.8781 18.5112L10.4904 13.6829Z" fill="url(#paint58_linear_265_959)"/>
    <path d="M10.4904 13.6829C10.4572 13.3056 10.417 12.2292 10.417 11.9524C10.417 11.6315 10.5521 11.2465 10.8221 11.054L11.0247 10.8615C11.3624 10.6048 11.4974 10.2198 11.4974 9.8348V8.80814C11.4974 8.48731 11.7 8.23064 12.0377 8.16647C12.848 7.97397 14.5362 7.65314 16.967 7.65314C19.3979 7.65314 21.0861 7.97397 21.8964 8.16647C22.1665 8.23064 22.4367 8.48731 22.4367 8.80814V9.8348C22.4367 10.2198 22.6392 10.6048 22.9093 10.8615C23.5413 11.2848 23.502 11.5176 23.4495 12.0165C23.4332 12.1711 23.382 13.4536 23.3373 13.7487L23.0026 18.5112C22.8005 20.6402 21.0492 22.1241 18.9611 22.1241H14.9196C12.7641 22.1241 11.0802 20.6402 10.8781 18.5112L10.4904 13.6829Z" fill="url(#paint59_radial_265_959)"/>
    <path d="M10.4904 13.6829C10.4572 13.3056 10.417 12.2292 10.417 11.9524C10.417 11.6315 10.5521 11.2465 10.8221 11.054L11.0247 10.8615C11.3624 10.6048 11.4974 10.2198 11.4974 9.8348V8.80814C11.4974 8.48731 11.7 8.23064 12.0377 8.16647C12.848 7.97397 14.5362 7.65314 16.967 7.65314C19.3979 7.65314 21.0861 7.97397 21.8964 8.16647C22.1665 8.23064 22.4367 8.48731 22.4367 8.80814V9.8348C22.4367 10.2198 22.6392 10.6048 22.9093 10.8615C23.5413 11.2848 23.502 11.5176 23.4495 12.0165C23.4332 12.1711 23.382 13.4536 23.3373 13.7487L23.0026 18.5112C22.8005 20.6402 21.0492 22.1241 18.9611 22.1241H14.9196C12.7641 22.1241 11.0802 20.6402 10.8781 18.5112L10.4904 13.6829Z" fill="url(#paint60_radial_265_959)"/>
    <path d="M10.4904 13.6829C10.4572 13.3056 10.417 12.2292 10.417 11.9524C10.417 11.6315 10.5521 11.2465 10.8221 11.054L11.0247 10.8615C11.3624 10.6048 11.4974 10.2198 11.4974 9.8348V8.80814C11.4974 8.48731 11.7 8.23064 12.0377 8.16647C12.848 7.97397 14.5362 7.65314 16.967 7.65314C19.3979 7.65314 21.0861 7.97397 21.8964 8.16647C22.1665 8.23064 22.4367 8.48731 22.4367 8.80814V9.8348C22.4367 10.2198 22.6392 10.6048 22.9093 10.8615C23.5413 11.2848 23.502 11.5176 23.4495 12.0165C23.4332 12.1711 23.382 13.4536 23.3373 13.7487L23.0026 18.5112C22.8005 20.6402 21.0492 22.1241 18.9611 22.1241H14.9196C12.7641 22.1241 11.0802 20.6402 10.8781 18.5112L10.4904 13.6829Z" fill="url(#paint61_radial_265_959)"/>
    <path d="M10.4904 13.6829C10.4572 13.3056 10.417 12.2292 10.417 11.9524C10.417 11.6315 10.5521 11.2465 10.8221 11.054L11.0247 10.8615C11.3624 10.6048 11.4974 10.2198 11.4974 9.8348V8.80814C11.4974 8.48731 11.7 8.23064 12.0377 8.16647C12.848 7.97397 14.5362 7.65314 16.967 7.65314C19.3979 7.65314 21.0861 7.97397 21.8964 8.16647C22.1665 8.23064 22.4367 8.48731 22.4367 8.80814V9.8348C22.4367 10.2198 22.6392 10.6048 22.9093 10.8615C23.5413 11.2848 23.502 11.5176 23.4495 12.0165C23.4332 12.1711 23.382 13.4536 23.3373 13.7487L23.0026 18.5112C22.8005 20.6402 21.0492 22.1241 18.9611 22.1241H14.9196C12.7641 22.1241 11.0802 20.6402 10.8781 18.5112L10.4904 13.6829Z" fill="url(#paint62_linear_265_959)"/>
    <path d="M22.9762 6.62536L22.9086 8.16533C23.854 8.6145 25.0019 8.35787 24.7993 9.44867L24.0566 13.1062C23.9904 13.484 23.7291 13.7382 23.3365 13.7476C23.3814 13.1418 23.4232 12.1643 23.4396 12.0097C23.4943 11.4887 23.4084 11.3354 22.9086 10.8603C22.6385 10.6037 22.4359 10.2187 22.4359 9.83367V8.807C22.4359 8.48617 22.1659 8.2295 21.8957 8.16533C21.0854 7.97283 19.3973 7.652 16.9664 7.652C14.5354 7.652 12.8473 7.97283 12.0369 8.16533C11.6993 8.2295 11.4968 8.48617 11.4968 8.807V9.83367C11.4968 10.2187 11.3618 10.6037 11.0241 10.8603L10.8215 11.0528C10.5515 11.2453 10.4151 11.6475 10.4151 11.9684C10.433 12.1555 10.4596 13.2332 10.4897 13.6817C10.1123 13.6571 9.80522 13.4074 9.74105 13.042L8.99832 9.38456C8.86331 8.35787 9.23891 8.93794 10.1843 8.48877C11.4604 7.95414 12.0901 5.53577 13.1174 4.70035C13.8602 4.05868 14.9405 3.86618 15.886 4.31535C16.5612 4.50785 17.304 4.50785 17.9793 4.31535C18.9921 3.99452 20.14 4.25118 20.9504 4.95702L21.9633 5.91953C22.2333 6.24036 22.571 6.43286 22.9762 6.62536Z" fill="#FFA91B"/>
    <path d="M22.9762 6.62536L22.9086 8.16533C23.854 8.6145 25.0019 8.35787 24.7993 9.44867L24.0566 13.1062C23.9904 13.484 23.7291 13.7382 23.3365 13.7476C23.3814 13.1418 23.4232 12.1643 23.4396 12.0097C23.4943 11.4887 23.4084 11.3354 22.9086 10.8603C22.6385 10.6037 22.4359 10.2187 22.4359 9.83367V8.807C22.4359 8.48617 22.1659 8.2295 21.8957 8.16533C21.0854 7.97283 19.3973 7.652 16.9664 7.652C14.5354 7.652 12.8473 7.97283 12.0369 8.16533C11.6993 8.2295 11.4968 8.48617 11.4968 8.807V9.83367C11.4968 10.2187 11.3618 10.6037 11.0241 10.8603L10.8215 11.0528C10.5515 11.2453 10.4151 11.6475 10.4151 11.9684C10.433 12.1555 10.4596 13.2332 10.4897 13.6817C10.1123 13.6571 9.80522 13.4074 9.74105 13.042L8.99832 9.38456C8.86331 8.35787 9.23891 8.93794 10.1843 8.48877C11.4604 7.95414 12.0901 5.53577 13.1174 4.70035C13.8602 4.05868 14.9405 3.86618 15.886 4.31535C16.5612 4.50785 17.304 4.50785 17.9793 4.31535C18.9921 3.99452 20.14 4.25118 20.9504 4.95702L21.9633 5.91953C22.2333 6.24036 22.571 6.43286 22.9762 6.62536Z" fill="url(#paint63_radial_265_959)"/>
    <path d="M22.9762 6.62536L22.9086 8.16533C23.854 8.6145 25.0019 8.35787 24.7993 9.44867L24.0566 13.1062C23.9904 13.484 23.7291 13.7382 23.3365 13.7476C23.3814 13.1418 23.4232 12.1643 23.4396 12.0097C23.4943 11.4887 23.4084 11.3354 22.9086 10.8603C22.6385 10.6037 22.4359 10.2187 22.4359 9.83367V8.807C22.4359 8.48617 22.1659 8.2295 21.8957 8.16533C21.0854 7.97283 19.3973 7.652 16.9664 7.652C14.5354 7.652 12.8473 7.97283 12.0369 8.16533C11.6993 8.2295 11.4968 8.48617 11.4968 8.807V9.83367C11.4968 10.2187 11.3618 10.6037 11.0241 10.8603L10.8215 11.0528C10.5515 11.2453 10.4151 11.6475 10.4151 11.9684C10.433 12.1555 10.4596 13.2332 10.4897 13.6817C10.1123 13.6571 9.80522 13.4074 9.74105 13.042L8.99832 9.38456C8.86331 8.35787 9.23891 8.93794 10.1843 8.48877C11.4604 7.95414 12.0901 5.53577 13.1174 4.70035C13.8602 4.05868 14.9405 3.86618 15.886 4.31535C16.5612 4.50785 17.304 4.50785 17.9793 4.31535C18.9921 3.99452 20.14 4.25118 20.9504 4.95702L21.9633 5.91953C22.2333 6.24036 22.571 6.43286 22.9762 6.62536Z" fill="url(#paint64_linear_265_959)"/>
    <path d="M22.9762 6.62536L22.9086 8.16533C23.854 8.6145 25.0019 8.35787 24.7993 9.44867L24.0566 13.1062C23.9904 13.484 23.7291 13.7382 23.3365 13.7476C23.3814 13.1418 23.4232 12.1643 23.4396 12.0097C23.4943 11.4887 23.4084 11.3354 22.9086 10.8603C22.6385 10.6037 22.4359 10.2187 22.4359 9.83367V8.807C22.4359 8.48617 22.1659 8.2295 21.8957 8.16533C21.0854 7.97283 19.3973 7.652 16.9664 7.652C14.5354 7.652 12.8473 7.97283 12.0369 8.16533C11.6993 8.2295 11.4968 8.48617 11.4968 8.807V9.83367C11.4968 10.2187 11.3618 10.6037 11.0241 10.8603L10.8215 11.0528C10.5515 11.2453 10.4151 11.6475 10.4151 11.9684C10.433 12.1555 10.4596 13.2332 10.4897 13.6817C10.1123 13.6571 9.80522 13.4074 9.74105 13.042L8.99832 9.38456C8.86331 8.35787 9.23891 8.93794 10.1843 8.48877C11.4604 7.95414 12.0901 5.53577 13.1174 4.70035C13.8602 4.05868 14.9405 3.86618 15.886 4.31535C16.5612 4.50785 17.304 4.50785 17.9793 4.31535C18.9921 3.99452 20.14 4.25118 20.9504 4.95702L21.9633 5.91953C22.2333 6.24036 22.571 6.43286 22.9762 6.62536Z" fill="url(#paint65_radial_265_959)"/>
    <path d="M22.9762 6.62536L22.9086 8.16533C23.854 8.6145 25.0019 8.35787 24.7993 9.44867L24.0566 13.1062C23.9904 13.484 23.7291 13.7382 23.3365 13.7476C23.3814 13.1418 23.4232 12.1643 23.4396 12.0097C23.4943 11.4887 23.4084 11.3354 22.9086 10.8603C22.6385 10.6037 22.4359 10.2187 22.4359 9.83367V8.807C22.4359 8.48617 22.1659 8.2295 21.8957 8.16533C21.0854 7.97283 19.3973 7.652 16.9664 7.652C14.5354 7.652 12.8473 7.97283 12.0369 8.16533C11.6993 8.2295 11.4968 8.48617 11.4968 8.807V9.83367C11.4968 10.2187 11.3618 10.6037 11.0241 10.8603L10.8215 11.0528C10.5515 11.2453 10.4151 11.6475 10.4151 11.9684C10.433 12.1555 10.4596 13.2332 10.4897 13.6817C10.1123 13.6571 9.80522 13.4074 9.74105 13.042L8.99832 9.38456C8.86331 8.35787 9.23891 8.93794 10.1843 8.48877C11.4604 7.95414 12.0901 5.53577 13.1174 4.70035C13.8602 4.05868 14.9405 3.86618 15.886 4.31535C16.5612 4.50785 17.304 4.50785 17.9793 4.31535C18.9921 3.99452 20.14 4.25118 20.9504 4.95702L21.9633 5.91953C22.2333 6.24036 22.571 6.43286 22.9762 6.62536Z" fill="url(#paint66_radial_265_959)"/>
    <path d="M22.9762 6.62536L22.9086 8.16533C23.854 8.6145 25.0019 8.35787 24.7993 9.44867L24.0566 13.1062C23.9904 13.484 23.7291 13.7382 23.3365 13.7476C23.3814 13.1418 23.4232 12.1643 23.4396 12.0097C23.4943 11.4887 23.4084 11.3354 22.9086 10.8603C22.6385 10.6037 22.4359 10.2187 22.4359 9.83367V8.807C22.4359 8.48617 22.1659 8.2295 21.8957 8.16533C21.0854 7.97283 19.3973 7.652 16.9664 7.652C14.5354 7.652 12.8473 7.97283 12.0369 8.16533C11.6993 8.2295 11.4968 8.48617 11.4968 8.807V9.83367C11.4968 10.2187 11.3618 10.6037 11.0241 10.8603L10.8215 11.0528C10.5515 11.2453 10.4151 11.6475 10.4151 11.9684C10.433 12.1555 10.4596 13.2332 10.4897 13.6817C10.1123 13.6571 9.80522 13.4074 9.74105 13.042L8.99832 9.38456C8.86331 8.35787 9.23891 8.93794 10.1843 8.48877C11.4604 7.95414 12.0901 5.53577 13.1174 4.70035C13.8602 4.05868 14.9405 3.86618 15.886 4.31535C16.5612 4.50785 17.304 4.50785 17.9793 4.31535C18.9921 3.99452 20.14 4.25118 20.9504 4.95702L21.9633 5.91953C22.2333 6.24036 22.571 6.43286 22.9762 6.62536Z" fill="url(#paint67_radial_265_959)"/>
    <path d="M22.9762 6.62536L22.9086 8.16533C23.854 8.6145 25.0019 8.35787 24.7993 9.44867L24.0566 13.1062C23.9904 13.484 23.7291 13.7382 23.3365 13.7476C23.3814 13.1418 23.4232 12.1643 23.4396 12.0097C23.4943 11.4887 23.4084 11.3354 22.9086 10.8603C22.6385 10.6037 22.4359 10.2187 22.4359 9.83367V8.807C22.4359 8.48617 22.1659 8.2295 21.8957 8.16533C21.0854 7.97283 19.3973 7.652 16.9664 7.652C14.5354 7.652 12.8473 7.97283 12.0369 8.16533C11.6993 8.2295 11.4968 8.48617 11.4968 8.807V9.83367C11.4968 10.2187 11.3618 10.6037 11.0241 10.8603L10.8215 11.0528C10.5515 11.2453 10.4151 11.6475 10.4151 11.9684C10.433 12.1555 10.4596 13.2332 10.4897 13.6817C10.1123 13.6571 9.80522 13.4074 9.74105 13.042L8.99832 9.38456C8.86331 8.35787 9.23891 8.93794 10.1843 8.48877C11.4604 7.95414 12.0901 5.53577 13.1174 4.70035C13.8602 4.05868 14.9405 3.86618 15.886 4.31535C16.5612 4.50785 17.304 4.50785 17.9793 4.31535C18.9921 3.99452 20.14 4.25118 20.9504 4.95702L21.9633 5.91953C22.2333 6.24036 22.571 6.43286 22.9762 6.62536Z" fill="url(#paint68_radial_265_959)"/>
    <path d="M16.5626 14.2724L15.5303 16.3166C15.4023 16.737 15.7094 17.1576 16.1444 17.1576H17.0723C17.5073 17.1576 17.8144 16.7305 17.6864 16.3166L17.0595 14.2724C16.925 13.8196 16.7033 13.8196 16.5626 14.2724Z" fill="#F1901C"/>
    <path d="M16.4295 14.0769L15.7607 16.121C15.6243 16.5416 15.9518 16.962 16.4158 16.962H17.4052C17.8692 16.962 18.1967 16.5351 18.0602 16.121L17.3915 14.0769C17.2482 13.6241 16.5796 13.6241 16.4295 14.0769Z" fill="#FFCC28"/>
    <path d="M16.4295 14.0769L15.7607 16.121C15.6243 16.5416 15.9518 16.962 16.4158 16.962H17.4052C17.8692 16.962 18.1967 16.5351 18.0602 16.121L17.3915 14.0769C17.2482 13.6241 16.5796 13.6241 16.4295 14.0769Z" fill="url(#paint69_linear_265_959)"/>
    <path d="M16.4295 14.0769L15.7607 16.121C15.6243 16.5416 15.9518 16.962 16.4158 16.962H17.4052C17.8692 16.962 18.1967 16.5351 18.0602 16.121L17.3915 14.0769C17.2482 13.6241 16.5796 13.6241 16.4295 14.0769Z" fill="url(#paint70_linear_265_959)"/>
    <path d="M16.4295 14.0769L15.7607 16.121C15.6243 16.5416 15.9518 16.962 16.4158 16.962H17.4052C17.8692 16.962 18.1967 16.5351 18.0602 16.121L17.3915 14.0769C17.2482 13.6241 16.5796 13.6241 16.4295 14.0769Z" fill="url(#paint71_linear_265_959)"/>
    <path d="M16.91 18.1857C16.2712 18.1857 15.6709 18.0421 15.1662 17.7907C14.9938 17.7069 14.8085 17.8925 14.9172 18.0421C15.3388 18.6527 16.0733 19.0597 16.91 19.0597C17.7467 19.0597 18.4813 18.6527 18.9028 18.0421C19.0114 17.8865 18.8261 17.7069 18.6537 17.7907C18.1491 18.0421 17.5551 18.1857 16.91 18.1857Z" stroke="url(#paint72_radial_265_959)" stroke-width="0.907828"/>
    <path d="M16.91 18.186C16.2712 18.186 15.6709 18.0423 15.1662 17.7909C14.9938 17.7071 14.8085 17.8927 14.9172 18.0424C15.3388 18.6529 16.0733 19.0599 16.91 19.0599C17.7467 19.0599 18.4813 18.6529 18.9028 18.0424C19.0114 17.8867 18.8261 17.7071 18.6537 17.7909C18.1491 18.0423 17.5551 18.186 16.91 18.186Z" fill="#8A004F"/>
    <path d="M19.9152 12.6977C20.737 12.6977 21.431 13.2391 21.6199 13.9707C21.6761 14.1805 21.5077 14.3805 21.2831 14.3805H18.476C18.2972 14.3805 18.1544 14.2244 18.1901 14.0537C18.3483 13.283 19.0578 12.6977 19.9152 12.6977Z" fill="white"/>
    <path d="M19.6552 13.0253C20.278 13.0253 20.7781 13.5082 20.7781 14.0984C20.7781 14.1959 20.7628 14.2935 20.7373 14.3813H18.5682C18.5426 14.2886 18.5273 14.1959 18.5273 14.0984C18.5273 13.5082 19.0326 13.0253 19.6552 13.0253Z" fill="url(#paint73_radial_265_959)"/>
    <path d="M19.0127 14.0985C19.0127 13.757 19.2985 13.4839 19.6558 13.4839C20.013 13.4839 20.2989 13.757 20.2989 14.0985C20.2989 14.2009 20.2733 14.2984 20.2274 14.3814H19.0892C19.0381 14.2984 19.0127 14.2009 19.0127 14.0985Z" fill="black"/>
    <path d="M19.5723 13.2526C19.6524 13.3548 19.4851 13.4795 19.295 13.6154C19.1049 13.7512 18.9639 13.8468 18.8838 13.7445C18.8038 13.6422 18.8932 13.4492 19.0833 13.3133C19.2734 13.1775 19.4924 13.1503 19.5723 13.2526Z" fill="#C7A7A3"/>
    <path d="M19.5723 13.2526C19.6524 13.3548 19.4851 13.4795 19.295 13.6154C19.1049 13.7512 18.9639 13.8468 18.8838 13.7445C18.8038 13.6422 18.8932 13.4492 19.0833 13.3133C19.2734 13.1775 19.4924 13.1503 19.5723 13.2526Z" fill="url(#paint74_radial_265_959)"/>
    <path d="M20.6551 13.9569C20.6136 13.6794 20.4437 13.4704 20.364 13.4005L20.0371 13.7435L20.1846 14.0179L20.6551 13.9569Z" fill="url(#paint75_linear_265_959)"/>
    <path d="M13.8973 12.6977C13.0755 12.6977 12.3813 13.2391 12.1925 13.9708C12.1364 14.1805 12.3048 14.3806 12.5294 14.3806H15.3366C15.5152 14.3806 15.6582 14.2245 15.6225 14.0537C15.4642 13.283 14.7496 12.6977 13.8973 12.6977Z" fill="white"/>
    <path d="M14.157 13.0253C13.5344 13.0253 13.0342 13.5082 13.0342 14.0985C13.0342 14.196 13.0494 14.2936 13.075 14.3813H15.2442C15.2698 14.2887 15.285 14.196 15.285 14.0985C15.2799 13.5082 14.7797 13.0253 14.157 13.0253Z" fill="url(#paint76_radial_265_959)"/>
    <path d="M14.8009 14.0985C14.8009 13.757 14.515 13.4839 14.1578 13.4839C13.8005 13.4839 13.5146 13.757 13.5146 14.0985C13.5146 14.2009 13.5402 14.2984 13.5862 14.3814H14.7244C14.7703 14.2984 14.8009 14.2009 14.8009 14.0985Z" fill="black"/>
    <path d="M15.1839 13.9733C15.1839 13.6265 14.8889 13.3954 14.8092 13.3255L14.4463 13.6609L14.6696 14.0953L15.1839 13.9733Z" fill="url(#paint77_linear_265_959)"/>
    <path d="M13.935 13.6931C14.1742 13.5719 14.3162 13.3799 14.252 13.2642C14.1879 13.1485 13.9419 13.1529 13.7027 13.274C13.4635 13.3952 13.3215 13.5871 13.3857 13.7029C13.4498 13.8186 13.6958 13.8142 13.935 13.6931Z" fill="#C7A7A3" fill-opacity="0.9"/>
    <path d="M13.935 13.6931C14.1742 13.5719 14.3162 13.3799 14.252 13.2642C14.1879 13.1485 13.9419 13.1529 13.7027 13.274C13.4635 13.3952 13.3215 13.5871 13.3857 13.7029C13.4498 13.8186 13.6958 13.8142 13.935 13.6931Z" fill="url(#paint78_radial_265_959)"/>
    <path fill-rule="evenodd" clip-rule="evenodd" d="M19.1517 11.34C20.0575 11.2591 20.6383 11.5969 20.7793 11.7209C21.0206 11.9336 21.3967 11.9189 21.6191 11.6882C21.8415 11.4575 21.8262 11.0981 21.5848 10.8855C21.1994 10.5461 20.2867 10.0975 19.041 10.2089C18.7142 10.2381 18.474 10.515 18.5046 10.8273C18.5351 11.1397 18.8249 11.3692 19.1517 11.34Z" fill="url(#paint79_radial_265_959)"/>
    <path d="M21.1814 11.1693C20.9183 10.9375 20.1714 10.5443 19.0957 10.6404" stroke="#D76D5B" stroke-width="1.13478" stroke-linecap="round"/>
    <path fill-rule="evenodd" clip-rule="evenodd" d="M14.6687 11.34C13.7628 11.2591 13.182 11.5969 13.0411 11.7209C12.7997 11.9336 12.4236 11.9189 12.2012 11.6882C11.9788 11.4575 11.9942 11.0981 12.2355 10.8855C12.6208 10.5461 13.5336 10.0975 14.7793 10.2089C15.1062 10.2381 15.3463 10.515 15.3157 10.8273C15.2852 11.1397 14.9955 11.3692 14.6687 11.34Z" fill="url(#paint80_radial_265_959)"/>
    <path d="M12.6387 11.1693C12.9018 10.9375 13.6486 10.5443 14.7243 10.6404" stroke="#D76D5B" stroke-width="1.13478" stroke-linecap="round"/>
    <path d="M9.94531 7.5081C9.94531 3.81827 13.0751 0.827057 16.936 0.827057C20.7969 0.827057 23.9268 3.81827 23.9268 7.5081V9.41563H9.94531V7.5081Z" fill="url(#paint81_radial_265_959)"/>
    <path d="M9.94531 7.5081C9.94531 3.81827 13.0751 0.827057 16.936 0.827057C20.7969 0.827057 23.9268 3.81827 23.9268 7.5081V9.41563H9.94531V7.5081Z" fill="url(#paint82_radial_265_959)"/>
    <path d="M9.94531 7.5081C9.94531 3.81827 13.0751 0.827057 16.936 0.827057C20.7969 0.827057 23.9268 3.81827 23.9268 7.5081V9.41563H9.94531V7.5081Z" fill="url(#paint83_radial_265_959)"/>
    <path d="M10.0038 6.64038C9.96541 6.92446 9.94531 7.21416 9.94531 7.50828V9.41581H23.9268V7.50828C23.9268 7.21416 23.9067 6.92446 23.8682 6.64038H10.0038Z" fill="url(#paint84_radial_265_959)"/>
    <path d="M10.0038 6.64038C9.96541 6.92446 9.94531 7.21416 9.94531 7.50828V9.41581H23.9268V7.50828C23.9268 7.21416 23.9067 6.92446 23.8682 6.64038H10.0038Z" fill="url(#paint85_linear_265_959)"/>
    <path d="M25.2595 8.17499H8.5821C7.99958 8.17499 7.52734 8.6263 7.52734 9.18302V9.18302C7.52734 9.73974 7.99958 10.1911 8.5821 10.1911H25.2595C25.8421 10.1911 26.3143 9.73974 26.3143 9.18302C26.3143 8.6263 25.8421 8.17499 25.2595 8.17499Z" fill="url(#paint86_radial_265_959)"/>
    <path d="M25.2595 8.17499H8.5821C7.99958 8.17499 7.52734 8.6263 7.52734 9.18302V9.18302C7.52734 9.73974 7.99958 10.1911 8.5821 10.1911H25.2595C25.8421 10.1911 26.3143 9.73974 26.3143 9.18302C26.3143 8.6263 25.8421 8.17499 25.2595 8.17499Z" fill="url(#paint87_radial_265_959)"/>
    <path d="M25.2595 8.17499H8.5821C7.99958 8.17499 7.52734 8.6263 7.52734 9.18302V9.18302C7.52734 9.73974 7.99958 10.1911 8.5821 10.1911H25.2595C25.8421 10.1911 26.3143 9.73974 26.3143 9.18302C26.3143 8.6263 25.8421 8.17499 25.2595 8.17499Z" fill="url(#paint88_linear_265_959)"/>
    <defs>
        <radialGradient id="paint0_radial_265_959" cx="0" cy="0" r="1" gradientUnits="userSpaceOnUse" gradientTransform="translate(28.0706 21.8734) rotate(136.517) scale(15.345 14.8516)">
            <stop offset="0.195375" stop-color="#FBF2F7"/>
            <stop offset="0.654795" stop-color="#D4C4DA"/>
        </radialGradient>
        <radialGradient id="paint1_radial_265_959" cx="0" cy="0" r="1" gradientUnits="userSpaceOnUse" gradientTransform="translate(7.48632 26.8639) scale(3.32982 7.1602)">
            <stop stop-color="#DED4E0"/>
            <stop offset="1" stop-color="#DED4E0" stop-opacity="0"/>
        </radialGradient>
        <radialGradient id="paint2_radial_265_959" cx="0" cy="0" r="1" gradientUnits="userSpaceOnUse" gradientTransform="translate(21.1083 20.7885) rotate(90) scale(2.4229 3.97308)">
            <stop stop-color="#EFD8D5"/>
            <stop offset="1" stop-color="#EFD8D5" stop-opacity="0"/>
        </radialGradient>
        <radialGradient id="paint3_radial_265_959" cx="0" cy="0" r="1" gradientUnits="userSpaceOnUse" gradientTransform="translate(22.0543 27.4786) rotate(180) scale(2.11898 13.5609)">
            <stop offset="0.214286" stop-color="#B1A0B8"/>
            <stop offset="1" stop-color="#D1BED4" stop-opacity="0"/>
        </radialGradient>
        <radialGradient id="paint4_radial_265_959" cx="0" cy="0" r="1" gradientUnits="userSpaceOnUse" gradientTransform="translate(10.7404 26.7915) rotate(180) scale(1.40004 6.66436)">
            <stop stop-color="#BEB4C6"/>
            <stop offset="1" stop-color="#BEB4C6" stop-opacity="0"/>
        </radialGradient>
        <radialGradient id="paint5_radial_265_959" cx="0" cy="0" r="1" gradientUnits="userSpaceOnUse" gradientTransform="translate(5.32929 11.1698) rotate(119.978) scale(3.25632 3.2285)">
            <stop offset="0.0770201" stop-color="#4BB8FB"/>
            <stop offset="1" stop-color="#357ACE"/>
        </radialGradient>
        <radialGradient id="paint6_radial_265_959" cx="0" cy="0" r="1" gradientUnits="userSpaceOnUse" gradientTransform="translate(5.40496 11.2421) rotate(116.158) scale(3.94831 3.54819)">
            <stop offset="0.451506" stop-color="#3A7AB4" stop-opacity="0"/>
            <stop offset="0.826267" stop-color="#5F679A"/>
        </radialGradient>
        <radialGradient id="paint7_radial_265_959" cx="0" cy="0" r="1" gradientUnits="userSpaceOnUse" gradientTransform="translate(8.85756 0.777491) rotate(119.978) scale(3.25632 3.2285)">
            <stop offset="0.0770201" stop-color="#FF894E"/>
            <stop offset="1" stop-color="#E35838"/>
        </radialGradient>
        <radialGradient id="paint8_radial_265_959" cx="0" cy="0" r="1" gradientUnits="userSpaceOnUse" gradientTransform="translate(8.93324 0.849816) rotate(116.158) scale(3.94831 3.54819)">
            <stop offset="0.451506" stop-color="#DE5534" stop-opacity="0"/>
            <stop offset="0.826267" stop-color="#B6424C"/>
        </radialGradient>
        <radialGradient id="paint9_radial_265_959" cx="0" cy="0" r="1" gradientUnits="userSpaceOnUse" gradientTransform="translate(28.1887 1.9526) rotate(119.978) scale(3.25632 3.2285)">
            <stop offset="0.0770201" stop-color="#9AE453"/>
            <stop offset="1" stop-color="#5C9946"/>
        </radialGradient>
        <radialGradient id="paint10_radial_265_959" cx="0" cy="0" r="1" gradientUnits="userSpaceOnUse" gradientTransform="translate(27.692 1.91191) rotate(105.693) scale(4.05678 4.10852)">
            <stop offset="0.37513" stop-color="#61A150" stop-opacity="0"/>
            <stop offset="0.826267" stop-color="#415E58"/>
        </radialGradient>
        <radialGradient id="paint11_radial_265_959" cx="0" cy="0" r="1" gradientUnits="userSpaceOnUse" gradientTransform="translate(29.4278 13.4752) rotate(119.978) scale(3.25633 3.22851)">
            <stop offset="0.0770201" stop-color="#FFFF54"/>
            <stop offset="1" stop-color="#E1AC3A"/>
        </radialGradient>
        <radialGradient id="paint12_radial_265_959" cx="0" cy="0" r="1" gradientUnits="userSpaceOnUse" gradientTransform="translate(26.8595 12.9417) rotate(45.8569) scale(1.73858 2.56643)">
            <stop stop-color="#B8A734"/>
            <stop offset="1" stop-color="#E4CC30" stop-opacity="0"/>
        </radialGradient>
        <radialGradient id="paint13_radial_265_959" cx="0" cy="0" r="1" gradientUnits="userSpaceOnUse" gradientTransform="translate(29.2055 13.5565) rotate(109.927) scale(4.02448 4.06051)">
            <stop offset="0.346841" stop-color="#F2C341" stop-opacity="0"/>
            <stop offset="0.829048" stop-color="#CF8B51"/>
        </radialGradient>
        <radialGradient id="paint14_radial_265_959" cx="0" cy="0" r="1" gradientUnits="userSpaceOnUse" gradientTransform="translate(17.5133 29.7172) rotate(124.806) scale(1.60755 1.38656)">
            <stop offset="0.212303" stop-color="#F0DFF0"/>
            <stop offset="1" stop-color="#DCC8EC"/>
        </radialGradient>
        <radialGradient id="paint15_radial_265_959" cx="0" cy="0" r="1" gradientUnits="userSpaceOnUse" gradientTransform="translate(17.5133 27.3888) rotate(124.806) scale(1.60755 1.38656)">
            <stop offset="0.212303" stop-color="#F0DFF0"/>
            <stop offset="1" stop-color="#DCC8EC"/>
        </radialGradient>
        <radialGradient id="paint16_radial_265_959" cx="0" cy="0" r="1" gradientUnits="userSpaceOnUse" gradientTransform="translate(23.5339 21.7655) rotate(90) scale(9.29379 2.90859)">
            <stop stop-color="#9E78C9"/>
            <stop offset="1" stop-color="#6F5EA2"/>
        </radialGradient>
        <linearGradient id="paint17_linear_265_959" x1="23.9461" y1="31.9996" x2="23.0379" y2="31.9996" gradientUnits="userSpaceOnUse">
            <stop stop-color="#7A6CAD"/>
            <stop offset="1" stop-color="#7A6CAD" stop-opacity="0"/>
        </linearGradient>
        <linearGradient id="paint18_linear_265_959" x1="21.623" y1="31.0594" x2="22.1298" y2="31.0594" gradientUnits="userSpaceOnUse">
            <stop stop-color="#6D5096"/>
            <stop offset="1" stop-color="#7160A4" stop-opacity="0"/>
        </linearGradient>
        <radialGradient id="paint19_radial_265_959" cx="0" cy="0" r="1" gradientUnits="userSpaceOnUse" gradientTransform="translate(12.194 24.2613) rotate(90) scale(7.1602 1.68087)">
            <stop stop-color="#8566B5"/>
            <stop offset="1" stop-color="#7060A5"/>
        </radialGradient>
        <radialGradient id="paint20_radial_265_959" cx="0" cy="0" r="1" gradientUnits="userSpaceOnUse" gradientTransform="translate(12.443 25.3824) rotate(90) scale(6.07532 0.737858)">
            <stop stop-color="#896BB4"/>
            <stop offset="1" stop-color="#896BB4" stop-opacity="0"/>
        </radialGradient>
        <radialGradient id="paint21_radial_265_959" cx="0" cy="0" r="1" gradientUnits="userSpaceOnUse" gradientTransform="translate(9.11316 30.192) rotate(-68.9559) scale(9.90532 9.05951)">
            <stop offset="0.723885" stop-color="#775184" stop-opacity="0"/>
            <stop offset="1" stop-color="#775184"/>
        </radialGradient>
        <radialGradient id="paint22_radial_265_959" cx="0" cy="0" r="1" gradientUnits="userSpaceOnUse" gradientTransform="translate(12.194 22.6159) rotate(90) scale(7.43142 0.224078)">
            <stop stop-color="#784B89"/>
            <stop offset="1" stop-color="#784B89" stop-opacity="0"/>
        </radialGradient>
        <radialGradient id="paint23_radial_265_959" cx="0" cy="0" r="1" gradientUnits="userSpaceOnUse" gradientTransform="translate(20.3135 21.5479) rotate(149.27) scale(5.50245 9.50807)">
            <stop stop-color="#F8E6E8"/>
            <stop offset="1" stop-color="#DABDC3"/>
        </radialGradient>
        <radialGradient id="paint24_radial_265_959" cx="0" cy="0" r="1" gradientUnits="userSpaceOnUse" gradientTransform="translate(20.219 23.5007) rotate(-165.703) scale(0.585726 2.4632)">
            <stop offset="0.107884" stop-color="#DBCDD4"/>
            <stop offset="1" stop-color="#DBCDD4" stop-opacity="0"/>
        </radialGradient>
        <linearGradient id="paint25_linear_265_959" x1="8.16783" y1="29.2513" x2="2.56768" y2="29.2513" gradientUnits="userSpaceOnUse">
            <stop stop-color="#ECE4F4"/>
            <stop offset="1" stop-color="#C0B5CD"/>
        </linearGradient>
        <linearGradient id="paint26_linear_265_959" x1="8.4327" y1="28.8173" x2="7.31645" y2="28.8173" gradientUnits="userSpaceOnUse">
            <stop stop-color="#DECFD8"/>
            <stop offset="1" stop-color="#E5DDEE" stop-opacity="0"/>
        </linearGradient>
        <linearGradient id="paint27_linear_265_959" x1="30.3739" y1="30.0503" x2="24.2865" y2="30.0503" gradientUnits="userSpaceOnUse">
            <stop stop-color="#EDE7F3"/>
            <stop offset="0.90676" stop-color="#B9AAC8"/>
        </linearGradient>
        <linearGradient id="paint28_linear_265_959" x1="30.6388" y1="29.7424" x2="29.5225" y2="29.7424" gradientUnits="userSpaceOnUse">
            <stop stop-color="#E0DDE3"/>
            <stop offset="1" stop-color="#E0DDE3" stop-opacity="0"/>
        </linearGradient>
        <radialGradient id="paint29_radial_265_959" cx="0" cy="0" r="1" gradientUnits="userSpaceOnUse" gradientTransform="translate(13.3062 24.5144) rotate(36.4761) scale(2.61831 2.84033)">
            <stop stop-color="#E7377C"/>
            <stop offset="1" stop-color="#D72C5E"/>
        </radialGradient>
        <radialGradient id="paint30_radial_265_959" cx="0" cy="0" r="1" gradientUnits="userSpaceOnUse" gradientTransform="translate(15.2925 25.0668) rotate(-164.888) scale(2.11909 3.39251)">
            <stop offset="0.690378" stop-color="#EF4C8B" stop-opacity="0"/>
            <stop offset="1" stop-color="#EF4C8B"/>
        </radialGradient>
        <radialGradient id="paint31_radial_265_959" cx="0" cy="0" r="1" gradientUnits="userSpaceOnUse" gradientTransform="translate(16.1322 25.0668) rotate(108.272) scale(1.93104 0.948872)">
            <stop stop-color="#D61F4D"/>
            <stop offset="1" stop-color="#D61F4D" stop-opacity="0"/>
        </radialGradient>
        <radialGradient id="paint32_radial_265_959" cx="0" cy="0" r="1" gradientUnits="userSpaceOnUse" gradientTransform="translate(20.5666 24.5144) rotate(143.524) scale(2.61831 2.84033)">
            <stop stop-color="#E9387A"/>
            <stop offset="1" stop-color="#D02759"/>
        </radialGradient>
        <radialGradient id="paint33_radial_265_959" cx="0" cy="0" r="1" gradientUnits="userSpaceOnUse" gradientTransform="translate(18.5803 25.0668) rotate(-15.1117) scale(2.11909 3.39251)">
            <stop offset="0.690378" stop-color="#EF4C8B" stop-opacity="0"/>
            <stop offset="1" stop-color="#EF4C8B"/>
        </radialGradient>
        <linearGradient id="paint34_linear_265_959" x1="16.924" y1="23.8834" x2="16.924" y2="26.196" gradientUnits="userSpaceOnUse">
            <stop offset="0.351052" stop-color="#EB3782"/>
            <stop offset="1" stop-color="#C93857"/>
        </linearGradient>
        <radialGradient id="paint35_radial_265_959" cx="0" cy="0" r="1" gradientUnits="userSpaceOnUse" gradientTransform="translate(17.8645 24.7857) rotate(180) scale(0.473872 3.00039)">
            <stop stop-color="#EC4182"/>
            <stop offset="1" stop-color="#EC4182" stop-opacity="0"/>
        </radialGradient>
        <radialGradient id="paint36_radial_265_959" cx="0" cy="0" r="1" gradientUnits="userSpaceOnUse" gradientTransform="translate(30.6439 23.4703) rotate(162.533) scale(5.55351 5.16275)">
            <stop offset="0.240534" stop-color="#FFDA02"/>
            <stop offset="0.8986" stop-color="#FFC12E"/>
        </radialGradient>
        <radialGradient id="paint37_radial_265_959" cx="0" cy="0" r="1" gradientUnits="userSpaceOnUse" gradientTransform="translate(29.2392 22.8712) rotate(163.8) scale(4.70694 15.665)">
            <stop offset="0.69937" stop-color="#EDA628" stop-opacity="0"/>
            <stop offset="1" stop-color="#D1923D"/>
        </radialGradient>
        <radialGradient id="paint38_radial_265_959" cx="0" cy="0" r="1" gradientUnits="userSpaceOnUse" gradientTransform="translate(7.35365 18.0049) rotate(141.243) scale(1.81962 4.28744)">
            <stop offset="0.129143" stop-color="#FFCE38"/>
            <stop offset="1" stop-color="#F5A913"/>
        </radialGradient>
        <radialGradient id="paint39_radial_265_959" cx="0" cy="0" r="1" gradientUnits="userSpaceOnUse" gradientTransform="translate(4.42633 17.797) rotate(123.148) scale(1.75791 3.43014)">
            <stop stop-color="#FFDD43"/>
            <stop offset="1" stop-color="#FAB32C"/>
        </radialGradient>
        <radialGradient id="paint40_radial_265_959" cx="0" cy="0" r="1" gradientUnits="userSpaceOnUse" gradientTransform="translate(5.07461 17.4894) rotate(107.073) scale(3.01224 4.81079)">
            <stop offset="0.630198" stop-color="#EFA929" stop-opacity="0"/>
            <stop offset="1" stop-color="#C3863F"/>
        </radialGradient>
        <radialGradient id="paint41_radial_265_959" cx="0" cy="0" r="1" gradientUnits="userSpaceOnUse" gradientTransform="translate(2.76057 18.2824) rotate(117.655) scale(1.85294 3.24683)">
            <stop stop-color="#FFDD43"/>
            <stop offset="1" stop-color="#FAB32C"/>
        </radialGradient>
        <radialGradient id="paint42_radial_265_959" cx="0" cy="0" r="1" gradientUnits="userSpaceOnUse" gradientTransform="translate(3.34061 17.9394) rotate(103.843) scale(3.30703 4.37204)">
            <stop offset="0.630198" stop-color="#EFA929" stop-opacity="0"/>
            <stop offset="1" stop-color="#C3863F"/>
        </radialGradient>
        <radialGradient id="paint43_radial_265_959" cx="0" cy="0" r="1" gradientUnits="userSpaceOnUse" gradientTransform="translate(2.60644 19.4101) rotate(120.364) scale(1.64009 3.04877)">
            <stop stop-color="#FFDD43"/>
            <stop offset="1" stop-color="#FAB32C"/>
        </radialGradient>
        <radialGradient id="paint44_radial_265_959" cx="0" cy="0" r="1" gradientUnits="userSpaceOnUse" gradientTransform="translate(3.16556 19.1144) rotate(105.403) scale(2.87171 4.18457)">
            <stop offset="0.630198" stop-color="#EFA929" stop-opacity="0"/>
            <stop offset="1" stop-color="#C3863F"/>
        </radialGradient>
        <radialGradient id="paint45_radial_265_959" cx="0" cy="0" r="1" gradientUnits="userSpaceOnUse" gradientTransform="translate(2.96489 20.5717) rotate(123.883) scale(1.45926 2.8785)">
            <stop stop-color="#FFDD43"/>
            <stop offset="1" stop-color="#FAB32C"/>
        </radialGradient>
        <radialGradient id="paint46_radial_265_959" cx="0" cy="0" r="1" gradientUnits="userSpaceOnUse" gradientTransform="translate(3.51356 20.3187) rotate(107.526) scale(2.48547 4.06155)">
            <stop offset="0.630198" stop-color="#EFA929" stop-opacity="0"/>
            <stop offset="1" stop-color="#C3863F"/>
        </radialGradient>
        <radialGradient id="paint47_radial_265_959" cx="0" cy="0" r="1" gradientUnits="userSpaceOnUse" gradientTransform="translate(8.14464 22.687) rotate(-162.76) scale(4.45342 5.9295)">
            <stop stop-color="#FFE23D"/>
            <stop offset="1" stop-color="#FFBD23"/>
        </radialGradient>
        <radialGradient id="paint48_radial_265_959" cx="0" cy="0" r="1" gradientUnits="userSpaceOnUse" gradientTransform="translate(4.08051 22.687) rotate(-84.3625) scale(0.962968 4.72723)">
            <stop stop-color="#D2991F"/>
            <stop offset="1" stop-color="#F7B528" stop-opacity="0"/>
        </radialGradient>
        <radialGradient id="paint49_radial_265_959" cx="0" cy="0" r="1" gradientUnits="userSpaceOnUse" gradientTransform="translate(16.0381 21.0781) rotate(50.385) scale(3.14521 3.6209)">
            <stop offset="0.228556" stop-color="#D27429"/>
            <stop offset="1" stop-color="#E69530"/>
        </radialGradient>
        <radialGradient id="paint50_radial_265_959" cx="0" cy="0" r="1" gradientUnits="userSpaceOnUse" gradientTransform="translate(29.4658 21.077) rotate(167.96) scale(3.26309 33.7968)">
            <stop stop-color="#FFD709"/>
            <stop offset="1" stop-color="#FFC32B"/>
        </radialGradient>
        <radialGradient id="paint51_radial_265_959" cx="0" cy="0" r="1" gradientUnits="userSpaceOnUse" gradientTransform="translate(8.83104 14.4189) scale(2.20916 3.69479)">
            <stop offset="0.350532" stop-color="#E6962B"/>
            <stop offset="1" stop-color="#CA8F29"/>
        </radialGradient>
        <linearGradient id="paint52_linear_265_959" x1="10.9328" y1="14.7538" x2="10.1267" y2="14.7538" gradientUnits="userSpaceOnUse">
            <stop stop-color="#BD6A1E"/>
            <stop offset="1" stop-color="#D77A1C"/>
        </linearGradient>
        <linearGradient id="paint53_linear_265_959" x1="24.2769" y1="13.1062" x2="23.3278" y2="16.1828" gradientUnits="userSpaceOnUse">
            <stop stop-color="#FFE446"/>
            <stop offset="1" stop-color="#FFC339"/>
        </linearGradient>
        <radialGradient id="paint54_radial_265_959" cx="0" cy="0" r="1" gradientUnits="userSpaceOnUse" gradientTransform="translate(23.3776 14.1008) rotate(-34.834) scale(1.26792 1.42586)">
            <stop offset="0.542503" stop-color="#FFC532"/>
            <stop offset="1" stop-color="#FFC532" stop-opacity="0"/>
        </radialGradient>
        <radialGradient id="paint55_radial_265_959" cx="0" cy="0" r="1" gradientUnits="userSpaceOnUse" gradientTransform="translate(22.8563 15.4064) rotate(-60.3648) scale(2.09012 1.25295)">
            <stop offset="0.689542" stop-color="#F4A51A" stop-opacity="0"/>
            <stop offset="1" stop-color="#F4A51A"/>
        </radialGradient>
        <radialGradient id="paint56_radial_265_959" cx="0" cy="0" r="1" gradientUnits="userSpaceOnUse" gradientTransform="translate(22.9084 14.4186) rotate(43.4105) scale(0.449173 0.578186)">
            <stop stop-color="#E59B1F"/>
            <stop offset="1" stop-color="#E59B1F" stop-opacity="0"/>
        </radialGradient>
        <linearGradient id="paint57_linear_265_959" x1="21.9911" y1="14.8887" x2="12.397" y2="16.3845" gradientUnits="userSpaceOnUse">
            <stop stop-color="#FFE833"/>
            <stop offset="0.91602" stop-color="#F9A528"/>
        </linearGradient>
        <linearGradient id="paint58_linear_265_959" x1="10.1176" y1="18.1322" x2="13.0242" y2="17.7355" gradientUnits="userSpaceOnUse">
            <stop stop-color="#D19C3A"/>
            <stop offset="1" stop-color="#D19C3A" stop-opacity="0"/>
        </linearGradient>
        <radialGradient id="paint59_radial_265_959" cx="0" cy="0" r="1" gradientUnits="userSpaceOnUse" gradientTransform="translate(17.5282 12.5059) rotate(90) scale(10.3295 12.341)">
            <stop offset="0.526117" stop-color="#FFA63F" stop-opacity="0"/>
            <stop offset="0.925308" stop-color="#D4783E"/>
        </radialGradient>
        <radialGradient id="paint60_radial_265_959" cx="0" cy="0" r="1" gradientUnits="userSpaceOnUse" gradientTransform="translate(19.8638 12.8903) rotate(-90) scale(1.57257 2.02518)">
            <stop stop-color="#FFBA0D"/>
            <stop offset="1" stop-color="#FFBA0D" stop-opacity="0"/>
        </radialGradient>
        <radialGradient id="paint61_radial_265_959" cx="0" cy="0" r="1" gradientUnits="userSpaceOnUse" gradientTransform="translate(14.1257 12.85) rotate(-90) scale(1.67337 2.17745)">
            <stop stop-color="#EE911A"/>
            <stop offset="1" stop-color="#EE911A" stop-opacity="0"/>
        </radialGradient>
        <linearGradient id="paint62_linear_265_959" x1="16.9466" y1="9.21732" x2="16.9466" y2="11.821" gradientUnits="userSpaceOnUse">
            <stop offset="0.236111" stop-color="#D98827"/>
            <stop offset="1" stop-color="#F5A624" stop-opacity="0"/>
        </linearGradient>
        <radialGradient id="paint63_radial_265_959" cx="0" cy="0" r="1" gradientUnits="userSpaceOnUse" gradientTransform="translate(21.5583 5.13918) rotate(129.071) scale(6.86402 11.7936)">
            <stop stop-color="#FFE336"/>
            <stop offset="1" stop-color="#FFE336" stop-opacity="0"/>
        </radialGradient>
        <linearGradient id="paint64_linear_265_959" x1="10.7907" y1="14.0974" x2="14.1985" y2="7.76351" gradientUnits="userSpaceOnUse">
            <stop stop-color="#E07027"/>
            <stop offset="1" stop-color="#E07027" stop-opacity="0"/>
        </linearGradient>
        <radialGradient id="paint65_radial_265_959" cx="0" cy="0" r="1" gradientUnits="userSpaceOnUse" gradientTransform="translate(11.7033 10.0416) rotate(-95.5338) scale(2.40844 1.23667)">
            <stop offset="0.22158" stop-color="#FFB42C"/>
            <stop offset="1" stop-color="#FFB42C" stop-opacity="0"/>
        </radialGradient>
        <radialGradient id="paint66_radial_265_959" cx="0" cy="0" r="1" gradientUnits="userSpaceOnUse" gradientTransform="translate(22.2311 12.3287) rotate(-65.4327) scale(2.60139 2.18674)">
            <stop offset="0.478737" stop-color="#E57D1C"/>
            <stop offset="1" stop-color="#E57D1C" stop-opacity="0"/>
        </radialGradient>
        <radialGradient id="paint67_radial_265_959" cx="0" cy="0" r="1" gradientUnits="userSpaceOnUse" gradientTransform="translate(15.9341 4.07057) rotate(49.8598) scale(1.93869 1.72658)">
            <stop stop-color="#FFCE2C"/>
            <stop offset="1" stop-color="#FFCE2C" stop-opacity="0"/>
        </radialGradient>
        <radialGradient id="paint68_radial_265_959" cx="0" cy="0" r="1" gradientUnits="userSpaceOnUse" gradientTransform="translate(22.1831 9.34267) rotate(-63.4284) scale(4.08354 1.45072)">
            <stop stop-color="#FFD93A"/>
            <stop offset="1" stop-color="#FFD93A" stop-opacity="0"/>
        </radialGradient>
        <linearGradient id="paint69_linear_265_959" x1="15.823" y1="15.6814" x2="17.0037" y2="15.6814" gradientUnits="userSpaceOnUse">
            <stop stop-color="#FAA416"/>
            <stop offset="1" stop-color="#FAA416" stop-opacity="0"/>
        </linearGradient>
        <linearGradient id="paint70_linear_265_959" x1="18.0915" y1="16.0692" x2="16.8007" y2="16.0499" gradientUnits="userSpaceOnUse">
            <stop stop-color="#FFE721"/>
            <stop offset="1" stop-color="#FFE721" stop-opacity="0"/>
        </linearGradient>
        <linearGradient id="paint71_linear_265_959" x1="17.1553" y1="16.962" x2="17.1553" y2="16.2729" gradientUnits="userSpaceOnUse">
            <stop stop-color="#EB8A1C"/>
            <stop offset="1" stop-color="#EB8A1C" stop-opacity="0"/>
        </linearGradient>
        <radialGradient id="paint72_radial_265_959" cx="0" cy="0" r="1" gradientUnits="userSpaceOnUse" gradientTransform="translate(16.8034 19.247) rotate(-87.6503) scale(0.755314 2.37062)">
            <stop stop-color="#FFD069"/>
            <stop offset="1" stop-color="#FFBE30" stop-opacity="0"/>
        </radialGradient>
        <radialGradient id="paint73_radial_265_959" cx="0" cy="0" r="1" gradientUnits="userSpaceOnUse" gradientTransform="translate(19.6527 14) rotate(90) scale(1.08623 1.34486)">
            <stop offset="0.75" stop-color="#925C51"/>
            <stop offset="1" stop-color="#85534D"/>
        </radialGradient>
        <radialGradient id="paint74_radial_265_959" cx="0" cy="0" r="1" gradientUnits="userSpaceOnUse" gradientTransform="translate(19.3653 13.7004) rotate(-129.076) scale(0.462899 0.643886)">
            <stop offset="0.765532" stop-color="#FFE6E2" stop-opacity="0"/>
            <stop offset="0.966159" stop-color="#FFE6E2"/>
        </radialGradient>
        <linearGradient id="paint75_linear_265_959" x1="20.6311" y1="13.6634" x2="20.2465" y2="13.9115" gradientUnits="userSpaceOnUse">
            <stop stop-color="#B4948D"/>
            <stop offset="1" stop-color="#B4948D" stop-opacity="0"/>
        </linearGradient>
        <radialGradient id="paint76_radial_265_959" cx="0" cy="0" r="1" gradientUnits="userSpaceOnUse" gradientTransform="translate(14.1595 14.0001) rotate(90) scale(1.08628 1.34493)">
            <stop offset="0.75" stop-color="#925C51"/>
            <stop offset="1" stop-color="#85534D"/>
        </radialGradient>
        <linearGradient id="paint77_linear_265_959" x1="15.0965" y1="13.6647" x2="14.7118" y2="13.9128" gradientUnits="userSpaceOnUse">
            <stop stop-color="#B4948D"/>
            <stop offset="1" stop-color="#B4948D" stop-opacity="0"/>
        </linearGradient>
        <radialGradient id="paint78_radial_265_959" cx="0" cy="0" r="1" gradientUnits="userSpaceOnUse" gradientTransform="translate(13.9875 13.8266) rotate(-119.92) scale(0.600681 0.739226)">
            <stop offset="0.765532" stop-color="#FFE6E2" stop-opacity="0"/>
            <stop offset="0.966159" stop-color="#FFE6E2"/>
        </radialGradient>
        <radialGradient id="paint79_radial_265_959" cx="0" cy="0" r="1" gradientUnits="userSpaceOnUse" gradientTransform="translate(19.9965 11.3476) rotate(-75.7665) scale(1.00723 2.30002)">
            <stop offset="0.656765" stop-color="#C64F38"/>
            <stop offset="1" stop-color="#BB4F29"/>
        </radialGradient>
        <radialGradient id="paint80_radial_265_959" cx="0" cy="0" r="1" gradientUnits="userSpaceOnUse" gradientTransform="translate(13.8239 11.3476) rotate(-104.234) scale(1.00723 2.30002)">
            <stop offset="0.656765" stop-color="#C64F38"/>
            <stop offset="1" stop-color="#BB4F29"/>
        </radialGradient>
        <radialGradient id="paint81_radial_265_959" cx="0" cy="0" r="1" gradientUnits="userSpaceOnUse" gradientTransform="translate(21.7131 2.77984) rotate(144.368) scale(8.1937 7.08349)">
            <stop offset="0.179091" stop-color="#5E5764"/>
            <stop offset="1" stop-color="#372F3C"/>
        </radialGradient>
        <radialGradient id="paint82_radial_265_959" cx="0" cy="0" r="1" gradientUnits="userSpaceOnUse" gradientTransform="translate(9.68038 6.3961) rotate(7.10564) scale(3.50811 5.22368)">
            <stop stop-color="#5B5A5D"/>
            <stop offset="1" stop-color="#38303E" stop-opacity="0"/>
        </radialGradient>
        <radialGradient id="paint83_radial_265_959" cx="0" cy="0" r="1" gradientUnits="userSpaceOnUse" gradientTransform="translate(16.936 7.11935) rotate(-90) scale(6.79857 9.73404)">
            <stop offset="0.760638" stop-color="#5D5565" stop-opacity="0"/>
            <stop offset="1" stop-color="#5D5565"/>
        </radialGradient>
        <radialGradient id="paint84_radial_265_959" cx="0" cy="0" r="1" gradientUnits="userSpaceOnUse" gradientTransform="translate(18.9131 6.64038) rotate(90) scale(1.70868 10.0273)">
            <stop stop-color="#9072CA"/>
            <stop offset="1" stop-color="#634D93"/>
        </radialGradient>
        <linearGradient id="paint85_linear_265_959" x1="16.936" y1="6.64038" x2="16.936" y2="6.85736" gradientUnits="userSpaceOnUse">
            <stop stop-color="#745BA5"/>
            <stop offset="1" stop-color="#745BA5" stop-opacity="0"/>
        </linearGradient>
        <radialGradient id="paint86_radial_265_959" cx="0" cy="0" r="1" gradientUnits="userSpaceOnUse" gradientTransform="translate(22.3791 8.90729) rotate(180) scale(8.70294 0.732294)">
            <stop stop-color="#605966"/>
            <stop offset="1" stop-color="#392F42"/>
        </radialGradient>
        <radialGradient id="paint87_radial_265_959" cx="0" cy="0" r="1" gradientUnits="userSpaceOnUse" gradientTransform="translate(7.52734 9.18304) scale(4.21904 2.32797)">
            <stop stop-color="#5B595E"/>
            <stop offset="1" stop-color="#3E3843" stop-opacity="0"/>
        </radialGradient>
        <linearGradient id="paint88_linear_265_959" x1="18.3681" y1="10.1911" x2="18.3681" y2="9.30512" gradientUnits="userSpaceOnUse">
            <stop stop-color="#543459"/>
            <stop offset="1" stop-color="#462F5A" stop-opacity="0"/>
        </linearGradient>
    </defs>
</svg>
