<svg width="16" height="16" viewBox="0 0 16 16" fill="none" xmlns="http://www.w3.org/2000/svg">
    <path d="M2.16667 13.8327H3.33334L10.5208 6.64518L9.35417 5.47852L2.16667 12.666V13.8327ZM14.0833 5.43685L10.5417 1.93685L11.7083 0.770182C12.0278 0.450738 12.4203 0.291016 12.8858 0.291016C13.3514 0.291016 13.7436 0.450738 14.0625 0.770182L15.2292 1.93685C15.5486 2.25629 15.7153 2.64185 15.7292 3.09352C15.7431 3.54518 15.5903 3.93046 15.2708 4.24935L14.0833 5.43685ZM1.33334 15.4993C1.09723 15.4993 0.89917 15.4193 0.73917 15.2593C0.57917 15.0993 0.499447 14.9016 0.500003 14.666V12.3118C0.500003 12.2007 0.520836 12.093 0.562503 11.9885C0.60417 11.8841 0.66667 11.7905 0.750003 11.7077L9.33334 3.12435L12.875 6.66602L4.29167 15.2493C4.20834 15.3327 4.11473 15.3952 4.01084 15.4368C3.90695 15.4785 3.79917 15.4993 3.6875 15.4993H1.33334ZM9.9375 6.06185L9.35417 5.47852L10.5208 6.64518L9.9375 6.06185Z" fill="#6D5C70"/>
</svg>
