<svg width="16" height="20" viewBox="0 0 16 20" fill="none" xmlns="http://www.w3.org/2000/svg">
    <path d="M6 14.0004H10C10.2833 14.0004 10.521 13.9044 10.713 13.7124C10.905 13.5204 11.0007 13.2831 11 13.0004V10.0004C11 9.71706 10.904 9.47939 10.712 9.28739C10.52 9.09539 10.2827 8.99972 10 9.00039V8.00039C10 7.45039 9.804 6.97939 9.412 6.58739C9.02 6.19539 8.54933 5.99972 8 6.00039C7.45 6.00039 6.979 6.19639 6.587 6.58839C6.195 6.98039 5.99933 7.45106 6 8.00039V9.00039C5.71667 9.00039 5.479 9.09639 5.287 9.28839C5.095 9.48039 4.99933 9.71772 5 10.0004V13.0004C5 13.2837 5.096 13.5214 5.288 13.7134C5.48 13.9054 5.71733 14.0011 6 14.0004ZM7 9.00039V8.00039C7 7.71706 7.096 7.47939 7.288 7.28739C7.48 7.09539 7.71733 6.99972 8 7.00039C8.28333 7.00039 8.521 7.09639 8.713 7.28839C8.905 7.48039 9.00067 7.71772 9 8.00039V9.00039H7ZM8 19.9004C7.88333 19.9004 7.775 19.8921 7.675 19.8754C7.575 19.8587 7.475 19.8337 7.375 19.8004C5.125 19.0504 3.33333 17.6627 2 15.6374C0.666667 13.6121 0 11.4331 0 9.10039V4.37539C0 3.95872 0.121 3.58372 0.363 3.25039C0.605 2.91706 0.917333 2.67539 1.3 2.52539L7.3 0.275391C7.53333 0.192057 7.76667 0.150391 8 0.150391C8.23333 0.150391 8.46667 0.192057 8.7 0.275391L14.7 2.52539C15.0833 2.67539 15.396 2.91706 15.638 3.25039C15.88 3.58372 16.0007 3.95872 16 4.37539V9.10039C16 11.4337 15.3333 13.6131 14 15.6384C12.6667 17.6637 10.875 19.0511 8.625 19.8004C8.525 19.8337 8.425 19.8587 8.325 19.8754C8.225 19.8921 8.11667 19.9004 8 19.9004Z" fill="#17B22B"/>
</svg>
