<svg width="33" height="32" viewBox="0 0 33 32" fill="none" xmlns="http://www.w3.org/2000/svg">
    <path d="M8.89124 2.00109C8.89124 0.903359 7.9997 0 6.91632 0C5.83294 0 4.94141 0.903359 4.94141 2.00109C4.94141 2.6717 5.26618 3.26206 5.76311 3.6242C5.94 3.75312 6.06993 3.94851 6.06993 4.16932V7.83282H7.76271V4.16932C7.76271 3.94851 7.89264 3.75312 8.06955 3.6242C8.56646 3.26206 8.89124 2.6717 8.89124 2.00109Z" fill="url(#paint0_radial_265_880)"/>
    <path d="M8.89124 2.00109C8.89124 0.903359 7.9997 0 6.91632 0C5.83294 0 4.94141 0.903359 4.94141 2.00109C4.94141 2.6717 5.26618 3.26206 5.76311 3.6242C5.94 3.75312 6.06993 3.94851 6.06993 4.16932V7.83282H7.76271V4.16932C7.76271 3.94851 7.89264 3.75312 8.06955 3.6242C8.56646 3.26206 8.89124 2.6717 8.89124 2.00109Z" fill="url(#paint1_radial_265_880)"/>
    <path d="M8.89124 2.00109C8.89124 0.903359 7.9997 0 6.91632 0C5.83294 0 4.94141 0.903359 4.94141 2.00109C4.94141 2.6717 5.26618 3.26206 5.76311 3.6242C5.94 3.75312 6.06993 3.94851 6.06993 4.16932V7.83282H7.76271V4.16932C7.76271 3.94851 7.89264 3.75312 8.06955 3.6242C8.56646 3.26206 8.89124 2.6717 8.89124 2.00109Z" fill="url(#paint2_radial_265_880)"/>
    <path d="M8.89124 2.00109C8.89124 0.903359 7.9997 0 6.91632 0C5.83294 0 4.94141 0.903359 4.94141 2.00109C4.94141 2.6717 5.26618 3.26206 5.76311 3.6242C5.94 3.75312 6.06993 3.94851 6.06993 4.16932V7.83282H7.76271V4.16932C7.76271 3.94851 7.89264 3.75312 8.06955 3.6242C8.56646 3.26206 8.89124 2.6717 8.89124 2.00109Z" fill="url(#paint3_radial_265_880)"/>
    <path d="M2.7464 0C1.66302 0 0.771484 0.903359 0.771484 2.00109C0.771484 2.6717 1.09626 3.26206 1.59317 3.6242C1.77008 3.75312 1.90001 3.94851 1.90001 4.16932V7.83282H3.59279V4.16932C3.59279 3.94851 3.72272 3.75312 3.89963 3.6242C4.39654 3.26206 4.72131 2.6717 4.72131 2.00109C4.72131 0.903359 3.82978 0 2.7464 0Z" fill="url(#paint4_radial_265_880)"/>
    <path d="M2.7464 0C1.66302 0 0.771484 0.903359 0.771484 2.00109C0.771484 2.6717 1.09626 3.26206 1.59317 3.6242C1.77008 3.75312 1.90001 3.94851 1.90001 4.16932V7.83282H3.59279V4.16932C3.59279 3.94851 3.72272 3.75312 3.89963 3.6242C4.39654 3.26206 4.72131 2.6717 4.72131 2.00109C4.72131 0.903359 3.82978 0 2.7464 0Z" fill="url(#paint5_radial_265_880)"/>
    <path d="M2.7464 0C1.66302 0 0.771484 0.903359 0.771484 2.00109C0.771484 2.6717 1.09626 3.26206 1.59317 3.6242C1.77008 3.75312 1.90001 3.94851 1.90001 4.16932V7.83282H3.59279V4.16932C3.59279 3.94851 3.72272 3.75312 3.89963 3.6242C4.39654 3.26206 4.72131 2.6717 4.72131 2.00109C4.72131 0.903359 3.82978 0 2.7464 0Z" fill="url(#paint6_radial_265_880)"/>
    <path d="M2.7464 0C1.66302 0 0.771484 0.903359 0.771484 2.00109C0.771484 2.6717 1.09626 3.26206 1.59317 3.6242C1.77008 3.75312 1.90001 3.94851 1.90001 4.16932V7.83282H3.59279V4.16932C3.59279 3.94851 3.72272 3.75312 3.89963 3.6242C4.39654 3.26206 4.72131 2.6717 4.72131 2.00109C4.72131 0.903359 3.82978 0 2.7464 0Z" fill="url(#paint7_radial_265_880)"/>
    <path d="M2.7464 0C1.66302 0 0.771484 0.903359 0.771484 2.00109C0.771484 2.6717 1.09626 3.26206 1.59317 3.6242C1.77008 3.75312 1.90001 3.94851 1.90001 4.16932V7.83282H3.59279V4.16932C3.59279 3.94851 3.72272 3.75312 3.89963 3.6242C4.39654 3.26206 4.72131 2.6717 4.72131 2.00109C4.72131 0.903359 3.82978 0 2.7464 0Z" fill="url(#paint8_linear_265_880)"/>
    <path d="M2.74609 3.91656H3.27509V7.27195H2.74609V3.91656Z" fill="url(#paint9_linear_265_880)"/>
    <path d="M6.91699 3.91656H7.44599V7.27195H6.91699V3.91656Z" fill="url(#paint10_linear_265_880)"/>
    <path d="M6.91693 2.68856C7.33813 2.68856 7.67957 2.34259 7.67957 1.91582C7.67957 1.48904 7.33813 1.14307 6.91693 1.14307C6.49574 1.14307 6.1543 1.48904 6.1543 1.91582C6.1543 2.34259 6.49574 2.68856 6.91693 2.68856Z" fill="url(#paint11_radial_265_880)"/>
    <path d="M6.91693 2.68856C7.33813 2.68856 7.67957 2.34259 7.67957 1.91582C7.67957 1.48904 7.33813 1.14307 6.91693 1.14307C6.49574 1.14307 6.1543 1.48904 6.1543 1.91582C6.1543 2.34259 6.49574 2.68856 6.91693 2.68856Z" fill="url(#paint12_radial_265_880)"/>
    <path d="M6.91693 2.68856C7.33813 2.68856 7.67957 2.34259 7.67957 1.91582C7.67957 1.48904 7.33813 1.14307 6.91693 1.14307C6.49574 1.14307 6.1543 1.48904 6.1543 1.91582C6.1543 2.34259 6.49574 2.68856 6.91693 2.68856Z" fill="url(#paint13_radial_265_880)"/>
    <path d="M6.91693 2.68856C7.33813 2.68856 7.67957 2.34259 7.67957 1.91582C7.67957 1.48904 7.33813 1.14307 6.91693 1.14307C6.49574 1.14307 6.1543 1.48904 6.1543 1.91582C6.1543 2.34259 6.49574 2.68856 6.91693 2.68856Z" fill="url(#paint14_radial_265_880)"/>
    <path d="M2.74613 2.68994C3.16684 2.68994 3.50788 2.34437 3.50788 1.91809C3.50788 1.49181 3.16684 1.14624 2.74613 1.14624C2.32543 1.14624 1.98438 1.49181 1.98438 1.91809C1.98438 2.34437 2.32543 2.68994 2.74613 2.68994Z" fill="url(#paint15_radial_265_880)"/>
    <path d="M2.74613 2.68994C3.16684 2.68994 3.50788 2.34437 3.50788 1.91809C3.50788 1.49181 3.16684 1.14624 2.74613 1.14624C2.32543 1.14624 1.98438 1.49181 1.98438 1.91809C1.98438 2.34437 2.32543 2.68994 2.74613 2.68994Z" fill="url(#paint16_radial_265_880)"/>
    <path d="M2.74613 2.68994C3.16684 2.68994 3.50788 2.34437 3.50788 1.91809C3.50788 1.49181 3.16684 1.14624 2.74613 1.14624C2.32543 1.14624 1.98438 1.49181 1.98438 1.91809C1.98438 2.34437 2.32543 2.68994 2.74613 2.68994Z" fill="url(#paint17_radial_265_880)"/>
    <path d="M2.74613 2.68994C3.16684 2.68994 3.50788 2.34437 3.50788 1.91809C3.50788 1.49181 3.16684 1.14624 2.74613 1.14624C2.32543 1.14624 1.98438 1.49181 1.98438 1.91809C1.98438 2.34437 2.32543 2.68994 2.74613 2.68994Z" fill="url(#paint18_radial_265_880)"/>
    <path d="M18.4574 3.41339C13.0857 3.41339 8.4475 6.58083 6.25816 11.1662V21.709H5.68262C7.54468 27.0376 12.5553 30.8569 18.4574 30.8569C25.9395 30.8569 31.9997 24.7164 31.9997 17.1351C31.9997 9.55387 25.9395 3.41339 18.4574 3.41339Z" fill="url(#paint19_radial_265_880)"/>
    <path d="M18.4574 3.41339C13.0857 3.41339 8.4475 6.58083 6.25816 11.1662V21.709H5.68262C7.54468 27.0376 12.5553 30.8569 18.4574 30.8569C25.9395 30.8569 31.9997 24.7164 31.9997 17.1351C31.9997 9.55387 25.9395 3.41339 18.4574 3.41339Z" fill="url(#paint20_radial_265_880)"/>
    <path d="M18.4574 3.41339C13.0857 3.41339 8.4475 6.58083 6.25816 11.1662V21.709H5.68262C7.54468 27.0376 12.5553 30.8569 18.4574 30.8569C25.9395 30.8569 31.9997 24.7164 31.9997 17.1351C31.9997 9.55387 25.9395 3.41339 18.4574 3.41339Z" fill="url(#paint21_radial_265_880)"/>
    <path d="M18.4574 3.41339C13.0857 3.41339 8.4475 6.58083 6.25816 11.1662V21.709H5.68262C7.54468 27.0376 12.5553 30.8569 18.4574 30.8569C25.9395 30.8569 31.9997 24.7164 31.9997 17.1351C31.9997 9.55387 25.9395 3.41339 18.4574 3.41339Z" fill="url(#paint22_radial_265_880)"/>
    <path d="M18.4574 3.41339C13.0857 3.41339 8.4475 6.58083 6.25816 11.1662V21.709H5.68262C7.54468 27.0376 12.5553 30.8569 18.4574 30.8569C25.9395 30.8569 31.9997 24.7164 31.9997 17.1351C31.9997 9.55387 25.9395 3.41339 18.4574 3.41339Z" fill="url(#paint23_radial_265_880)"/>
    <path d="M19.2405 30.6152C25.2358 30.6152 30.0962 25.6906 30.0962 19.6156C30.0962 13.5408 25.2358 8.61615 19.2405 8.61615C13.2451 8.61615 8.38477 13.5408 8.38477 19.6156C8.38477 25.6906 13.2451 30.6152 19.2405 30.6152Z" fill="#713E2E"/>
    <path d="M4.77418 5.80719C2.13748 5.80719 0 7.97299 0 10.6446V27.1402C0 29.8242 2.14734 32 4.79622 32H29.4222C31.2308 32 32.4761 30.1605 31.8248 28.4507C31.2141 26.8474 29.8635 25.6515 28.2136 25.2531L9.54835 20.7459V10.6446C9.54835 7.97299 7.41089 5.80719 4.77418 5.80719Z" fill="#D2865B"/>
    <path d="M4.77418 5.80719C2.13748 5.80719 0 7.97299 0 10.6446V27.1402C0 29.8242 2.14734 32 4.79622 32H29.4222C31.2308 32 32.4761 30.1605 31.8248 28.4507C31.2141 26.8474 29.8635 25.6515 28.2136 25.2531L9.54835 20.7459V10.6446C9.54835 7.97299 7.41089 5.80719 4.77418 5.80719Z" fill="url(#paint24_linear_265_880)"/>
    <path d="M4.77418 5.80719C2.13748 5.80719 0 7.97299 0 10.6446V27.1402C0 29.8242 2.14734 32 4.79622 32H29.4222C31.2308 32 32.4761 30.1605 31.8248 28.4507C31.2141 26.8474 29.8635 25.6515 28.2136 25.2531L9.54835 20.7459V10.6446C9.54835 7.97299 7.41089 5.80719 4.77418 5.80719Z" fill="url(#paint25_radial_265_880)"/>
    <path d="M4.77418 5.80719C2.13748 5.80719 0 7.97299 0 10.6446V27.1402C0 29.8242 2.14734 32 4.79622 32H29.4222C31.2308 32 32.4761 30.1605 31.8248 28.4507C31.2141 26.8474 29.8635 25.6515 28.2136 25.2531L9.54835 20.7459V10.6446C9.54835 7.97299 7.41089 5.80719 4.77418 5.80719Z" fill="url(#paint26_radial_265_880)"/>
    <path d="M4.77418 5.80719C2.13748 5.80719 0 7.97299 0 10.6446V27.1402C0 29.8242 2.14734 32 4.79622 32H29.4222C31.2308 32 32.4761 30.1605 31.8248 28.4507C31.2141 26.8474 29.8635 25.6515 28.2136 25.2531L9.54835 20.7459V10.6446C9.54835 7.97299 7.41089 5.80719 4.77418 5.80719Z" fill="url(#paint27_radial_265_880)"/>
    <path d="M4.77418 5.80719C2.13748 5.80719 0 7.97299 0 10.6446V27.1402C0 29.8242 2.14734 32 4.79622 32H29.4222C31.2308 32 32.4761 30.1605 31.8248 28.4507C31.2141 26.8474 29.8635 25.6515 28.2136 25.2531L9.54835 20.7459V10.6446C9.54835 7.97299 7.41089 5.80719 4.77418 5.80719Z" fill="url(#paint28_linear_265_880)"/>
    <path d="M4.77418 5.80719C2.13748 5.80719 0 7.97299 0 10.6446V27.1402C0 29.8242 2.14734 32 4.79622 32H29.4222C31.2308 32 32.4761 30.1605 31.8248 28.4507C31.2141 26.8474 29.8635 25.6515 28.2136 25.2531L9.54835 20.7459V10.6446C9.54835 7.97299 7.41089 5.80719 4.77418 5.80719Z" fill="url(#paint29_radial_265_880)"/>
    <path d="M4.77418 5.80719C2.13748 5.80719 0 7.97299 0 10.6446V27.1402C0 29.8242 2.14734 32 4.79622 32H29.4222C31.2308 32 32.4761 30.1605 31.8248 28.4507C31.2141 26.8474 29.8635 25.6515 28.2136 25.2531L9.54835 20.7459V10.6446C9.54835 7.97299 7.41089 5.80719 4.77418 5.80719Z" fill="url(#paint30_radial_265_880)"/>
    <path d="M4.77418 5.80719C2.13748 5.80719 0 7.97299 0 10.6446V27.1402C0 29.8242 2.14734 32 4.79622 32H29.4222C31.2308 32 32.4761 30.1605 31.8248 28.4507C31.2141 26.8474 29.8635 25.6515 28.2136 25.2531L9.54835 20.7459V10.6446C9.54835 7.97299 7.41089 5.80719 4.77418 5.80719Z" fill="url(#paint31_radial_265_880)"/>
    <path d="M4.77418 5.80719C2.13748 5.80719 0 7.97299 0 10.6446V27.1402C0 29.8242 2.14734 32 4.79622 32H29.4222C31.2308 32 32.4761 30.1605 31.8248 28.4507C31.2141 26.8474 29.8635 25.6515 28.2136 25.2531L9.54835 20.7459V10.6446C9.54835 7.97299 7.41089 5.80719 4.77418 5.80719Z" fill="url(#paint32_radial_265_880)"/>
    <path d="M4.77418 5.80719C2.13748 5.80719 0 7.97299 0 10.6446V27.1402C0 29.8242 2.14734 32 4.79622 32H29.4222C31.2308 32 32.4761 30.1605 31.8248 28.4507C31.2141 26.8474 29.8635 25.6515 28.2136 25.2531L9.54835 20.7459V10.6446C9.54835 7.97299 7.41089 5.80719 4.77418 5.80719Z" fill="url(#paint33_radial_265_880)"/>
    <path d="M4.77418 5.80719C2.13748 5.80719 0 7.97299 0 10.6446V27.1402C0 29.8242 2.14734 32 4.79622 32H29.4222C31.2308 32 32.4761 30.1605 31.8248 28.4507C31.2141 26.8474 29.8635 25.6515 28.2136 25.2531L9.54835 20.7459V10.6446C9.54835 7.97299 7.41089 5.80719 4.77418 5.80719Z" fill="url(#paint34_radial_265_880)"/>
    <path d="M4.77418 5.80719C2.13748 5.80719 0 7.97299 0 10.6446V27.1402C0 29.8242 2.14734 32 4.79622 32H29.4222C31.2308 32 32.4761 30.1605 31.8248 28.4507C31.2141 26.8474 29.8635 25.6515 28.2136 25.2531L9.54835 20.7459V10.6446C9.54835 7.97299 7.41089 5.80719 4.77418 5.80719Z" fill="url(#paint35_radial_265_880)"/>
    <path d="M4.77418 5.80719C2.13748 5.80719 0 7.97299 0 10.6446V27.1402C0 29.8242 2.14734 32 4.79622 32H29.4222C31.2308 32 32.4761 30.1605 31.8248 28.4507C31.2141 26.8474 29.8635 25.6515 28.2136 25.2531L9.54835 20.7459V10.6446C9.54835 7.97299 7.41089 5.80719 4.77418 5.80719Z" fill="url(#paint36_linear_265_880)"/>
    <path d="M4.77418 5.80719C2.13748 5.80719 0 7.97299 0 10.6446V27.1402C0 29.8242 2.14734 32 4.79622 32H29.4222C31.2308 32 32.4761 30.1605 31.8248 28.4507C31.2141 26.8474 29.8635 25.6515 28.2136 25.2531L9.54835 20.7459V10.6446C9.54835 7.97299 7.41089 5.80719 4.77418 5.80719Z" fill="url(#paint37_radial_265_880)"/>
    <path d="M4.77418 5.80719C2.13748 5.80719 0 7.97299 0 10.6446V27.1402C0 29.8242 2.14734 32 4.79622 32H29.4222C31.2308 32 32.4761 30.1605 31.8248 28.4507C31.2141 26.8474 29.8635 25.6515 28.2136 25.2531L9.54835 20.7459V10.6446C9.54835 7.97299 7.41089 5.80719 4.77418 5.80719Z" fill="url(#paint38_radial_265_880)"/>
    <path d="M27.5645 26.1934C28.3659 26.3464 30.1617 27.0531 30.9334 28.6562" stroke="url(#paint39_linear_265_880)" stroke-width="3.23805" stroke-linecap="round"/>
    <path d="M7.91294 9.70559C7.91294 8.67058 7.08487 7.83154 6.0634 7.83154C5.04193 7.83154 4.21387 8.67058 4.21387 9.70559V27.0511C4.21387 28.0861 5.04193 28.9252 6.0634 28.9252C7.08487 28.9252 7.91294 28.0861 7.91294 27.0511V9.70559Z" fill="url(#paint40_linear_265_880)"/>
    <path d="M7.91294 9.70559C7.91294 8.67058 7.08487 7.83154 6.0634 7.83154C5.04193 7.83154 4.21387 8.67058 4.21387 9.70559V27.0511C4.21387 28.0861 5.04193 28.9252 6.0634 28.9252C7.08487 28.9252 7.91294 28.0861 7.91294 27.0511V9.70559Z" fill="url(#paint41_linear_265_880)"/>
    <path d="M20.1395 30.6149C26.0667 30.6149 30.8717 25.7462 30.8717 19.7404C30.8717 13.7346 26.0667 8.86597 20.1395 8.86597C14.2121 8.86597 9.40723 13.7346 9.40723 19.7404C9.40723 25.7462 14.2121 30.6149 20.1395 30.6149Z" fill="url(#paint42_radial_265_880)"/>
    <path d="M20.1395 30.6149C26.0667 30.6149 30.8717 25.7462 30.8717 19.7404C30.8717 13.7346 26.0667 8.86597 20.1395 8.86597C14.2121 8.86597 9.40723 13.7346 9.40723 19.7404C9.40723 25.7462 14.2121 30.6149 20.1395 30.6149Z" fill="url(#paint43_radial_265_880)"/>
    <path d="M20.1395 30.6149C26.0667 30.6149 30.8717 25.7462 30.8717 19.7404C30.8717 13.7346 26.0667 8.86597 20.1395 8.86597C14.2121 8.86597 9.40723 13.7346 9.40723 19.7404C9.40723 25.7462 14.2121 30.6149 20.1395 30.6149Z" fill="url(#paint44_radial_265_880)"/>
    <path d="M20.1395 30.6149C26.0667 30.6149 30.8717 25.7462 30.8717 19.7404C30.8717 13.7346 26.0667 8.86597 20.1395 8.86597C14.2121 8.86597 9.40723 13.7346 9.40723 19.7404C9.40723 25.7462 14.2121 30.6149 20.1395 30.6149Z" fill="url(#paint45_radial_265_880)"/>
    <path d="M20.1395 30.6149C26.0667 30.6149 30.8717 25.7462 30.8717 19.7404C30.8717 13.7346 26.0667 8.86597 20.1395 8.86597C14.2121 8.86597 9.40723 13.7346 9.40723 19.7404C9.40723 25.7462 14.2121 30.6149 20.1395 30.6149Z" fill="url(#paint46_radial_265_880)"/>
    <path d="M20.1395 30.6149C26.0667 30.6149 30.8717 25.7462 30.8717 19.7404C30.8717 13.7346 26.0667 8.86597 20.1395 8.86597C14.2121 8.86597 9.40723 13.7346 9.40723 19.7404C9.40723 25.7462 14.2121 30.6149 20.1395 30.6149Z" fill="url(#paint47_radial_265_880)"/>
    <path d="M22.0952 28.2109C25.078 28.2109 27.4961 25.7608 27.4961 22.7385C27.4961 19.7161 25.078 17.266 22.0952 17.266C19.1124 17.266 16.6943 19.7161 16.6943 22.7385C16.6943 25.7608 19.1124 28.2109 22.0952 28.2109Z" fill="url(#paint48_linear_265_880)"/>
    <path d="M22.3742 28.0313C25.3346 28.0313 27.7346 25.5996 27.7346 22.5998C27.7346 19.6001 25.3346 17.1683 22.3742 17.1683C19.4136 17.1683 17.0137 19.6001 17.0137 22.5998C17.0137 25.5996 19.4136 28.0313 22.3742 28.0313Z" fill="url(#paint49_radial_265_880)"/>
    <path d="M22.3742 28.0313C25.3346 28.0313 27.7346 25.5996 27.7346 22.5998C27.7346 19.6001 25.3346 17.1683 22.3742 17.1683C19.4136 17.1683 17.0137 19.6001 17.0137 22.5998C17.0137 25.5996 19.4136 28.0313 22.3742 28.0313Z" fill="url(#paint50_radial_265_880)"/>
    <path d="M22.3742 28.0313C25.3346 28.0313 27.7346 25.5996 27.7346 22.5998C27.7346 19.6001 25.3346 17.1683 22.3742 17.1683C19.4136 17.1683 17.0137 19.6001 17.0137 22.5998C17.0137 25.5996 19.4136 28.0313 22.3742 28.0313Z" fill="url(#paint51_radial_265_880)"/>
    <path d="M22.3742 28.0313C25.3346 28.0313 27.7346 25.5996 27.7346 22.5998C27.7346 19.6001 25.3346 17.1683 22.3742 17.1683C19.4136 17.1683 17.0137 19.6001 17.0137 22.5998C17.0137 25.5996 19.4136 28.0313 22.3742 28.0313Z" fill="url(#paint52_radial_265_880)" fill-opacity="0.5"/>
    <path d="M26.0853 23.4813C26.8644 23.0303 26.8771 21.5672 26.1137 20.2134C25.3503 18.8597 24.0999 18.1279 23.3208 18.5789C22.5417 19.03 22.529 20.4931 23.2924 21.8468C24.0558 23.2006 25.3063 23.9324 26.0853 23.4813Z" fill="url(#paint53_radial_265_880)"/>
    <path d="M22.5488 16.2583C24.1358 16.2583 26.9747 17.2231 27.9093 19.6351" stroke="url(#paint54_linear_265_880)" stroke-width="1.61903" stroke-linecap="round"/>
    <path d="M3.50788 9.63989C3.50788 9.21361 3.16683 8.86804 2.74613 8.86804C2.32542 8.86804 1.98438 9.21361 1.98438 9.63989V27.2609C1.98438 27.6872 2.32542 28.0327 2.74613 28.0327C3.16683 28.0327 3.50788 27.6872 3.50788 27.2609V9.63989Z" fill="url(#paint55_linear_265_880)"/>
    <defs>
        <radialGradient id="paint0_radial_265_880" cx="0" cy="0" r="1" gradientUnits="userSpaceOnUse" gradientTransform="translate(8.51213 0.589611) rotate(105.503) scale(5.97035 6.20588)">
            <stop stop-color="#DBAB7A"/>
            <stop offset="1" stop-color="#C8804E"/>
        </radialGradient>
        <radialGradient id="paint1_radial_265_880" cx="0" cy="0" r="1" gradientUnits="userSpaceOnUse" gradientTransform="translate(8.27408 0.96481) rotate(138.177) scale(1.82197 1.18586)">
            <stop stop-color="#EFC49B"/>
            <stop offset="1" stop-color="#EFC49B" stop-opacity="0"/>
        </radialGradient>
        <radialGradient id="paint2_radial_265_880" cx="0" cy="0" r="1" gradientUnits="userSpaceOnUse" gradientTransform="translate(5.47923 0.518144) rotate(46.5458) scale(1.23062 1.90572)">
            <stop stop-color="#E6BA95"/>
            <stop offset="1" stop-color="#E6BA95" stop-opacity="0"/>
        </radialGradient>
        <radialGradient id="paint3_radial_265_880" cx="0" cy="0" r="1" gradientUnits="userSpaceOnUse" gradientTransform="translate(4.94141 2.23336) scale(1.06681 2.00109)">
            <stop stop-color="#C1854E"/>
            <stop offset="1" stop-color="#C1854E" stop-opacity="0"/>
        </radialGradient>
        <radialGradient id="paint4_radial_265_880" cx="0" cy="0" r="1" gradientUnits="userSpaceOnUse" gradientTransform="translate(2.7464 0.518144) rotate(90) scale(6.03899 6.2653)">
            <stop stop-color="#D5A674"/>
            <stop offset="1" stop-color="#C48055"/>
        </radialGradient>
        <radialGradient id="paint5_radial_265_880" cx="0" cy="0" r="1" gradientUnits="userSpaceOnUse" gradientTransform="translate(4.10416 0.964821) rotate(138.177) scale(1.82197 0.932372)">
            <stop stop-color="#E6BA95"/>
            <stop offset="1" stop-color="#E6BA95" stop-opacity="0"/>
        </radialGradient>
        <radialGradient id="paint6_radial_265_880" cx="0" cy="0" r="1" gradientUnits="userSpaceOnUse" gradientTransform="translate(0.683324 1.00055) rotate(17.6033) scale(1.83145 1.92452)">
            <stop stop-color="#E6BA95"/>
            <stop offset="1" stop-color="#E6BA95" stop-opacity="0"/>
        </radialGradient>
        <radialGradient id="paint7_radial_265_880" cx="0" cy="0" r="1" gradientUnits="userSpaceOnUse" gradientTransform="translate(5.07398 2.23336) rotate(180) scale(1.37539 1.67948)">
            <stop stop-color="#C2844E"/>
            <stop offset="1" stop-color="#C2844E" stop-opacity="0"/>
        </radialGradient>
        <linearGradient id="paint8_linear_265_880" x1="2.7464" y1="7.27181" x2="2.7464" y2="5.12779" gradientUnits="userSpaceOnUse">
            <stop stop-color="#C27C40"/>
            <stop offset="1" stop-color="#C27C40" stop-opacity="0"/>
        </linearGradient>
        <linearGradient id="paint9_linear_265_880" x1="3.0106" y1="3.32339" x2="3.0106" y2="6.45009" gradientUnits="userSpaceOnUse">
            <stop stop-color="#DFA178" stop-opacity="0"/>
            <stop offset="1" stop-color="#DFA178"/>
        </linearGradient>
        <linearGradient id="paint10_linear_265_880" x1="7.1815" y1="2.59085" x2="7.1815" y2="6.45009" gradientUnits="userSpaceOnUse">
            <stop stop-color="#E3A776" stop-opacity="0"/>
            <stop offset="1" stop-color="#E3A776"/>
        </linearGradient>
        <radialGradient id="paint11_radial_265_880" cx="0" cy="0" r="1" gradientUnits="userSpaceOnUse" gradientTransform="translate(7.59582 1.3932) rotate(138.223) scale(1.09951 0.494776)">
            <stop offset="0.00558659" stop-color="#8D7470"/>
            <stop offset="1" stop-color="#593434"/>
        </radialGradient>
        <radialGradient id="paint12_radial_265_880" cx="0" cy="0" r="1" gradientUnits="userSpaceOnUse" gradientTransform="translate(6.88166 2.19275) rotate(90) scale(0.527071 0.621569)">
            <stop stop-color="#65354C"/>
            <stop offset="1" stop-color="#65354C" stop-opacity="0"/>
        </radialGradient>
        <radialGradient id="paint13_radial_265_880" cx="0" cy="0" r="1" gradientUnits="userSpaceOnUse" gradientTransform="translate(6.35708 1.18774) rotate(46.4443) scale(0.505406 0.618021)">
            <stop stop-color="#8D7470"/>
            <stop offset="1" stop-color="#8D7470" stop-opacity="0"/>
        </radialGradient>
        <radialGradient id="paint14_radial_265_880" cx="0" cy="0" r="1" gradientUnits="userSpaceOnUse" gradientTransform="translate(6.0441 2.57241) rotate(-37.2326) scale(0.620118 0.636161)">
            <stop stop-color="#8D7470"/>
            <stop offset="1" stop-color="#8D7470" stop-opacity="0"/>
        </radialGradient>
        <radialGradient id="paint15_radial_265_880" cx="0" cy="0" r="1" gradientUnits="userSpaceOnUse" gradientTransform="translate(3.42422 1.39609) rotate(138.223) scale(1.09824 0.494204)">
            <stop offset="0.00558659" stop-color="#8D7470"/>
            <stop offset="1" stop-color="#593434"/>
        </radialGradient>
        <radialGradient id="paint16_radial_265_880" cx="0" cy="0" r="1" gradientUnits="userSpaceOnUse" gradientTransform="translate(2.71091 2.19471) rotate(90) scale(0.526463 0.620851)">
            <stop stop-color="#65354C"/>
            <stop offset="1" stop-color="#65354C" stop-opacity="0"/>
        </radialGradient>
        <radialGradient id="paint17_radial_265_880" cx="0" cy="0" r="1" gradientUnits="userSpaceOnUse" gradientTransform="translate(2.18692 1.19086) rotate(46.4443) scale(0.504822 0.617307)">
            <stop stop-color="#8D7470"/>
            <stop offset="1" stop-color="#8D7470" stop-opacity="0"/>
        </radialGradient>
        <radialGradient id="paint18_radial_265_880" cx="0" cy="0" r="1" gradientUnits="userSpaceOnUse" gradientTransform="translate(1.8743 2.57393) rotate(-37.2326) scale(0.619401 0.635426)">
            <stop stop-color="#8D7470"/>
            <stop offset="1" stop-color="#8D7470" stop-opacity="0"/>
        </radialGradient>
        <radialGradient id="paint19_radial_265_880" cx="0" cy="0" r="1" gradientUnits="userSpaceOnUse" gradientTransform="translate(18.8411 22.2808) rotate(-76.1257) scale(16.3425 22.0007)">
            <stop stop-color="#844E42"/>
            <stop offset="1" stop-color="#8F5C4D"/>
        </radialGradient>
        <radialGradient id="paint20_radial_265_880" cx="0" cy="0" r="1" gradientUnits="userSpaceOnUse" gradientTransform="translate(27.3447 10.4887) rotate(118.079) scale(5.99407 10.0899)">
            <stop stop-color="#AD8378"/>
            <stop offset="1" stop-color="#AD8378" stop-opacity="0"/>
        </radialGradient>
        <radialGradient id="paint21_radial_265_880" cx="0" cy="0" r="1" gradientUnits="userSpaceOnUse" gradientTransform="translate(8.33607 8.0945) rotate(51.4016) scale(3.10912 12.8621)">
            <stop stop-color="#AD8378"/>
            <stop offset="0.460845" stop-color="#AD8378" stop-opacity="0"/>
        </radialGradient>
        <radialGradient id="paint22_radial_265_880" cx="0" cy="0" r="1" gradientUnits="userSpaceOnUse" gradientTransform="translate(29.5664 24.2104) rotate(-76.5247) scale(8.9291 8.57504)">
            <stop stop-color="#7A5857"/>
            <stop offset="1" stop-color="#7A5857" stop-opacity="0"/>
        </radialGradient>
        <radialGradient id="paint23_radial_265_880" cx="0" cy="0" r="1" gradientUnits="userSpaceOnUse" gradientTransform="translate(9.58804 14.6338) scale(1.49882 4.84532)">
            <stop stop-color="#896863"/>
            <stop offset="0.75" stop-color="#896863" stop-opacity="0"/>
        </radialGradient>
        <linearGradient id="paint24_linear_265_880" x1="-1.11505" y1="17.7065" x2="1.60046" y2="17.7065" gradientUnits="userSpaceOnUse">
            <stop stop-color="#E4C0A8"/>
            <stop offset="1" stop-color="#E4C0A8" stop-opacity="0"/>
        </linearGradient>
        <radialGradient id="paint25_radial_265_880" cx="0" cy="0" r="1" gradientUnits="userSpaceOnUse" gradientTransform="translate(1.2478 33.5008) rotate(-60.9892) scale(8.58071 4.66271)">
            <stop stop-color="#AD5C4F"/>
            <stop offset="1" stop-color="#AD5C4F" stop-opacity="0"/>
        </radialGradient>
        <radialGradient id="paint26_radial_265_880" cx="0" cy="0" r="1" gradientUnits="userSpaceOnUse" gradientTransform="translate(21.0675 32.3573) rotate(-134.962) scale(16.9685 27.3247)">
            <stop stop-color="#B96956"/>
            <stop offset="1" stop-color="#B96956" stop-opacity="0"/>
        </radialGradient>
        <radialGradient id="paint27_radial_265_880" cx="0" cy="0" r="1" gradientUnits="userSpaceOnUse" gradientTransform="translate(25.7932 32) rotate(-81.527) scale(3.82957 6.27898)">
            <stop stop-color="#B15F4F"/>
            <stop offset="1" stop-color="#B15F4F" stop-opacity="0"/>
        </radialGradient>
        <linearGradient id="paint28_linear_265_880" x1="16" y1="32.3573" x2="16" y2="30.7493" gradientUnits="userSpaceOnUse">
            <stop offset="0.010416" stop-color="#AA6469"/>
            <stop offset="1" stop-color="#AA6469" stop-opacity="0"/>
        </linearGradient>
        <radialGradient id="paint29_radial_265_880" cx="0" cy="0" r="1" gradientUnits="userSpaceOnUse" gradientTransform="translate(34.1161 25.4608) rotate(142.323) scale(8.24331 8.49287)">
            <stop stop-color="#E6AC7C"/>
            <stop offset="1" stop-color="#E6AC7C" stop-opacity="0"/>
        </radialGradient>
        <radialGradient id="paint30_radial_265_880" cx="0" cy="0" r="1" gradientUnits="userSpaceOnUse" gradientTransform="translate(12.4977 26.0324) rotate(144.653) scale(3.02655 3.60364)">
            <stop stop-color="#CA865D"/>
            <stop offset="1" stop-color="#CA865D" stop-opacity="0"/>
        </radialGradient>
        <radialGradient id="paint31_radial_265_880" cx="0" cy="0" r="1" gradientUnits="userSpaceOnUse" gradientTransform="translate(11.1929 24.5674) rotate(138.201) scale(4.82519 2.04004)">
            <stop stop-color="#D4976F"/>
            <stop offset="1" stop-color="#D4976F" stop-opacity="0"/>
        </radialGradient>
        <radialGradient id="paint32_radial_265_880" cx="0" cy="0" r="1" gradientUnits="userSpaceOnUse" gradientTransform="translate(16 26.1039) rotate(70.9619) scale(6.23722 4.61262)">
            <stop offset="0.72008" stop-color="#B15F54"/>
            <stop offset="1" stop-color="#B15F54" stop-opacity="0"/>
        </radialGradient>
        <radialGradient id="paint33_radial_265_880" cx="0" cy="0" r="1" gradientUnits="userSpaceOnUse" gradientTransform="translate(12.1099 7.91548) rotate(122.333) scale(12.2643 9.0415)">
            <stop stop-color="#D79D6A"/>
            <stop offset="1" stop-color="#D79D6A" stop-opacity="0"/>
        </radialGradient>
        <radialGradient id="paint34_radial_265_880" cx="0" cy="0" r="1" gradientUnits="userSpaceOnUse" gradientTransform="translate(0.613002 6.62906) rotate(46.2863) scale(3.16401 3.66506)">
            <stop stop-color="#DFB897"/>
            <stop offset="0.841768" stop-color="#DFB897" stop-opacity="0"/>
        </radialGradient>
        <radialGradient id="paint35_radial_265_880" cx="0" cy="0" r="1" gradientUnits="userSpaceOnUse" gradientTransform="translate(11.3692 22.2447) rotate(120.632) scale(3.52994 1.11579)">
            <stop offset="0.368512" stop-color="#933F17"/>
            <stop offset="1" stop-color="#933F17" stop-opacity="0"/>
        </radialGradient>
        <linearGradient id="paint36_linear_265_880" x1="-0.0835107" y1="17.7065" x2="0.180981" y2="17.7065" gradientUnits="userSpaceOnUse">
            <stop stop-color="#E4C0A8"/>
            <stop offset="1" stop-color="#E4C0A8" stop-opacity="0"/>
        </linearGradient>
        <radialGradient id="paint37_radial_265_880" cx="0" cy="0" r="1" gradientUnits="userSpaceOnUse" gradientTransform="translate(5.08249 5.44296) rotate(90) scale(4.66385 3.9799)">
            <stop stop-color="#CF9E72"/>
            <stop offset="1" stop-color="#CF9E72" stop-opacity="0"/>
        </radialGradient>
        <radialGradient id="paint38_radial_265_880" cx="0" cy="0" r="1" gradientUnits="userSpaceOnUse" gradientTransform="translate(2.9009 6.03499) rotate(79.1858) scale(0.704858 1.58797)">
            <stop offset="0.023661" stop-color="#C47E40"/>
            <stop offset="1" stop-color="#C47E40" stop-opacity="0"/>
        </radialGradient>
        <linearGradient id="paint39_linear_265_880" x1="29.0056" y1="27.2465" x2="32.1073" y2="29.8895" gradientUnits="userSpaceOnUse">
            <stop stop-color="#D89D72"/>
            <stop offset="1" stop-color="#D89D72" stop-opacity="0"/>
        </linearGradient>
        <linearGradient id="paint40_linear_265_880" x1="6.06341" y1="7.83154" x2="6.06341" y2="35.3917" gradientUnits="userSpaceOnUse">
            <stop stop-color="#E5A97C"/>
            <stop offset="1" stop-color="#E5A97C" stop-opacity="0"/>
        </linearGradient>
        <linearGradient id="paint41_linear_265_880" x1="6.46703" y1="7.12759" x2="6.05269" y2="13.7019" gradientUnits="userSpaceOnUse">
            <stop stop-color="#F5C293"/>
            <stop offset="1" stop-color="#F5C293" stop-opacity="0"/>
        </linearGradient>
        <radialGradient id="paint42_radial_265_880" cx="0" cy="0" r="1" gradientUnits="userSpaceOnUse" gradientTransform="translate(25.5112 12.4879) rotate(122.767) scale(17.5932 24.8673)">
            <stop stop-color="#9A6A5D"/>
            <stop offset="1" stop-color="#683A3D"/>
        </radialGradient>
        <radialGradient id="paint43_radial_265_880" cx="0" cy="0" r="1" gradientUnits="userSpaceOnUse" gradientTransform="translate(25.2996 9.34335) rotate(114.588) scale(23.3927 18.6808)">
            <stop offset="0.615396" stop-color="#693A3E" stop-opacity="0"/>
            <stop offset="1" stop-color="#66322F"/>
        </radialGradient>
        <radialGradient id="paint44_radial_265_880" cx="0" cy="0" r="1" gradientUnits="userSpaceOnUse" gradientTransform="translate(17.3295 29.1398) rotate(-63.5721) scale(11.0933 10.3108)">
            <stop stop-color="#65334D"/>
            <stop offset="1" stop-color="#71315B" stop-opacity="0"/>
        </radialGradient>
        <radialGradient id="paint45_radial_265_880" cx="0" cy="0" r="1" gradientUnits="userSpaceOnUse" gradientTransform="translate(25.2996 9.34335) rotate(115.057) scale(23.4816 19.4712)">
            <stop offset="0.859919" stop-color="#582D4B" stop-opacity="0"/>
            <stop offset="1" stop-color="#582D4B"/>
        </radialGradient>
        <radialGradient id="paint46_radial_265_880" cx="0" cy="0" r="1" gradientUnits="userSpaceOnUse" gradientTransform="translate(13.4148 11.5588) rotate(-37.6485) scale(3.91961 1.11114)">
            <stop stop-color="#876359"/>
            <stop offset="1" stop-color="#876359" stop-opacity="0"/>
        </radialGradient>
        <radialGradient id="paint47_radial_265_880" cx="0" cy="0" r="1" gradientUnits="userSpaceOnUse" gradientTransform="translate(26.4282 14.9893) rotate(134.623) scale(3.71522 5.77315)">
            <stop stop-color="#AB837A"/>
            <stop offset="1" stop-color="#AA827A" stop-opacity="0"/>
        </radialGradient>
        <linearGradient id="paint48_linear_265_880" x1="22.0952" y1="17.266" x2="18.7239" y2="27.4923" gradientUnits="userSpaceOnUse">
            <stop stop-color="#754743"/>
            <stop offset="1" stop-color="#4E1F2F"/>
        </linearGradient>
        <radialGradient id="paint49_radial_265_880" cx="0" cy="0" r="1" gradientUnits="userSpaceOnUse" gradientTransform="translate(25.0177 19.7783) rotate(115.734) scale(10.2343 15.4791)">
            <stop stop-color="#8C5B50"/>
            <stop offset="1" stop-color="#5A303E"/>
        </radialGradient>
        <radialGradient id="paint50_radial_265_880" cx="0" cy="0" r="1" gradientUnits="userSpaceOnUse" gradientTransform="translate(21.2795 28.0313) rotate(-72.2709) scale(6.60121 5.90774)">
            <stop stop-color="#683352"/>
            <stop offset="1" stop-color="#683352" stop-opacity="0"/>
        </radialGradient>
        <radialGradient id="paint51_radial_265_880" cx="0" cy="0" r="1" gradientUnits="userSpaceOnUse" gradientTransform="translate(22.7959 21.8508) rotate(97.4768) scale(6.2335 6.81072)">
            <stop offset="0.764336" stop-color="#613548" stop-opacity="0"/>
            <stop offset="1" stop-color="#4D2737"/>
        </radialGradient>
        <radialGradient id="paint52_radial_265_880" cx="0" cy="0" r="1" gradientUnits="userSpaceOnUse" gradientTransform="translate(30.6955 18.9564) rotate(156.598) scale(11.336 7.1964)">
            <stop stop-color="#AE847A"/>
            <stop offset="1" stop-color="#AE847A" stop-opacity="0"/>
        </radialGradient>
        <radialGradient id="paint53_radial_265_880" cx="0" cy="0" r="1" gradientUnits="userSpaceOnUse" gradientTransform="translate(23.1098 21.9286) rotate(-36.5684) scale(3.16346 9.28927)">
            <stop offset="0.366774" stop-color="#AF857B" stop-opacity="0"/>
            <stop offset="1" stop-color="#AF857B"/>
        </radialGradient>
        <linearGradient id="paint54_linear_265_880" x1="25.7933" y1="16.7406" x2="23.6436" y2="19.3572" gradientUnits="userSpaceOnUse">
            <stop stop-color="#A07B76"/>
            <stop offset="1" stop-color="#A07B76" stop-opacity="0"/>
        </linearGradient>
        <linearGradient id="paint55_linear_265_880" x1="3.50788" y1="27.2306" x2="3.50788" y2="9.91625" gradientUnits="userSpaceOnUse">
            <stop stop-color="#BB7248"/>
            <stop offset="1" stop-color="#BB7248" stop-opacity="0"/>
        </linearGradient>
    </defs>
</svg>
