<svg width="33" height="32" viewBox="0 0 33 32" fill="none" xmlns="http://www.w3.org/2000/svg">
    <path d="M31.3021 26.2446H0.709071C0.320226 26.2446 0 25.9229 0 25.5324V2.8455C0 2.45494 0.320226 2.1333 0.709071 2.1333H31.2906C31.6909 2.1333 31.9997 2.45494 31.9997 2.8455V25.5209C32.0111 25.9229 31.6909 26.2446 31.3021 26.2446Z" fill="url(#paint0_linear_265_425)"/>
    <path d="M1.14355 25.0962V3.28235H30.8674V25.0962H1.14355Z" fill="url(#paint1_linear_265_425)"/>
    <path d="M1.14355 25.0962V3.28235H30.8674V25.0962H1.14355Z" fill="url(#paint2_radial_265_425)"/>
    <path d="M1.14355 25.0962V3.28235H30.8674V25.0962H1.14355Z" fill="url(#paint3_radial_265_425)"/>
    <path d="M1.38867 2.58459H31.367C31.4301 2.58459 31.4813 2.63602 31.4813 2.69947V25.1966" stroke="url(#paint4_linear_265_425)" stroke-width="1.84242" stroke-linecap="round"/>
    <path d="M30.8675 25.096H1.14366V3.28216L0.0914932 2.50104C0.0343101 2.60442 0 2.73078 0 2.84565V25.5211C0 25.9231 0.320226 26.2333 0.709071 26.2333H31.2906C31.5651 26.2333 31.7938 26.0839 31.9196 25.8542L30.8675 25.096Z" fill="url(#paint5_linear_265_425)"/>
    <path d="M30.8675 25.096H1.14366V3.28216L0.0914932 2.50104C0.0343101 2.60442 0 2.73078 0 2.84565V25.5211C0 25.9231 0.320226 26.2333 0.709071 26.2333H31.2906C31.5651 26.2333 31.7938 26.0839 31.9196 25.8542L30.8675 25.096Z" fill="url(#paint6_linear_265_425)"/>
    <path d="M30.8675 25.096H1.14366V3.28216L0.0914932 2.50104C0.0343101 2.60442 0 2.73078 0 2.84565V25.5211C0 25.9231 0.320226 26.2333 0.709071 26.2333H31.2906C31.5651 26.2333 31.7938 26.0839 31.9196 25.8542L30.8675 25.096Z" fill="url(#paint7_radial_265_425)"/>
    <path fill-rule="evenodd" clip-rule="evenodd" d="M24.2603 11.4674C24.5045 10.9653 24.6323 10.4047 24.6323 9.8208C24.6323 9.2816 24.5219 8.77562 24.3238 8.31441H24.33C24.2376 8.10557 24.1336 7.90826 24.0069 7.72248L24.0046 7.71886C23.6092 7.11163 23.3999 6.3993 23.3999 5.67529V5.66361C23.3999 3.56166 21.7025 1.85673 19.6098 1.85673C19.4005 1.85673 19.2029 1.76332 19.0866 1.58815C18.4006 0.630592 17.2728 0 16.0055 0C14.7383 0 13.6105 0.630592 12.9246 1.58815C12.8082 1.75163 12.6106 1.85673 12.4013 1.85673C12.3687 1.85673 12.3361 1.85715 12.3037 1.85798C10.256 1.91005 8.61117 3.59445 8.61117 5.66361V5.67529C8.61117 6.3993 8.4019 7.11163 8.00661 7.71886L8.00396 7.7231C7.61035 8.3294 7.37891 9.04026 7.37891 9.8208C7.37891 10.4164 7.51842 10.9653 7.75094 11.4674C7.83232 11.6308 7.83232 11.8293 7.75094 11.9929C7.51842 12.4833 7.37891 13.0321 7.37891 13.616C7.37891 15.6713 9.02984 17.3295 11.076 17.3295H20.9352C22.9815 17.3295 24.6323 15.6713 24.6323 13.616C24.6323 13.0321 24.4928 12.4833 24.2603 11.9929C24.1789 11.8293 24.1789 11.6308 24.2603 11.4674ZM10.1753 8.38367H10.1612L11.5383 11.1017C11.6799 14.3355 12.9364 11.1017 16.0055 11.1017C19.0746 11.1017 20.4129 14.7012 20.5545 11.4674L21.8595 7.77817C21.7978 6.34175 20.7614 6.24094 20.5545 6.24094H16.8552C15.3944 6.24094 14.0159 5.52277 13.1914 4.31012C13.0499 4.10997 12.7554 4.14529 12.6612 4.36899L12.5669 4.59267C12.3078 5.2402 11.8129 5.73468 11.2003 6.01724C11.1826 6.02313 11.1621 6.03195 11.1414 6.04079C11.1208 6.04962 11.1002 6.05844 11.0825 6.06434C10.8115 6.20561 10.1753 6.62945 10.1517 7.72436L10.1635 8.07756L10.1753 8.38367Z" fill="url(#paint8_linear_265_425)"/>
    <path fill-rule="evenodd" clip-rule="evenodd" d="M24.2603 11.4674C24.5045 10.9653 24.6323 10.4047 24.6323 9.8208C24.6323 9.2816 24.5219 8.77562 24.3238 8.31441H24.33C24.2376 8.10557 24.1336 7.90826 24.0069 7.72248L24.0046 7.71886C23.6092 7.11163 23.3999 6.3993 23.3999 5.67529V5.66361C23.3999 3.56166 21.7025 1.85673 19.6098 1.85673C19.4005 1.85673 19.2029 1.76332 19.0866 1.58815C18.4006 0.630592 17.2728 0 16.0055 0C14.7383 0 13.6105 0.630592 12.9246 1.58815C12.8082 1.75163 12.6106 1.85673 12.4013 1.85673C12.3687 1.85673 12.3361 1.85715 12.3037 1.85798C10.256 1.91005 8.61117 3.59445 8.61117 5.66361V5.67529C8.61117 6.3993 8.4019 7.11163 8.00661 7.71886L8.00396 7.7231C7.61035 8.3294 7.37891 9.04026 7.37891 9.8208C7.37891 10.4164 7.51842 10.9653 7.75094 11.4674C7.83232 11.6308 7.83232 11.8293 7.75094 11.9929C7.51842 12.4833 7.37891 13.0321 7.37891 13.616C7.37891 15.6713 9.02984 17.3295 11.076 17.3295H20.9352C22.9815 17.3295 24.6323 15.6713 24.6323 13.616C24.6323 13.0321 24.4928 12.4833 24.2603 11.9929C24.1789 11.8293 24.1789 11.6308 24.2603 11.4674ZM10.1753 8.38367H10.1612L11.5383 11.1017C11.6799 14.3355 12.9364 11.1017 16.0055 11.1017C19.0746 11.1017 20.4129 14.7012 20.5545 11.4674L21.8595 7.77817C21.7978 6.34175 20.7614 6.24094 20.5545 6.24094H16.8552C15.3944 6.24094 14.0159 5.52277 13.1914 4.31012C13.0499 4.10997 12.7554 4.14529 12.6612 4.36899L12.5669 4.59267C12.3078 5.2402 11.8129 5.73468 11.2003 6.01724C11.1826 6.02313 11.1621 6.03195 11.1414 6.04079C11.1208 6.04962 11.1002 6.05844 11.0825 6.06434C10.8115 6.20561 10.1753 6.62945 10.1517 7.72436L10.1635 8.07756L10.1753 8.38367Z" fill="url(#paint9_radial_265_425)"/>
    <path fill-rule="evenodd" clip-rule="evenodd" d="M24.2603 11.4674C24.5045 10.9653 24.6323 10.4047 24.6323 9.8208C24.6323 9.2816 24.5219 8.77562 24.3238 8.31441H24.33C24.2376 8.10557 24.1336 7.90826 24.0069 7.72248L24.0046 7.71886C23.6092 7.11163 23.3999 6.3993 23.3999 5.67529V5.66361C23.3999 3.56166 21.7025 1.85673 19.6098 1.85673C19.4005 1.85673 19.2029 1.76332 19.0866 1.58815C18.4006 0.630592 17.2728 0 16.0055 0C14.7383 0 13.6105 0.630592 12.9246 1.58815C12.8082 1.75163 12.6106 1.85673 12.4013 1.85673C12.3687 1.85673 12.3361 1.85715 12.3037 1.85798C10.256 1.91005 8.61117 3.59445 8.61117 5.66361V5.67529C8.61117 6.3993 8.4019 7.11163 8.00661 7.71886L8.00396 7.7231C7.61035 8.3294 7.37891 9.04026 7.37891 9.8208C7.37891 10.4164 7.51842 10.9653 7.75094 11.4674C7.83232 11.6308 7.83232 11.8293 7.75094 11.9929C7.51842 12.4833 7.37891 13.0321 7.37891 13.616C7.37891 15.6713 9.02984 17.3295 11.076 17.3295H20.9352C22.9815 17.3295 24.6323 15.6713 24.6323 13.616C24.6323 13.0321 24.4928 12.4833 24.2603 11.9929C24.1789 11.8293 24.1789 11.6308 24.2603 11.4674ZM10.1753 8.38367H10.1612L11.5383 11.1017C11.6799 14.3355 12.9364 11.1017 16.0055 11.1017C19.0746 11.1017 20.4129 14.7012 20.5545 11.4674L21.8595 7.77817C21.7978 6.34175 20.7614 6.24094 20.5545 6.24094H16.8552C15.3944 6.24094 14.0159 5.52277 13.1914 4.31012C13.0499 4.10997 12.7554 4.14529 12.6612 4.36899L12.5669 4.59267C12.3078 5.2402 11.8129 5.73468 11.2003 6.01724C11.1826 6.02313 11.1621 6.03195 11.1414 6.04079C11.1208 6.04962 11.1002 6.05844 11.0825 6.06434C10.8115 6.20561 10.1753 6.62945 10.1517 7.72436L10.1635 8.07756L10.1753 8.38367Z" fill="url(#paint10_radial_265_425)"/>
    <path fill-rule="evenodd" clip-rule="evenodd" d="M24.2603 11.4674C24.5045 10.9653 24.6323 10.4047 24.6323 9.8208C24.6323 9.2816 24.5219 8.77562 24.3238 8.31441H24.33C24.2376 8.10557 24.1336 7.90826 24.0069 7.72248L24.0046 7.71886C23.6092 7.11163 23.3999 6.3993 23.3999 5.67529V5.66361C23.3999 3.56166 21.7025 1.85673 19.6098 1.85673C19.4005 1.85673 19.2029 1.76332 19.0866 1.58815C18.4006 0.630592 17.2728 0 16.0055 0C14.7383 0 13.6105 0.630592 12.9246 1.58815C12.8082 1.75163 12.6106 1.85673 12.4013 1.85673C12.3687 1.85673 12.3361 1.85715 12.3037 1.85798C10.256 1.91005 8.61117 3.59445 8.61117 5.66361V5.67529C8.61117 6.3993 8.4019 7.11163 8.00661 7.71886L8.00396 7.7231C7.61035 8.3294 7.37891 9.04026 7.37891 9.8208C7.37891 10.4164 7.51842 10.9653 7.75094 11.4674C7.83232 11.6308 7.83232 11.8293 7.75094 11.9929C7.51842 12.4833 7.37891 13.0321 7.37891 13.616C7.37891 15.6713 9.02984 17.3295 11.076 17.3295H20.9352C22.9815 17.3295 24.6323 15.6713 24.6323 13.616C24.6323 13.0321 24.4928 12.4833 24.2603 11.9929C24.1789 11.8293 24.1789 11.6308 24.2603 11.4674ZM10.1753 8.38367H10.1612L11.5383 11.1017C11.6799 14.3355 12.9364 11.1017 16.0055 11.1017C19.0746 11.1017 20.4129 14.7012 20.5545 11.4674L21.8595 7.77817C21.7978 6.34175 20.7614 6.24094 20.5545 6.24094H16.8552C15.3944 6.24094 14.0159 5.52277 13.1914 4.31012C13.0499 4.10997 12.7554 4.14529 12.6612 4.36899L12.5669 4.59267C12.3078 5.2402 11.8129 5.73468 11.2003 6.01724C11.1826 6.02313 11.1621 6.03195 11.1414 6.04079C11.1208 6.04962 11.1002 6.05844 11.0825 6.06434C10.8115 6.20561 10.1753 6.62945 10.1517 7.72436L10.1635 8.07756L10.1753 8.38367Z" fill="url(#paint11_radial_265_425)"/>
    <path fill-rule="evenodd" clip-rule="evenodd" d="M24.2603 11.4674C24.5045 10.9653 24.6323 10.4047 24.6323 9.8208C24.6323 9.2816 24.5219 8.77562 24.3238 8.31441H24.33C24.2376 8.10557 24.1336 7.90826 24.0069 7.72248L24.0046 7.71886C23.6092 7.11163 23.3999 6.3993 23.3999 5.67529V5.66361C23.3999 3.56166 21.7025 1.85673 19.6098 1.85673C19.4005 1.85673 19.2029 1.76332 19.0866 1.58815C18.4006 0.630592 17.2728 0 16.0055 0C14.7383 0 13.6105 0.630592 12.9246 1.58815C12.8082 1.75163 12.6106 1.85673 12.4013 1.85673C12.3687 1.85673 12.3361 1.85715 12.3037 1.85798C10.256 1.91005 8.61117 3.59445 8.61117 5.66361V5.67529C8.61117 6.3993 8.4019 7.11163 8.00661 7.71886L8.00396 7.7231C7.61035 8.3294 7.37891 9.04026 7.37891 9.8208C7.37891 10.4164 7.51842 10.9653 7.75094 11.4674C7.83232 11.6308 7.83232 11.8293 7.75094 11.9929C7.51842 12.4833 7.37891 13.0321 7.37891 13.616C7.37891 15.6713 9.02984 17.3295 11.076 17.3295H20.9352C22.9815 17.3295 24.6323 15.6713 24.6323 13.616C24.6323 13.0321 24.4928 12.4833 24.2603 11.9929C24.1789 11.8293 24.1789 11.6308 24.2603 11.4674ZM10.1753 8.38367H10.1612L11.5383 11.1017C11.6799 14.3355 12.9364 11.1017 16.0055 11.1017C19.0746 11.1017 20.4129 14.7012 20.5545 11.4674L21.8595 7.77817C21.7978 6.34175 20.7614 6.24094 20.5545 6.24094H16.8552C15.3944 6.24094 14.0159 5.52277 13.1914 4.31012C13.0499 4.10997 12.7554 4.14529 12.6612 4.36899L12.5669 4.59267C12.3078 5.2402 11.8129 5.73468 11.2003 6.01724C11.1826 6.02313 11.1621 6.03195 11.1414 6.04079C11.1208 6.04962 11.1002 6.05844 11.0825 6.06434C10.8115 6.20561 10.1753 6.62945 10.1517 7.72436L10.1635 8.07756L10.1753 8.38367Z" fill="url(#paint12_radial_265_425)"/>
    <path fill-rule="evenodd" clip-rule="evenodd" d="M24.2603 11.4674C24.5045 10.9653 24.6323 10.4047 24.6323 9.8208C24.6323 9.2816 24.5219 8.77562 24.3238 8.31441H24.33C24.2376 8.10557 24.1336 7.90826 24.0069 7.72248L24.0046 7.71886C23.6092 7.11163 23.3999 6.3993 23.3999 5.67529V5.66361C23.3999 3.56166 21.7025 1.85673 19.6098 1.85673C19.4005 1.85673 19.2029 1.76332 19.0866 1.58815C18.4006 0.630592 17.2728 0 16.0055 0C14.7383 0 13.6105 0.630592 12.9246 1.58815C12.8082 1.75163 12.6106 1.85673 12.4013 1.85673C12.3687 1.85673 12.3361 1.85715 12.3037 1.85798C10.256 1.91005 8.61117 3.59445 8.61117 5.66361V5.67529C8.61117 6.3993 8.4019 7.11163 8.00661 7.71886L8.00396 7.7231C7.61035 8.3294 7.37891 9.04026 7.37891 9.8208C7.37891 10.4164 7.51842 10.9653 7.75094 11.4674C7.83232 11.6308 7.83232 11.8293 7.75094 11.9929C7.51842 12.4833 7.37891 13.0321 7.37891 13.616C7.37891 15.6713 9.02984 17.3295 11.076 17.3295H20.9352C22.9815 17.3295 24.6323 15.6713 24.6323 13.616C24.6323 13.0321 24.4928 12.4833 24.2603 11.9929C24.1789 11.8293 24.1789 11.6308 24.2603 11.4674ZM10.1753 8.38367H10.1612L11.5383 11.1017C11.6799 14.3355 12.9364 11.1017 16.0055 11.1017C19.0746 11.1017 20.4129 14.7012 20.5545 11.4674L21.8595 7.77817C21.7978 6.34175 20.7614 6.24094 20.5545 6.24094H16.8552C15.3944 6.24094 14.0159 5.52277 13.1914 4.31012C13.0499 4.10997 12.7554 4.14529 12.6612 4.36899L12.5669 4.59267C12.3078 5.2402 11.8129 5.73468 11.2003 6.01724C11.1826 6.02313 11.1621 6.03195 11.1414 6.04079C11.1208 6.04962 11.1002 6.05844 11.0825 6.06434C10.8115 6.20561 10.1753 6.62945 10.1517 7.72436L10.1635 8.07756L10.1753 8.38367Z" fill="url(#paint13_radial_265_425)"/>
    <path fill-rule="evenodd" clip-rule="evenodd" d="M24.2603 11.4674C24.5045 10.9653 24.6323 10.4047 24.6323 9.8208C24.6323 9.2816 24.5219 8.77562 24.3238 8.31441H24.33C24.2376 8.10557 24.1336 7.90826 24.0069 7.72248L24.0046 7.71886C23.6092 7.11163 23.3999 6.3993 23.3999 5.67529V5.66361C23.3999 3.56166 21.7025 1.85673 19.6098 1.85673C19.4005 1.85673 19.2029 1.76332 19.0866 1.58815C18.4006 0.630592 17.2728 0 16.0055 0C14.7383 0 13.6105 0.630592 12.9246 1.58815C12.8082 1.75163 12.6106 1.85673 12.4013 1.85673C12.3687 1.85673 12.3361 1.85715 12.3037 1.85798C10.256 1.91005 8.61117 3.59445 8.61117 5.66361V5.67529C8.61117 6.3993 8.4019 7.11163 8.00661 7.71886L8.00396 7.7231C7.61035 8.3294 7.37891 9.04026 7.37891 9.8208C7.37891 10.4164 7.51842 10.9653 7.75094 11.4674C7.83232 11.6308 7.83232 11.8293 7.75094 11.9929C7.51842 12.4833 7.37891 13.0321 7.37891 13.616C7.37891 15.6713 9.02984 17.3295 11.076 17.3295H20.9352C22.9815 17.3295 24.6323 15.6713 24.6323 13.616C24.6323 13.0321 24.4928 12.4833 24.2603 11.9929C24.1789 11.8293 24.1789 11.6308 24.2603 11.4674ZM10.1753 8.38367H10.1612L11.5383 11.1017C11.6799 14.3355 12.9364 11.1017 16.0055 11.1017C19.0746 11.1017 20.4129 14.7012 20.5545 11.4674L21.8595 7.77817C21.7978 6.34175 20.7614 6.24094 20.5545 6.24094H16.8552C15.3944 6.24094 14.0159 5.52277 13.1914 4.31012C13.0499 4.10997 12.7554 4.14529 12.6612 4.36899L12.5669 4.59267C12.3078 5.2402 11.8129 5.73468 11.2003 6.01724C11.1826 6.02313 11.1621 6.03195 11.1414 6.04079C11.1208 6.04962 11.1002 6.05844 11.0825 6.06434C10.8115 6.20561 10.1753 6.62945 10.1517 7.72436L10.1635 8.07756L10.1753 8.38367Z" fill="url(#paint14_radial_265_425)"/>
    <path fill-rule="evenodd" clip-rule="evenodd" d="M24.2603 11.4674C24.5045 10.9653 24.6323 10.4047 24.6323 9.8208C24.6323 9.2816 24.5219 8.77562 24.3238 8.31441H24.33C24.2376 8.10557 24.1336 7.90826 24.0069 7.72248L24.0046 7.71886C23.6092 7.11163 23.3999 6.3993 23.3999 5.67529V5.66361C23.3999 3.56166 21.7025 1.85673 19.6098 1.85673C19.4005 1.85673 19.2029 1.76332 19.0866 1.58815C18.4006 0.630592 17.2728 0 16.0055 0C14.7383 0 13.6105 0.630592 12.9246 1.58815C12.8082 1.75163 12.6106 1.85673 12.4013 1.85673C12.3687 1.85673 12.3361 1.85715 12.3037 1.85798C10.256 1.91005 8.61117 3.59445 8.61117 5.66361V5.67529C8.61117 6.3993 8.4019 7.11163 8.00661 7.71886L8.00396 7.7231C7.61035 8.3294 7.37891 9.04026 7.37891 9.8208C7.37891 10.4164 7.51842 10.9653 7.75094 11.4674C7.83232 11.6308 7.83232 11.8293 7.75094 11.9929C7.51842 12.4833 7.37891 13.0321 7.37891 13.616C7.37891 15.6713 9.02984 17.3295 11.076 17.3295H20.9352C22.9815 17.3295 24.6323 15.6713 24.6323 13.616C24.6323 13.0321 24.4928 12.4833 24.2603 11.9929C24.1789 11.8293 24.1789 11.6308 24.2603 11.4674ZM10.1753 8.38367H10.1612L11.5383 11.1017C11.6799 14.3355 12.9364 11.1017 16.0055 11.1017C19.0746 11.1017 20.4129 14.7012 20.5545 11.4674L21.8595 7.77817C21.7978 6.34175 20.7614 6.24094 20.5545 6.24094H16.8552C15.3944 6.24094 14.0159 5.52277 13.1914 4.31012C13.0499 4.10997 12.7554 4.14529 12.6612 4.36899L12.5669 4.59267C12.3078 5.2402 11.8129 5.73468 11.2003 6.01724C11.1826 6.02313 11.1621 6.03195 11.1414 6.04079C11.1208 6.04962 11.1002 6.05844 11.0825 6.06434C10.8115 6.20561 10.1753 6.62945 10.1517 7.72436L10.1635 8.07756L10.1753 8.38367Z" fill="url(#paint15_radial_265_425)"/>
    <path fill-rule="evenodd" clip-rule="evenodd" d="M24.2603 11.4674C24.5045 10.9653 24.6323 10.4047 24.6323 9.8208C24.6323 9.2816 24.5219 8.77562 24.3238 8.31441H24.33C24.2376 8.10557 24.1336 7.90826 24.0069 7.72248L24.0046 7.71886C23.6092 7.11163 23.3999 6.3993 23.3999 5.67529V5.66361C23.3999 3.56166 21.7025 1.85673 19.6098 1.85673C19.4005 1.85673 19.2029 1.76332 19.0866 1.58815C18.4006 0.630592 17.2728 0 16.0055 0C14.7383 0 13.6105 0.630592 12.9246 1.58815C12.8082 1.75163 12.6106 1.85673 12.4013 1.85673C12.3687 1.85673 12.3361 1.85715 12.3037 1.85798C10.256 1.91005 8.61117 3.59445 8.61117 5.66361V5.67529C8.61117 6.3993 8.4019 7.11163 8.00661 7.71886L8.00396 7.7231C7.61035 8.3294 7.37891 9.04026 7.37891 9.8208C7.37891 10.4164 7.51842 10.9653 7.75094 11.4674C7.83232 11.6308 7.83232 11.8293 7.75094 11.9929C7.51842 12.4833 7.37891 13.0321 7.37891 13.616C7.37891 15.6713 9.02984 17.3295 11.076 17.3295H20.9352C22.9815 17.3295 24.6323 15.6713 24.6323 13.616C24.6323 13.0321 24.4928 12.4833 24.2603 11.9929C24.1789 11.8293 24.1789 11.6308 24.2603 11.4674ZM10.1753 8.38367H10.1612L11.5383 11.1017C11.6799 14.3355 12.9364 11.1017 16.0055 11.1017C19.0746 11.1017 20.4129 14.7012 20.5545 11.4674L21.8595 7.77817C21.7978 6.34175 20.7614 6.24094 20.5545 6.24094H16.8552C15.3944 6.24094 14.0159 5.52277 13.1914 4.31012C13.0499 4.10997 12.7554 4.14529 12.6612 4.36899L12.5669 4.59267C12.3078 5.2402 11.8129 5.73468 11.2003 6.01724C11.1826 6.02313 11.1621 6.03195 11.1414 6.04079C11.1208 6.04962 11.1002 6.05844 11.0825 6.06434C10.8115 6.20561 10.1753 6.62945 10.1517 7.72436L10.1635 8.07756L10.1753 8.38367Z" fill="url(#paint16_radial_265_425)"/>
    <path fill-rule="evenodd" clip-rule="evenodd" d="M24.2603 11.4674C24.5045 10.9653 24.6323 10.4047 24.6323 9.8208C24.6323 9.2816 24.5219 8.77562 24.3238 8.31441H24.33C24.2376 8.10557 24.1336 7.90826 24.0069 7.72248L24.0046 7.71886C23.6092 7.11163 23.3999 6.3993 23.3999 5.67529V5.66361C23.3999 3.56166 21.7025 1.85673 19.6098 1.85673C19.4005 1.85673 19.2029 1.76332 19.0866 1.58815C18.4006 0.630592 17.2728 0 16.0055 0C14.7383 0 13.6105 0.630592 12.9246 1.58815C12.8082 1.75163 12.6106 1.85673 12.4013 1.85673C12.3687 1.85673 12.3361 1.85715 12.3037 1.85798C10.256 1.91005 8.61117 3.59445 8.61117 5.66361V5.67529C8.61117 6.3993 8.4019 7.11163 8.00661 7.71886L8.00396 7.7231C7.61035 8.3294 7.37891 9.04026 7.37891 9.8208C7.37891 10.4164 7.51842 10.9653 7.75094 11.4674C7.83232 11.6308 7.83232 11.8293 7.75094 11.9929C7.51842 12.4833 7.37891 13.0321 7.37891 13.616C7.37891 15.6713 9.02984 17.3295 11.076 17.3295H20.9352C22.9815 17.3295 24.6323 15.6713 24.6323 13.616C24.6323 13.0321 24.4928 12.4833 24.2603 11.9929C24.1789 11.8293 24.1789 11.6308 24.2603 11.4674ZM10.1753 8.38367H10.1612L11.5383 11.1017C11.6799 14.3355 12.9364 11.1017 16.0055 11.1017C19.0746 11.1017 20.4129 14.7012 20.5545 11.4674L21.8595 7.77817C21.7978 6.34175 20.7614 6.24094 20.5545 6.24094H16.8552C15.3944 6.24094 14.0159 5.52277 13.1914 4.31012C13.0499 4.10997 12.7554 4.14529 12.6612 4.36899L12.5669 4.59267C12.3078 5.2402 11.8129 5.73468 11.2003 6.01724C11.1826 6.02313 11.1621 6.03195 11.1414 6.04079C11.1208 6.04962 11.1002 6.05844 11.0825 6.06434C10.8115 6.20561 10.1753 6.62945 10.1517 7.72436L10.1635 8.07756L10.1753 8.38367Z" fill="url(#paint17_radial_265_425)"/>
    <path d="M16.011 15.3437C9.06892 15.3437 3.43066 20.9953 3.43066 27.9794V31.9999H28.5798V27.9794C28.5798 20.9953 22.953 15.3437 16.011 15.3437Z" fill="url(#paint18_radial_265_425)"/>
    <path d="M16.011 15.3437C9.06892 15.3437 3.43066 20.9953 3.43066 27.9794V31.9999H28.5798V27.9794C28.5798 20.9953 22.953 15.3437 16.011 15.3437Z" fill="url(#paint19_radial_265_425)"/>
    <path d="M16.011 15.3437C9.06892 15.3437 3.43066 20.9953 3.43066 27.9794V31.9999H28.5798V27.9794C28.5798 20.9953 22.953 15.3437 16.011 15.3437Z" fill="url(#paint20_radial_265_425)"/>
    <path d="M23.6396 31.9983V17.9327C26.6431 20.2407 28.5803 23.8799 28.5803 27.9779V31.9983H23.6396Z" fill="url(#paint21_radial_265_425)"/>
    <path d="M23.6396 31.9983V17.9327C26.6431 20.2407 28.5803 23.8799 28.5803 27.9779V31.9983H23.6396Z" fill="url(#paint22_linear_265_425)"/>
    <path d="M23.6396 31.9983V17.9327C26.6431 20.2407 28.5803 23.8799 28.5803 27.9779V31.9983H23.6396Z" fill="url(#paint23_linear_265_425)"/>
    <path d="M8.33712 31.9983V17.9327C5.33368 20.2407 3.39648 23.8799 3.39648 27.9779V31.9983H8.33712Z" fill="url(#paint24_linear_265_425)"/>
    <path d="M8.33712 31.9983V17.9327C5.33368 20.2407 3.39648 23.8799 3.39648 27.9779V31.9983H8.33712Z" fill="url(#paint25_radial_265_425)"/>
    <path d="M18.3557 14.4644H13.6553V32H18.3557V14.4644Z" fill="url(#paint26_radial_265_425)"/>
    <path d="M19.7837 15.9178L21.3862 19.3506C21.4891 19.5688 21.329 19.8216 21.0888 19.8216L19.9868 19.5167C19.5043 19.3955 19.4877 19.8345 19.6707 20.0183L21.2261 21.8106C21.5234 22.1093 21.6378 22.5573 21.4891 22.9594L18.3555 31.9996V15.4332L19.7837 15.9178Z" fill="url(#paint27_linear_265_425)"/>
    <path d="M19.7837 15.9178L21.3862 19.3506C21.4891 19.5688 21.329 19.8216 21.0888 19.8216L19.9868 19.5167C19.5043 19.3955 19.4877 19.8345 19.6707 20.0183L21.2261 21.8106C21.5234 22.1093 21.6378 22.5573 21.4891 22.9594L18.3555 31.9996V15.4332L19.7837 15.9178Z" fill="url(#paint28_radial_265_425)"/>
    <path d="M19.7837 15.9178L21.3862 19.3506C21.4891 19.5688 21.329 19.8216 21.0888 19.8216L19.9868 19.5167C19.5043 19.3955 19.4877 19.8345 19.6707 20.0183L21.2261 21.8106C21.5234 22.1093 21.6378 22.5573 21.4891 22.9594L18.3555 31.9996V15.4332L19.7837 15.9178Z" fill="url(#paint29_radial_265_425)"/>
    <path d="M19.7837 15.9178L21.3862 19.3506C21.4891 19.5688 21.329 19.8216 21.0888 19.8216L19.9868 19.5167C19.5043 19.3955 19.4877 19.8345 19.6707 20.0183L21.2261 21.8106C21.5234 22.1093 21.6378 22.5573 21.4891 22.9594L18.3555 31.9996V15.4332L19.7837 15.9178Z" fill="url(#paint30_radial_265_425)"/>
    <path d="M12.1808 15.9353L10.6249 19.3501C10.522 19.5684 10.6821 19.8211 10.9223 19.8211L12.0244 19.5161C12.5069 19.395 12.5234 19.8341 12.3404 20.0179L10.785 21.8102C10.4877 22.1089 10.3733 22.5568 10.522 22.9589L13.6556 31.9992V15.4332L12.1808 15.9353Z" fill="url(#paint31_linear_265_425)"/>
    <path d="M12.1808 15.9353L10.6249 19.3501C10.522 19.5684 10.6821 19.8211 10.9223 19.8211L12.0244 19.5161C12.5069 19.395 12.5234 19.8341 12.3404 20.0179L10.785 21.8102C10.4877 22.1089 10.3733 22.5568 10.522 22.9589L13.6556 31.9992V15.4332L12.1808 15.9353Z" fill="url(#paint32_radial_265_425)"/>
    <path d="M12.1808 15.9353L10.6249 19.3501C10.522 19.5684 10.6821 19.8211 10.9223 19.8211L12.0244 19.5161C12.5069 19.395 12.5234 19.8341 12.3404 20.0179L10.785 21.8102C10.4877 22.1089 10.3733 22.5568 10.522 22.9589L13.6556 31.9992V15.4332L12.1808 15.9353Z" fill="url(#paint33_linear_265_425)"/>
    <path d="M12.1808 15.9353L10.6249 19.3501C10.522 19.5684 10.6821 19.8211 10.9223 19.8211L12.0244 19.5161C12.5069 19.395 12.5234 19.8341 12.3404 20.0179L10.785 21.8102C10.4877 22.1089 10.3733 22.5568 10.522 22.9589L13.6556 31.9992V15.4332L12.1808 15.9353Z" fill="url(#paint34_radial_265_425)"/>
    <path d="M15.9888 18.4783C14.685 18.4783 13.6328 17.4215 13.6328 16.112V13.1713C13.6328 11.8618 14.685 10.805 15.9888 10.805C17.2925 10.805 18.3447 11.8618 18.3447 13.1713V16.112C18.3333 17.4215 17.2811 18.4783 15.9888 18.4783Z" fill="url(#paint35_radial_265_425)"/>
    <path d="M22.923 24.0825C23.552 24.0825 24.0666 24.5994 24.0666 25.2312V27.8617H21.7793V25.2312C21.7793 24.5994 22.2825 24.0825 22.923 24.0825Z" fill="url(#paint36_radial_265_425)"/>
    <path d="M9.08799 24.0733C8.45897 24.0733 7.94434 24.5902 7.94434 25.222V27.8525H10.2317V25.222C10.2317 24.5902 9.72844 24.0733 9.08799 24.0733Z" fill="url(#paint37_radial_265_425)"/>
    <path d="M9.50391 22.6726V32.0001H22.473V21.4435C22.473 20.9266 22.0613 20.513 21.5467 20.513H11.6654C10.4646 20.5016 9.50391 21.478 9.50391 22.6726Z" fill="url(#paint38_linear_265_425)"/>
    <path fill-rule="evenodd" clip-rule="evenodd" d="M11.8986 31.9997V22.3435H9.50391V31.9997H11.8986Z" fill="#513358"/>
    <path fill-rule="evenodd" clip-rule="evenodd" d="M11.8986 31.9997V22.3435H9.50391V31.9997H11.8986Z" fill="url(#paint39_linear_265_425)"/>
    <path d="M12.9683 26.6808C12.9785 26.9992 12.8361 27.2823 12.6226 27.4474C12.8259 27.6008 12.9683 27.8721 12.9683 28.1787C12.9683 28.4854 12.8361 28.7567 12.6226 28.9099C12.8259 29.0633 12.9683 29.3346 12.9683 29.6412C12.9683 29.9479 12.8361 30.2192 12.6226 30.3725C12.8361 30.5377 12.9683 30.8207 12.9683 31.1392C12.9581 31.6227 12.6022 32.0002 12.1853 32.0002H8.82913C8.34096 32.0002 7.94434 31.5402 7.94434 30.974V26.8341C7.94434 26.2679 8.34096 25.808 8.82913 25.808H12.0795C12.6226 25.808 12.9594 26.2566 12.9683 26.6808Z" fill="url(#paint40_linear_265_425)"/>
    <path d="M19.0425 26.6808C19.0323 26.9992 19.1747 27.2823 19.3883 27.4474C19.1849 27.6008 19.0425 27.8721 19.0425 28.1787C19.0425 28.4854 19.1747 28.7567 19.3883 28.9099C19.1849 29.0633 19.0425 29.3346 19.0425 29.6412C19.0425 29.9479 19.1747 30.2192 19.3883 30.3725C19.1747 30.5377 19.0425 30.8207 19.0425 31.1392C19.0527 31.6227 19.4086 32.0002 19.8256 32.0002H23.1818C23.6699 32.0002 24.0665 31.5402 24.0665 30.974V26.8341C24.0665 26.2679 23.6699 25.808 23.1818 25.808H19.9314C19.3883 25.808 19.0514 26.2566 19.0425 26.6808Z" fill="url(#paint41_linear_265_425)"/>
    <path d="M22.473 23.9412V21.3155C22.473 20.8697 22.0613 20.5131 21.5467 20.5131H11.6654C11.6587 20.5129 11.6519 20.5129 11.6452 20.5129H11.6438C10.4531 20.5133 9.50391 21.3515 9.50391 22.3757C9.50391 23.2403 10.2018 23.9412 11.0626 23.9412H22.473Z" fill="url(#paint42_linear_265_425)"/>
    <path d="M10.457 22.2271C10.457 21.786 10.8131 21.4284 11.2522 21.4284H22.4732V23.0258H11.2522C10.8131 23.0258 10.457 22.6682 10.457 22.2271Z" fill="url(#paint43_linear_265_425)"/>
    <path d="M19.4639 27.45H21.6618" stroke="url(#paint44_linear_265_425)" stroke-width="0.61414" stroke-linecap="round"/>
    <path d="M12.4978 27.45H10.2998" stroke="url(#paint45_linear_265_425)" stroke-width="0.61414" stroke-linecap="round"/>
    <path d="M19.4639 28.9036H21.6618" stroke="url(#paint46_linear_265_425)" stroke-width="0.61414" stroke-linecap="round"/>
    <path d="M12.4978 28.9036H10.2998" stroke="url(#paint47_linear_265_425)" stroke-width="0.61414" stroke-linecap="round"/>
    <path d="M19.4639 30.3575H21.6618" stroke="url(#paint48_linear_265_425)" stroke-width="0.61414" stroke-linecap="round"/>
    <path d="M12.4978 30.3575H10.2998" stroke="url(#paint49_linear_265_425)" stroke-width="0.61414" stroke-linecap="round"/>
    <path d="M10.622 11.6986C11.643 11.6986 12.4706 10.8672 12.4706 9.84179C12.4706 8.8164 11.643 7.98511 10.622 7.98511C9.60108 7.98511 8.77344 8.8164 8.77344 9.84179C8.77344 10.8672 9.60108 11.6986 10.622 11.6986Z" fill="url(#paint50_linear_265_425)"/>
    <path d="M21.5507 11.6986C22.5716 11.6986 23.3993 10.8672 23.3993 9.84179C23.3993 8.8164 22.5716 7.98511 21.5507 7.98511C20.5297 7.98511 19.7021 8.8164 19.7021 9.84179C19.7021 10.8672 20.5297 11.6986 21.5507 11.6986Z" fill="url(#paint51_radial_265_425)"/>
    <path d="M21.5514 11.0806C22.2329 11.0806 22.7854 10.5257 22.7854 9.84117C22.7854 9.15666 22.2329 8.60175 21.5514 8.60175C20.8699 8.60175 20.3174 9.15666 20.3174 9.84117C20.3174 10.5257 20.8699 11.0806 21.5514 11.0806Z" fill="#FFCA38"/>
    <path d="M21.5514 11.0806C22.2329 11.0806 22.7854 10.5257 22.7854 9.84117C22.7854 9.15666 22.2329 8.60175 21.5514 8.60175C20.8699 8.60175 20.3174 9.15666 20.3174 9.84117C20.3174 10.5257 20.8699 11.0806 21.5514 11.0806Z" fill="url(#paint52_radial_265_425)"/>
    <path d="M10.6451 11.0806C11.3267 11.0806 11.879 10.5257 11.879 9.84117C11.879 9.15666 11.3267 8.60175 10.6451 8.60175C9.96364 8.60175 9.41113 9.15666 9.41113 9.84117C9.41113 10.5257 9.96364 11.0806 10.6451 11.0806Z" fill="#E28527"/>
    <path d="M10.6451 11.0806C11.3267 11.0806 11.879 10.5257 11.879 9.84117C11.879 9.15666 11.3267 8.60175 10.6451 8.60175C9.96364 8.60175 9.41113 9.15666 9.41113 9.84117C9.41113 10.5257 9.96364 11.0806 10.6451 11.0806Z" fill="url(#paint53_radial_265_425)"/>
    <path d="M10.1609 8.38568H10.1749L10.1631 8.07957L10.1514 7.72637C10.1749 6.63146 10.8111 6.20762 11.0821 6.06634C11.0998 6.06045 11.1204 6.05163 11.141 6.0428C11.1617 6.03396 11.1823 6.02514 11.1999 6.01925C11.8125 5.73669 12.3074 5.24222 12.5666 4.59468L12.6608 4.371C12.755 4.1473 13.0495 4.11198 13.191 4.31213C14.0156 5.52478 15.394 6.24295 16.8548 6.24295H20.5541C20.761 6.24295 21.7974 6.34377 21.8592 7.78017L21.7227 11.3261C21.581 14.56 19.0668 16.7315 15.9978 16.7315C12.9286 16.7315 10.4144 14.56 10.2728 11.3261L10.1609 8.38568Z" fill="url(#paint54_radial_265_425)"/>
    <path d="M10.1609 8.38568H10.1749L10.1631 8.07957L10.1514 7.72637C10.1749 6.63146 10.8111 6.20762 11.0821 6.06634C11.0998 6.06045 11.1204 6.05163 11.141 6.0428C11.1617 6.03396 11.1823 6.02514 11.1999 6.01925C11.8125 5.73669 12.3074 5.24222 12.5666 4.59468L12.6608 4.371C12.755 4.1473 13.0495 4.11198 13.191 4.31213C14.0156 5.52478 15.394 6.24295 16.8548 6.24295H20.5541C20.761 6.24295 21.7974 6.34377 21.8592 7.78017L21.7227 11.3261C21.581 14.56 19.0668 16.7315 15.9978 16.7315C12.9286 16.7315 10.4144 14.56 10.2728 11.3261L10.1609 8.38568Z" fill="url(#paint55_radial_265_425)"/>
    <path d="M10.1609 8.38568H10.1749L10.1631 8.07957L10.1514 7.72637C10.1749 6.63146 10.8111 6.20762 11.0821 6.06634C11.0998 6.06045 11.1204 6.05163 11.141 6.0428C11.1617 6.03396 11.1823 6.02514 11.1999 6.01925C11.8125 5.73669 12.3074 5.24222 12.5666 4.59468L12.6608 4.371C12.755 4.1473 13.0495 4.11198 13.191 4.31213C14.0156 5.52478 15.394 6.24295 16.8548 6.24295H20.5541C20.761 6.24295 21.7974 6.34377 21.8592 7.78017L21.7227 11.3261C21.581 14.56 19.0668 16.7315 15.9978 16.7315C12.9286 16.7315 10.4144 14.56 10.2728 11.3261L10.1609 8.38568Z" fill="url(#paint56_radial_265_425)"/>
    <path d="M10.1609 8.38568H10.1749L10.1631 8.07957L10.1514 7.72637C10.1749 6.63146 10.8111 6.20762 11.0821 6.06634C11.0998 6.06045 11.1204 6.05163 11.141 6.0428C11.1617 6.03396 11.1823 6.02514 11.1999 6.01925C11.8125 5.73669 12.3074 5.24222 12.5666 4.59468L12.6608 4.371C12.755 4.1473 13.0495 4.11198 13.191 4.31213C14.0156 5.52478 15.394 6.24295 16.8548 6.24295H20.5541C20.761 6.24295 21.7974 6.34377 21.8592 7.78017L21.7227 11.3261C21.581 14.56 19.0668 16.7315 15.9978 16.7315C12.9286 16.7315 10.4144 14.56 10.2728 11.3261L10.1609 8.38568Z" fill="url(#paint57_radial_265_425)"/>
    <path d="M10.1609 8.38568H10.1749L10.1631 8.07957L10.1514 7.72637C10.1749 6.63146 10.8111 6.20762 11.0821 6.06634C11.0998 6.06045 11.1204 6.05163 11.141 6.0428C11.1617 6.03396 11.1823 6.02514 11.1999 6.01925C11.8125 5.73669 12.3074 5.24222 12.5666 4.59468L12.6608 4.371C12.755 4.1473 13.0495 4.11198 13.191 4.31213C14.0156 5.52478 15.394 6.24295 16.8548 6.24295H20.5541C20.761 6.24295 21.7974 6.34377 21.8592 7.78017L21.7227 11.3261C21.581 14.56 19.0668 16.7315 15.9978 16.7315C12.9286 16.7315 10.4144 14.56 10.2728 11.3261L10.1609 8.38568Z" fill="url(#paint58_radial_265_425)"/>
    <path d="M10.1609 8.38568H10.1749L10.1631 8.07957L10.1514 7.72637C10.1749 6.63146 10.8111 6.20762 11.0821 6.06634C11.0998 6.06045 11.1204 6.05163 11.141 6.0428C11.1617 6.03396 11.1823 6.02514 11.1999 6.01925C11.8125 5.73669 12.3074 5.24222 12.5666 4.59468L12.6608 4.371C12.755 4.1473 13.0495 4.11198 13.191 4.31213C14.0156 5.52478 15.394 6.24295 16.8548 6.24295H20.5541C20.761 6.24295 21.7974 6.34377 21.8592 7.78017L21.7227 11.3261C21.581 14.56 19.0668 16.7315 15.9978 16.7315C12.9286 16.7315 10.4144 14.56 10.2728 11.3261L10.1609 8.38568Z" fill="url(#paint59_radial_265_425)"/>
    <path d="M10.1609 8.38568H10.1749L10.1631 8.07957L10.1514 7.72637C10.1749 6.63146 10.8111 6.20762 11.0821 6.06634C11.0998 6.06045 11.1204 6.05163 11.141 6.0428C11.1617 6.03396 11.1823 6.02514 11.1999 6.01925C11.8125 5.73669 12.3074 5.24222 12.5666 4.59468L12.6608 4.371C12.755 4.1473 13.0495 4.11198 13.191 4.31213C14.0156 5.52478 15.394 6.24295 16.8548 6.24295H20.5541C20.761 6.24295 21.7974 6.34377 21.8592 7.78017L21.7227 11.3261C21.581 14.56 19.0668 16.7315 15.9978 16.7315C12.9286 16.7315 10.4144 14.56 10.2728 11.3261L10.1609 8.38568Z" fill="url(#paint60_radial_265_425)"/>
    <path d="M10.1609 8.38458H10.1749L10.1631 8.07847L10.1514 7.72527C10.1749 6.63036 10.8111 6.20652 11.0821 6.06525C11.0998 6.05935 11.1204 6.05053 11.141 6.0417C11.1617 6.03286 11.1823 6.02404 11.1999 6.01815C11.8125 5.73559 12.3074 5.24112 12.5666 4.59359L12.6608 4.3699C12.755 4.1462 13.0495 4.11088 13.191 4.31103C14.0156 5.52368 15.394 6.24185 16.8548 6.24185H20.5541C20.761 6.24185 21.7974 6.34267 21.8592 7.77908L21.7227 11.325C21.581 14.5589 19.0668 16.7304 15.9978 16.7304C12.9286 16.7304 10.4144 14.5589 10.2728 11.325L10.1609 8.38458Z" fill="url(#paint61_radial_265_425)"/>
    <path d="M15.5541 9.58239L14.7687 11.544C14.6442 11.9474 14.9433 12.351 15.3669 12.351H16.2704C16.694 12.351 16.993 11.9412 16.8684 11.544L16.2579 9.58239C16.1271 9.14783 15.6912 9.14783 15.5541 9.58239Z" fill="#EB8B29"/>
    <path d="M15.5659 9.42373L14.9553 11.3854C14.8307 11.7889 15.1298 12.1924 15.5534 12.1924H16.4568C16.8805 12.1924 17.1796 11.7827 17.0549 11.3854L16.4443 9.42373C16.3135 8.98921 15.703 8.98921 15.5659 9.42373Z" fill="url(#paint62_linear_265_425)"/>
    <path d="M15.5659 9.42373L14.9553 11.3854C14.8307 11.7889 15.1298 12.1924 15.5534 12.1924H16.4568C16.8805 12.1924 17.1796 11.7827 17.0549 11.3854L16.4443 9.42373C16.3135 8.98921 15.703 8.98921 15.5659 9.42373Z" fill="url(#paint63_radial_265_425)"/>
    <path d="M15.5659 9.42373L14.9553 11.3854C14.8307 11.7889 15.1298 12.1924 15.5534 12.1924H16.4568C16.8805 12.1924 17.1796 11.7827 17.0549 11.3854L16.4443 9.42373C16.3135 8.98921 15.703 8.98921 15.5659 9.42373Z" fill="url(#paint64_linear_265_425)"/>
    <path d="M15.5659 9.42373L14.9553 11.3854C14.8307 11.7889 15.1298 12.1924 15.5534 12.1924H16.4568C16.8805 12.1924 17.1796 11.7827 17.0549 11.3854L16.4443 9.42373C16.3135 8.98921 15.703 8.98921 15.5659 9.42373Z" fill="url(#paint65_linear_265_425)"/>
    <path d="M15.5659 9.42336L14.9553 11.385C14.8307 11.7885 15.1298 12.1921 15.5534 12.1921H16.4568C16.8805 12.1921 17.1796 11.7823 17.0549 11.385L16.4443 9.42336C16.3135 8.98884 15.703 8.98884 15.5659 9.42336Z" fill="url(#paint66_linear_265_425)"/>
    <path d="M15.5659 9.42336L14.9553 11.385C14.8307 11.7885 15.1298 12.1921 15.5534 12.1921H16.4568C16.8805 12.1921 17.1796 11.7823 17.0549 11.385L16.4443 9.42336C16.3135 8.98884 15.703 8.98884 15.5659 9.42336Z" fill="url(#paint67_radial_265_425)"/>
    <path d="M14.3985 12.7516C14.2917 12.6958 14.1802 12.7304 14.1144 12.8015C14.0485 12.8728 14.023 12.9862 14.0906 13.087C14.4955 13.717 15.201 14.1374 16.0049 14.1374C16.8089 14.1374 17.5145 13.7168 17.9194 13.0865C17.986 12.9836 17.9619 12.8703 17.895 12.799C17.8287 12.7282 17.7176 12.696 17.6116 12.7512C17.1475 12.9998 16.5999 13.1426 16.0049 13.1426C15.4157 13.1426 14.8626 13 14.3985 12.7516Z" fill="#8A004F" stroke="url(#paint68_linear_265_425)" stroke-width="0.61414"/>
    <path d="M17.3174 9.18452C17.6223 8.64587 18.0858 8.2204 19.0835 8.2204C19.5204 8.2204 19.9416 8.34197 20.3161 8.64587C20.6249 8.89654 20.5836 9.21725 20.3443 9.33741L19.7056 9.70361C18.9567 9.46055 18.1286 9.42758 17.3174 9.18452Z" fill="#635D5F"/>
    <path d="M14.694 9.18452C14.3891 8.64587 13.9255 8.2204 12.9278 8.2204C12.4909 8.2204 12.0697 8.34197 11.6953 8.64587C11.3865 8.89654 11.4278 9.21725 11.6669 9.33741L12.3058 9.70361C13.0546 9.46055 13.8826 9.42758 14.694 9.18452Z" fill="#635D5F"/>
    <path d="M12.1016 7.6991L12.0965 7.70202C12.0963 7.70211 12.0967 7.70192 12.0965 7.70202C11.9506 7.78942 11.7612 7.74221 11.6738 7.59587C11.5863 7.44932 11.6337 7.25913 11.7797 7.1712L11.7815 7.1701L11.7849 7.16809L11.7957 7.1618C11.8047 7.15665 11.8172 7.1496 11.833 7.14101C11.8645 7.12382 11.9095 7.10033 11.9662 7.07318C12.0794 7.01899 12.2408 6.94958 12.4374 6.88655C12.8278 6.76139 13.3739 6.65609 13.9634 6.76056C14.1309 6.79027 14.2428 6.95079 14.2133 7.11909C14.1836 7.2874 14.0239 7.39976 13.8563 7.37006C13.3982 7.28886 12.9583 7.36924 12.6247 7.47617C12.4593 7.52918 12.3242 7.58743 12.2313 7.63188C12.1851 7.65405 12.1496 7.67262 12.1265 7.68516C12.115 7.69144 12.1066 7.69618 12.1016 7.6991Z" fill="#BD4F26"/>
    <path fill-rule="evenodd" clip-rule="evenodd" d="M20.2918 7.1712C20.292 7.17125 20.2921 7.1713 20.1336 7.43665L20.2918 7.1712C20.4378 7.25913 20.4852 7.44932 20.3977 7.59587C20.3102 7.74222 20.1214 7.78981 19.9756 7.70237C19.9755 7.70231 19.9758 7.70253 19.9756 7.70237L19.97 7.6991C19.9649 7.69618 19.9565 7.69144 19.945 7.68516C19.922 7.67262 19.8865 7.65405 19.8402 7.63188C19.7473 7.58743 19.6122 7.52918 19.4468 7.47617C19.1132 7.36924 18.6733 7.28886 18.2153 7.37006C18.0476 7.39976 17.8879 7.2874 17.8582 7.11909C17.8287 6.95079 17.9406 6.79027 18.1081 6.76056C18.6976 6.65609 19.2437 6.76139 19.6341 6.88655C19.8307 6.94958 19.9921 7.01899 20.1053 7.07318C20.162 7.10033 20.207 7.12382 20.2385 7.14101C20.2543 7.1496 20.2668 7.15665 20.2758 7.1618L20.2866 7.16809L20.29 7.1701L20.2918 7.1712Z" fill="#BD4F26"/>
    <path d="M18.7521 8.2876C19.5024 8.2876 20.1362 8.80717 20.3087 9.50927C20.3599 9.71063 20.2061 9.90247 20.0011 9.90247H17.4379C17.2748 9.90247 17.1443 9.75268 17.1769 9.58887C17.3213 8.8493 17.9691 8.2876 18.7521 8.2876Z" fill="white"/>
    <path d="M18.5144 8.60175C19.0829 8.60175 19.5397 9.06511 19.5397 9.63153C19.5397 9.72515 19.5257 9.81877 19.5024 9.90309H17.5217C17.4983 9.81406 17.4844 9.72515 17.4844 9.63153C17.4844 9.06511 17.9457 8.60175 18.5144 8.60175Z" fill="url(#paint69_radial_265_425)"/>
    <path d="M17.9268 9.63137C17.9268 9.30376 18.1877 9.04163 18.514 9.04163C18.8402 9.04163 19.1012 9.30376 19.1012 9.63137C19.1012 9.7297 19.0779 9.82332 19.0359 9.90292H17.9966C17.9501 9.82332 17.9268 9.7297 17.9268 9.63137Z" fill="black"/>
    <path d="M18.4385 8.82108C18.5114 8.91903 18.3589 9.03845 18.1857 9.1686C18.0124 9.29875 17.8838 9.3903 17.8109 9.29231C17.738 9.19444 17.8193 9.00949 17.9927 8.87936C18.166 8.74923 18.3656 8.72313 18.4385 8.82108Z" fill="#C7A7A3"/>
    <path d="M18.4385 8.82108C18.5114 8.91903 18.3589 9.03845 18.1857 9.1686C18.0124 9.29875 17.8838 9.3903 17.8109 9.29231C17.738 9.19444 17.8193 9.00949 17.9927 8.87936C18.166 8.74923 18.3656 8.72313 18.4385 8.82108Z" fill="url(#paint70_radial_265_425)"/>
    <path d="M19.4267 9.49351C19.3888 9.22782 19.2339 9.02748 19.1613 8.96057L18.8633 9.28904L18.9978 9.55187L19.4267 9.49351Z" fill="url(#paint71_linear_265_425)"/>
    <path d="M13.258 8.2876C12.5076 8.2876 11.8738 8.80718 11.7013 9.50927C11.6501 9.71063 11.8039 9.90247 12.009 9.90247H14.5722C14.7354 9.90247 14.8658 9.75268 14.8331 9.58887C14.6887 8.8493 14.0362 8.2876 13.258 8.2876Z" fill="white"/>
    <path d="M13.496 8.60175C12.9275 8.60175 12.4707 9.06511 12.4707 9.63153C12.4707 9.72515 12.4847 9.81877 12.508 9.90309H14.4887C14.512 9.81406 14.526 9.72515 14.526 9.63153C14.5213 9.06511 14.0646 8.60175 13.496 8.60175Z" fill="url(#paint72_radial_265_425)"/>
    <path d="M14.0836 9.63137C14.0836 9.30376 13.8226 9.04163 13.4963 9.04163C13.1702 9.04163 12.9092 9.30376 12.9092 9.63137C12.9092 9.7297 12.9324 9.82332 12.9744 9.90292H14.0136C14.0556 9.82332 14.0836 9.7297 14.0836 9.63137Z" fill="black"/>
    <path d="M14.4321 9.50942C14.4321 9.17733 14.1631 8.95584 14.0905 8.88892L13.7598 9.21018L13.9633 9.62625L14.4321 9.50942Z" fill="url(#paint73_linear_265_425)"/>
    <path d="M13.292 9.24188C13.5101 9.12586 13.6394 8.94196 13.581 8.83113C13.5225 8.72029 13.2984 8.7245 13.0803 8.84052C12.8623 8.95654 12.7329 9.14045 12.7914 9.25128C12.8499 9.36211 13.074 9.35791 13.292 9.24188Z" fill="#C7A7A3" fill-opacity="0.9"/>
    <path d="M13.292 9.24188C13.5101 9.12586 13.6394 8.94196 13.581 8.83113C13.5225 8.72029 13.2984 8.7245 13.0803 8.84052C12.8623 8.95654 12.7329 9.14045 12.7914 9.25128C12.8499 9.36211 13.074 9.35791 13.292 9.24188Z" fill="url(#paint74_radial_265_425)"/>
    <path d="M18.2334 7.01207C18.6039 6.92153 19.5254 6.9668 20.1414 7.40943" stroke="#C9725D" stroke-width="1.22828" stroke-linecap="round"/>
    <path d="M13.8787 7.01207C13.5081 6.92153 12.5867 6.9668 11.9707 7.40943" stroke="#C9725D" stroke-width="1.22828" stroke-linecap="round"/>
    <path d="M10.3828 2.90212C11.0963 2.26386 12.1254 2.25742 12.7031 2.36056L13.1653 3.84982C12.8701 3.80469 12.6068 3.90784 12.3854 4.12059C11.8617 5.57503 10.0618 6.37703 9.22739 6.59623C9.0541 4.87489 9.15042 4.00455 10.3828 2.90212Z" fill="url(#paint75_radial_265_425)"/>
    <path d="M10.3828 2.90212C11.0963 2.26386 12.1254 2.25742 12.7031 2.36056L13.1653 3.84982C12.8701 3.80469 12.6068 3.90784 12.3854 4.12059C11.8617 5.57503 10.0618 6.37703 9.22739 6.59623C9.0541 4.87489 9.15042 4.00455 10.3828 2.90212Z" fill="url(#paint76_radial_265_425)"/>
    <path d="M15.3121 0.851814C14.0109 0.56326 12.6163 1.95426 12.4814 2.43778C14.253 6.61542 16.9733 6.21728 19.9913 5.88047C21.798 5.67884 21.994 6.50582 22.148 6.90554C21.6473 2.22503 18.2775 1.50941 15.3121 0.851814Z" fill="url(#paint77_radial_265_425)"/>
    <path d="M15.3121 0.851814C14.0109 0.56326 12.6163 1.95426 12.4814 2.43778C14.253 6.61542 16.9733 6.21728 19.9913 5.88047C21.798 5.67884 21.994 6.50582 22.148 6.90554C21.6473 2.22503 18.2775 1.50941 15.3121 0.851814Z" fill="url(#paint78_radial_265_425)"/>
    <path d="M15.3121 0.851814C14.0109 0.56326 12.6163 1.95426 12.4814 2.43778C14.253 6.61542 16.9733 6.21728 19.9913 5.88047C21.798 5.67884 21.994 6.50582 22.148 6.90554C21.6473 2.22503 18.2775 1.50941 15.3121 0.851814Z" fill="url(#paint79_radial_265_425)"/>
    <path d="M12.6836 2.29272C12.7104 2.57317 12.9533 3.62725 13.3095 4.26551" stroke="url(#paint80_linear_265_425)" stroke-width="0.61414" stroke-linecap="round"/>
    <path d="M21.5356 7.49994H17.5671C17.224 7.49994 16.9038 7.66076 16.6865 7.92496C16.5492 8.09726 16.3434 8.20065 16.1032 8.20065C15.863 8.20065 15.6572 8.09726 15.5199 7.92496C15.3026 7.66076 14.9824 7.49994 14.6393 7.49994H10.6594C10.4421 7.49994 10.2705 7.67224 10.2705 7.8905V8.14321C10.2705 8.26957 10.3277 8.37295 10.4192 8.44187C10.4649 8.47634 10.4992 8.53377 10.4992 8.59121V9.85474C10.4992 11.0609 11.4714 12.0488 12.6836 12.0488H13.4956C14.6965 12.0488 15.68 11.0724 15.68 9.85474V9.15404C15.6915 8.92433 15.8745 8.75203 16.1032 8.75203C16.3319 8.75203 16.5149 8.93582 16.5263 9.16552V9.85474C16.5263 11.0609 17.4985 12.0488 18.7107 12.0488H19.5227C20.7236 12.0488 21.7071 11.0724 21.7071 9.85474V8.57972C21.7071 8.52229 21.73 8.46485 21.7758 8.43039C21.8673 8.36147 21.9244 8.2466 21.9244 8.13173V7.8905C21.9244 7.67224 21.7529 7.49994 21.5356 7.49994ZM15.2912 9.73988C15.2912 10.7852 14.4449 11.6352 13.4041 11.6352H12.7751C11.7344 11.6352 10.8881 10.7852 10.8881 9.73988V8.91284C10.8881 8.34998 11.3341 7.90199 11.8945 7.90199H14.2733C14.8337 7.90199 15.2912 8.34998 15.2912 8.91284V9.73988ZM21.3297 9.73988C21.3297 10.7852 20.4834 11.6352 19.4427 11.6352H18.8137C17.7729 11.6352 16.9266 10.7852 16.9266 9.73988V8.91284C16.9266 8.34998 17.3727 7.90199 17.9331 7.90199H20.3233C20.8837 7.90199 21.3297 8.34998 21.3297 8.91284V9.73988Z" fill="url(#paint81_linear_265_425)"/>
    <path d="M21.5356 7.49994H17.5671C17.224 7.49994 16.9038 7.66076 16.6865 7.92496C16.5492 8.09726 16.3434 8.20065 16.1032 8.20065C15.863 8.20065 15.6572 8.09726 15.5199 7.92496C15.3026 7.66076 14.9824 7.49994 14.6393 7.49994H10.6594C10.4421 7.49994 10.2705 7.67224 10.2705 7.8905V8.14321C10.2705 8.26957 10.3277 8.37295 10.4192 8.44187C10.4649 8.47634 10.4992 8.53377 10.4992 8.59121V9.85474C10.4992 11.0609 11.4714 12.0488 12.6836 12.0488H13.4956C14.6965 12.0488 15.68 11.0724 15.68 9.85474V9.15404C15.6915 8.92433 15.8745 8.75203 16.1032 8.75203C16.3319 8.75203 16.5149 8.93582 16.5263 9.16552V9.85474C16.5263 11.0609 17.4985 12.0488 18.7107 12.0488H19.5227C20.7236 12.0488 21.7071 11.0724 21.7071 9.85474V8.57972C21.7071 8.52229 21.73 8.46485 21.7758 8.43039C21.8673 8.36147 21.9244 8.2466 21.9244 8.13173V7.8905C21.9244 7.67224 21.7529 7.49994 21.5356 7.49994ZM15.2912 9.73988C15.2912 10.7852 14.4449 11.6352 13.4041 11.6352H12.7751C11.7344 11.6352 10.8881 10.7852 10.8881 9.73988V8.91284C10.8881 8.34998 11.3341 7.90199 11.8945 7.90199H14.2733C14.8337 7.90199 15.2912 8.34998 15.2912 8.91284V9.73988ZM21.3297 9.73988C21.3297 10.7852 20.4834 11.6352 19.4427 11.6352H18.8137C17.7729 11.6352 16.9266 10.7852 16.9266 9.73988V8.91284C16.9266 8.34998 17.3727 7.90199 17.9331 7.90199H20.3233C20.8837 7.90199 21.3297 8.34998 21.3297 8.91284V9.73988Z" fill="url(#paint82_radial_265_425)"/>
    <defs>
        <linearGradient id="paint0_linear_265_425" x1="11.2243" y1="2.83281" x2="33.5516" y2="23.6819" gradientUnits="userSpaceOnUse">
            <stop stop-color="#EFBE85"/>
            <stop offset="0.567876" stop-color="#E8AC81"/>
            <stop offset="1" stop-color="#D6753D"/>
        </linearGradient>
        <linearGradient id="paint1_linear_265_425" x1="32.0891" y1="12.813" x2="8.1437" y2="12.813" gradientUnits="userSpaceOnUse">
            <stop stop-color="#509245"/>
            <stop offset="1" stop-color="#44803D"/>
        </linearGradient>
        <radialGradient id="paint2_radial_265_425" cx="0" cy="0" r="1" gradientUnits="userSpaceOnUse" gradientTransform="translate(5.0701 27.1) rotate(-56.861) scale(20.9205 28.5818)">
            <stop stop-color="#25585F"/>
            <stop offset="1" stop-color="#25585F" stop-opacity="0"/>
        </radialGradient>
        <radialGradient id="paint3_radial_265_425" cx="0" cy="0" r="1" gradientUnits="userSpaceOnUse" gradientTransform="translate(31.5173 26.8128) rotate(-125.298) scale(19.7923 19.549)">
            <stop stop-color="#358175"/>
            <stop offset="1" stop-color="#358175" stop-opacity="0"/>
        </radialGradient>
        <linearGradient id="paint4_linear_265_425" x1="13.0755" y1="1.61538" x2="33.5504" y2="25.4338" gradientUnits="userSpaceOnUse">
            <stop stop-color="#FFD59C"/>
            <stop offset="1" stop-color="#F69C5B"/>
        </linearGradient>
        <linearGradient id="paint5_linear_265_425" x1="-7.90322" y1="26.9921" x2="30.7668" y2="26.9921" gradientUnits="userSpaceOnUse">
            <stop stop-color="#D18F7B"/>
            <stop offset="1" stop-color="#F1B58B"/>
        </linearGradient>
        <linearGradient id="paint6_linear_265_425" x1="1.24609" y1="3.51548" x2="1.24609" y2="24.6947" gradientUnits="userSpaceOnUse">
            <stop stop-color="#D78248"/>
            <stop offset="1" stop-color="#D78248" stop-opacity="0"/>
        </linearGradient>
        <radialGradient id="paint7_radial_265_425" cx="0" cy="0" r="1" gradientUnits="userSpaceOnUse" gradientTransform="translate(0 2.50104) rotate(90) scale(10.696 0.706378)">
            <stop offset="0.355159" stop-color="#BC7B53"/>
            <stop offset="1" stop-color="#BC7B53" stop-opacity="0"/>
        </radialGradient>
        <linearGradient id="paint8_linear_265_425" x1="21.3974" y1="1.81806" x2="13.0214" y2="17.2988" gradientUnits="userSpaceOnUse">
            <stop stop-color="#FFD93C"/>
            <stop offset="1" stop-color="#E37923"/>
        </linearGradient>
        <radialGradient id="paint9_radial_265_425" cx="0" cy="0" r="1" gradientUnits="userSpaceOnUse" gradientTransform="translate(20.3976 13.6471) rotate(25.4288) scale(2.94302 4.18026)">
            <stop offset="0.191463" stop-color="#E38923"/>
            <stop offset="1" stop-color="#E38923" stop-opacity="0"/>
        </radialGradient>
        <radialGradient id="paint10_radial_265_425" cx="0" cy="0" r="1" gradientUnits="userSpaceOnUse" gradientTransform="translate(10.7542 12.1871) rotate(90) scale(5.14232 3.08448)">
            <stop stop-color="#C9641B"/>
            <stop offset="1" stop-color="#D77117" stop-opacity="0"/>
        </radialGradient>
        <radialGradient id="paint11_radial_265_425" cx="0" cy="0" r="1" gradientUnits="userSpaceOnUse" gradientTransform="translate(16.0056 12.294) rotate(90) scale(6.42838 6.66695)">
            <stop offset="0.617268" stop-color="#E26B25"/>
            <stop offset="1" stop-color="#E26B25" stop-opacity="0"/>
        </radialGradient>
        <radialGradient id="paint12_radial_265_425" cx="0" cy="0" r="1" gradientUnits="userSpaceOnUse" gradientTransform="translate(10.3641 10.2108) rotate(127.495) scale(2.34177 2.27117)">
            <stop offset="0.161391" stop-color="#C9681C"/>
            <stop offset="1" stop-color="#C9681C" stop-opacity="0"/>
        </radialGradient>
        <radialGradient id="paint13_radial_265_425" cx="0" cy="0" r="1" gradientUnits="userSpaceOnUse" gradientTransform="translate(11.0432 7.39919) rotate(100.492) scale(2.94998 3.05927)">
            <stop offset="0.365444" stop-color="#D76A18"/>
            <stop offset="1" stop-color="#D76A18" stop-opacity="0"/>
        </radialGradient>
        <radialGradient id="paint14_radial_265_425" cx="0" cy="0" r="1" gradientUnits="userSpaceOnUse" gradientTransform="translate(12.1724 1.57537) rotate(62.7074) scale(2.74486 5.21562)">
            <stop offset="0.221806" stop-color="#CBA140"/>
            <stop offset="0.921111" stop-color="#CBA140" stop-opacity="0"/>
        </radialGradient>
        <radialGradient id="paint15_radial_265_425" cx="0" cy="0" r="1" gradientUnits="userSpaceOnUse" gradientTransform="translate(22.3217 3.21061) rotate(132.385) scale(1.88531 2.63366)">
            <stop stop-color="#FFDF3C"/>
            <stop offset="1" stop-color="#FFDF3C" stop-opacity="0"/>
        </radialGradient>
        <radialGradient id="paint16_radial_265_425" cx="0" cy="0" r="1" gradientUnits="userSpaceOnUse" gradientTransform="translate(24.6323 8.85816) rotate(163.711) scale(2.20665 4.8192)">
            <stop stop-color="#FFD537"/>
            <stop offset="1" stop-color="#FFD537" stop-opacity="0"/>
        </radialGradient>
        <radialGradient id="paint17_radial_265_425" cx="0" cy="0" r="1" gradientUnits="userSpaceOnUse" gradientTransform="translate(12.8981 4.45388) rotate(-90.35) scale(1.58591 0.517688)">
            <stop offset="0.295258" stop-color="#DB6009"/>
            <stop offset="1" stop-color="#DB6009" stop-opacity="0"/>
        </radialGradient>
        <radialGradient id="paint18_radial_265_425" cx="0" cy="0" r="1" gradientUnits="userSpaceOnUse" gradientTransform="translate(16.0061 15.8642) rotate(90) scale(16.1357 7.11204)">
            <stop stop-color="#61342D"/>
            <stop offset="1" stop-color="#764747"/>
        </radialGradient>
        <radialGradient id="paint19_radial_265_425" cx="0" cy="0" r="1" gradientUnits="userSpaceOnUse" gradientTransform="translate(23.6186 21.0693) rotate(90) scale(9.62039 3.35951)">
            <stop stop-color="#9A6D66"/>
            <stop offset="1" stop-color="#9A6D66" stop-opacity="0"/>
        </radialGradient>
        <radialGradient id="paint20_radial_265_425" cx="0" cy="0" r="1" gradientUnits="userSpaceOnUse" gradientTransform="translate(12.2535 19.4539) rotate(134.874) scale(2.48208 2.00084)">
            <stop stop-color="#61332B"/>
            <stop offset="1" stop-color="#61332B" stop-opacity="0"/>
        </radialGradient>
        <radialGradient id="paint21_radial_265_425" cx="0" cy="0" r="1" gradientUnits="userSpaceOnUse" gradientTransform="translate(28.5803 29.9702) rotate(-90) scale(11.7024 4.40431)">
            <stop stop-color="#7C5A5A"/>
            <stop offset="1" stop-color="#735451"/>
        </radialGradient>
        <linearGradient id="paint22_linear_265_425" x1="26.4981" y1="32.5198" x2="26.4981" y2="28.1355" gradientUnits="userSpaceOnUse">
            <stop stop-color="#614451"/>
            <stop offset="1" stop-color="#614451" stop-opacity="0"/>
        </linearGradient>
        <linearGradient id="paint23_linear_265_425" x1="23.3333" y1="31.1547" x2="24.2625" y2="31.1369" gradientUnits="userSpaceOnUse">
            <stop offset="0.253974" stop-color="#4F2737"/>
            <stop offset="1" stop-color="#4F2737" stop-opacity="0"/>
        </linearGradient>
        <linearGradient id="paint24_linear_265_425" x1="5.86681" y1="29.8699" x2="8.60536" y2="29.8699" gradientUnits="userSpaceOnUse">
            <stop stop-color="#623D44"/>
            <stop offset="1" stop-color="#4F2E37"/>
        </linearGradient>
        <radialGradient id="paint25_radial_265_425" cx="0" cy="0" r="1" gradientUnits="userSpaceOnUse" gradientTransform="translate(10.8119 31.7489) rotate(180) scale(7.91493 19.8504)">
            <stop offset="0.575758" stop-color="#5D3841" stop-opacity="0"/>
            <stop offset="1" stop-color="#7F6260"/>
        </radialGradient>
        <radialGradient id="paint26_radial_265_425" cx="0" cy="0" r="1" gradientUnits="userSpaceOnUse" gradientTransform="translate(15.0773 19.0902) scale(4.11004 15.6954)">
            <stop stop-color="#BFAABA"/>
            <stop offset="1" stop-color="#7A5D72"/>
        </radialGradient>
        <linearGradient id="paint27_linear_265_425" x1="18.3555" y1="18.6452" x2="21.5541" y2="18.6452" gradientUnits="userSpaceOnUse">
            <stop stop-color="#613327"/>
            <stop offset="0.371011" stop-color="#764440"/>
        </linearGradient>
        <radialGradient id="paint28_radial_265_425" cx="0" cy="0" r="1" gradientUnits="userSpaceOnUse" gradientTransform="translate(21.9887 19.8738) rotate(-115.124) scale(4.29326 2.58964)">
            <stop stop-color="#90645E"/>
            <stop offset="1" stop-color="#90645E" stop-opacity="0"/>
        </radialGradient>
        <radialGradient id="paint29_radial_265_425" cx="0" cy="0" r="1" gradientUnits="userSpaceOnUse" gradientTransform="translate(20.2057 21.0331) rotate(-125.164) scale(1.87718 0.341378)">
            <stop stop-color="#8A5D57"/>
            <stop offset="1" stop-color="#8A5D57" stop-opacity="0"/>
        </radialGradient>
        <radialGradient id="paint30_radial_265_425" cx="0" cy="0" r="1" gradientUnits="userSpaceOnUse" gradientTransform="translate(17.7465 15.6485) rotate(66.7576) scale(1.54316 2.87981)">
            <stop offset="0.358549" stop-color="#481E13"/>
            <stop offset="1" stop-color="#4A1D14" stop-opacity="0"/>
        </radialGradient>
        <linearGradient id="paint31_linear_265_425" x1="13.6556" y1="18.6447" x2="10.457" y2="18.6447" gradientUnits="userSpaceOnUse">
            <stop stop-color="#744036"/>
            <stop offset="0.639259" stop-color="#72433E"/>
        </linearGradient>
        <radialGradient id="paint32_radial_265_425" cx="0" cy="0" r="1" gradientUnits="userSpaceOnUse" gradientTransform="translate(13.1656 20.925) rotate(-88.8592) scale(3.59041 1.44396)">
            <stop stop-color="#875955"/>
            <stop offset="1" stop-color="#875955" stop-opacity="0"/>
        </radialGradient>
        <linearGradient id="paint33_linear_265_425" x1="11.5573" y1="16.9943" x2="12.2014" y2="17.2436" gradientUnits="userSpaceOnUse">
            <stop stop-color="#6F5048"/>
            <stop offset="1" stop-color="#6F5048" stop-opacity="0"/>
        </linearGradient>
        <radialGradient id="paint34_radial_265_425" cx="0" cy="0" r="1" gradientUnits="userSpaceOnUse" gradientTransform="translate(13.923 15.8635) rotate(122.669) scale(1.25798 2.35041)">
            <stop offset="0.219333" stop-color="#481E13"/>
            <stop offset="1" stop-color="#4A1D14" stop-opacity="0"/>
        </radialGradient>
        <radialGradient id="paint35_radial_265_425" cx="0" cy="0" r="1" gradientUnits="userSpaceOnUse" gradientTransform="translate(16.4378 15.8959) rotate(90) scale(3.94867 2.80489)">
            <stop offset="0.173699" stop-color="#DD9C2B"/>
            <stop offset="0.637336" stop-color="#C07518"/>
            <stop offset="1" stop-color="#894E01"/>
        </radialGradient>
        <radialGradient id="paint36_radial_265_425" cx="0" cy="0" r="1" gradientUnits="userSpaceOnUse" gradientTransform="translate(24.0666 24.6855) rotate(134.874) scale(1.62095 1.81272)">
            <stop stop-color="#FFE549"/>
            <stop offset="0.813629" stop-color="#FEAE1B"/>
        </radialGradient>
        <radialGradient id="paint37_radial_265_425" cx="0" cy="0" r="1" gradientUnits="userSpaceOnUse" gradientTransform="translate(8.07256 25.8251) scale(1.82235 5.73519)">
            <stop offset="0.213333" stop-color="#DF9A32"/>
            <stop offset="1" stop-color="#B36C17"/>
        </radialGradient>
        <linearGradient id="paint38_linear_265_425" x1="22.6899" y1="26.0233" x2="17.6864" y2="26.0233" gradientUnits="userSpaceOnUse">
            <stop stop-color="#E9266F"/>
            <stop offset="1" stop-color="#BF1B74"/>
        </linearGradient>
        <linearGradient id="paint39_linear_265_425" x1="9.50391" y1="24.6229" x2="9.99351" y2="24.6229" gradientUnits="userSpaceOnUse">
            <stop stop-color="#6D6670"/>
            <stop offset="1" stop-color="#6D6670" stop-opacity="0"/>
        </linearGradient>
        <linearGradient id="paint40_linear_265_425" x1="12.0035" y1="29.7207" x2="7.50037" y2="29.7207" gradientUnits="userSpaceOnUse">
            <stop stop-color="#FFD743"/>
            <stop offset="1" stop-color="#F19E2D"/>
        </linearGradient>
        <linearGradient id="paint41_linear_265_425" x1="23.4044" y1="29.2541" x2="19.042" y2="29.2541" gradientUnits="userSpaceOnUse">
            <stop stop-color="#FFE243"/>
            <stop offset="1" stop-color="#FFAB30"/>
        </linearGradient>
        <linearGradient id="paint42_linear_265_425" x1="10.0381" y1="22.7566" x2="22.473" y2="22.7566" gradientUnits="userSpaceOnUse">
            <stop stop-color="#564567"/>
            <stop offset="1" stop-color="#564567"/>
        </linearGradient>
        <linearGradient id="paint43_linear_265_425" x1="16.4652" y1="21.6797" x2="16.4652" y2="23.0258" gradientUnits="userSpaceOnUse">
            <stop stop-color="#DCD5E1"/>
            <stop offset="1" stop-color="#B2ACB9"/>
        </linearGradient>
        <linearGradient id="paint44_linear_265_425" x1="nan" y1="nan" x2="nan" y2="nan" gradientUnits="userSpaceOnUse">
            <stop stop-color="#D27619"/>
            <stop offset="1" stop-color="#D27619" stop-opacity="0"/>
        </linearGradient>
        <linearGradient id="paint45_linear_265_425" x1="nan" y1="nan" x2="nan" y2="nan" gradientUnits="userSpaceOnUse">
            <stop stop-color="#FFB60A"/>
            <stop offset="1" stop-color="#FFB60A" stop-opacity="0"/>
        </linearGradient>
        <linearGradient id="paint46_linear_265_425" x1="nan" y1="nan" x2="nan" y2="nan" gradientUnits="userSpaceOnUse">
            <stop stop-color="#D27619"/>
            <stop offset="1" stop-color="#D27619" stop-opacity="0"/>
        </linearGradient>
        <linearGradient id="paint47_linear_265_425" x1="nan" y1="nan" x2="nan" y2="nan" gradientUnits="userSpaceOnUse">
            <stop stop-color="#FFB60A"/>
            <stop offset="1" stop-color="#FFB60A" stop-opacity="0"/>
        </linearGradient>
        <linearGradient id="paint48_linear_265_425" x1="nan" y1="nan" x2="nan" y2="nan" gradientUnits="userSpaceOnUse">
            <stop stop-color="#D27619"/>
            <stop offset="1" stop-color="#D27619" stop-opacity="0"/>
        </linearGradient>
        <linearGradient id="paint49_linear_265_425" x1="nan" y1="nan" x2="nan" y2="nan" gradientUnits="userSpaceOnUse">
            <stop stop-color="#FFB60A"/>
            <stop offset="1" stop-color="#FFB60A" stop-opacity="0"/>
        </linearGradient>
        <linearGradient id="paint50_linear_265_425" x1="8.77344" y1="9.94242" x2="12.1732" y2="9.94242" gradientUnits="userSpaceOnUse">
            <stop stop-color="#E79B27"/>
            <stop offset="1" stop-color="#B96201"/>
        </linearGradient>
        <radialGradient id="paint51_radial_265_425" cx="0" cy="0" r="1" gradientUnits="userSpaceOnUse" gradientTransform="translate(20.6458 10.3486) rotate(-24.5391) scale(3.14344 3.84909)">
            <stop offset="0.572298" stop-color="#FFC531"/>
            <stop offset="0.904617" stop-color="#FFE549"/>
        </radialGradient>
        <radialGradient id="paint52_radial_265_425" cx="0" cy="0" r="1" gradientUnits="userSpaceOnUse" gradientTransform="translate(21.2818 10.1158) rotate(-20.3797) scale(1.49956 1.50456)">
            <stop offset="0.71002" stop-color="#FFBA25" stop-opacity="0"/>
            <stop offset="1" stop-color="#FFBA25"/>
        </radialGradient>
        <radialGradient id="paint53_radial_265_425" cx="0" cy="0" r="1" gradientUnits="userSpaceOnUse" gradientTransform="translate(10.6451 9.84117) rotate(180) scale(1.23398 1.18559)">
            <stop offset="0.415002" stop-color="#D67923" stop-opacity="0"/>
            <stop offset="1" stop-color="#D67923"/>
        </radialGradient>
        <radialGradient id="paint54_radial_265_425" cx="0" cy="0" r="1" gradientUnits="userSpaceOnUse" gradientTransform="translate(19.29 9.22241) rotate(155.148) scale(8.23408 11.0526)">
            <stop stop-color="#FFE644"/>
            <stop offset="1" stop-color="#EB9235"/>
        </radialGradient>
        <radialGradient id="paint55_radial_265_425" cx="0" cy="0" r="1" gradientUnits="userSpaceOnUse" gradientTransform="translate(18.1883 10.0272) rotate(152.02) scale(2.74457 2.33432)">
            <stop stop-color="#FFE842"/>
            <stop offset="1" stop-color="#FFE842" stop-opacity="0"/>
        </radialGradient>
        <radialGradient id="paint56_radial_265_425" cx="0" cy="0" r="1" gradientUnits="userSpaceOnUse" gradientTransform="translate(13.5012 17.0489) rotate(-78.3605) scale(4.7657 6.02241)">
            <stop stop-color="#E4883F"/>
            <stop offset="1" stop-color="#E4883F" stop-opacity="0"/>
        </radialGradient>
        <radialGradient id="paint57_radial_265_425" cx="0" cy="0" r="1" gradientUnits="userSpaceOnUse" gradientTransform="translate(15.7045 8.66435) rotate(90) scale(8.58573 13.5767)">
            <stop offset="0.592664" stop-color="#F3943B" stop-opacity="0"/>
            <stop offset="1" stop-color="#D97C39"/>
        </radialGradient>
        <radialGradient id="paint58_radial_265_425" cx="0" cy="0" r="1" gradientUnits="userSpaceOnUse" gradientTransform="translate(16.7261 11.1337) rotate(164.477) scale(6.4655 11.1736)">
            <stop offset="0.876514" stop-color="#D4993E" stop-opacity="0"/>
            <stop offset="1" stop-color="#D4993E"/>
        </radialGradient>
        <radialGradient id="paint59_radial_265_425" cx="0" cy="0" r="1" gradientUnits="userSpaceOnUse" gradientTransform="translate(18.6491 8.73958) rotate(-90) scale(1.32788 1.62251)">
            <stop stop-color="#FFBB31"/>
            <stop offset="1" stop-color="#FFBB31" stop-opacity="0"/>
        </radialGradient>
        <radialGradient id="paint60_radial_265_425" cx="0" cy="0" r="1" gradientUnits="userSpaceOnUse" gradientTransform="translate(13.8016 8.84017) rotate(-90) scale(1.56931 1.79064)">
            <stop stop-color="#F09429"/>
            <stop offset="1" stop-color="#F09429" stop-opacity="0"/>
        </radialGradient>
        <radialGradient id="paint61_radial_265_425" cx="0" cy="0" r="1" gradientUnits="userSpaceOnUse" gradientTransform="translate(21.8592 10.455) rotate(180) scale(1.54743 5.11664)">
            <stop stop-color="#FFDA39"/>
            <stop offset="1" stop-color="#FFDA39" stop-opacity="0"/>
        </radialGradient>
        <linearGradient id="paint62_linear_265_425" x1="16.0051" y1="12.1924" x2="16.0051" y2="9.09784" gradientUnits="userSpaceOnUse">
            <stop stop-color="#FFC134"/>
            <stop offset="1" stop-color="#F8C73F"/>
        </linearGradient>
        <radialGradient id="paint63_radial_265_425" cx="0" cy="0" r="1" gradientUnits="userSpaceOnUse" gradientTransform="translate(16.9062 11.2926) rotate(-105.826) scale(2.93813 1.67496)">
            <stop offset="0.0168227" stop-color="#FFE848"/>
            <stop offset="1" stop-color="#FFE848" stop-opacity="0"/>
        </radialGradient>
        <linearGradient id="paint64_linear_265_425" x1="14.803" y1="11.3127" x2="15.7847" y2="11.4323" gradientUnits="userSpaceOnUse">
            <stop stop-color="#F8A322"/>
            <stop offset="1" stop-color="#F8A322" stop-opacity="0"/>
        </linearGradient>
        <linearGradient id="paint65_linear_265_425" x1="16.0051" y1="12.2986" x2="16.0051" y2="11.5944" gradientUnits="userSpaceOnUse">
            <stop stop-color="#E48538"/>
            <stop offset="1" stop-color="#E48538" stop-opacity="0"/>
        </linearGradient>
        <linearGradient id="paint66_linear_265_425" x1="16.095" y1="12.268" x2="16.095" y2="12.1071" gradientUnits="userSpaceOnUse">
            <stop stop-color="#E2802F"/>
            <stop offset="1" stop-color="#E2802F" stop-opacity="0"/>
        </linearGradient>
        <radialGradient id="paint67_radial_265_425" cx="0" cy="0" r="1" gradientUnits="userSpaceOnUse" gradientTransform="translate(16.3353 10.8798) rotate(144.343) scale(1.812 2.43048)">
            <stop offset="0.797297" stop-color="#E2802F" stop-opacity="0"/>
            <stop offset="1" stop-color="#E2802F"/>
        </radialGradient>
        <linearGradient id="paint68_linear_265_425" x1="15.1672" y1="14.0025" x2="15.6908" y2="12.9987" gradientUnits="userSpaceOnUse">
            <stop stop-color="#FEAC35"/>
            <stop offset="1" stop-color="#FEAC35" stop-opacity="0"/>
        </linearGradient>
        <radialGradient id="paint69_radial_265_425" cx="0" cy="0" r="1" gradientUnits="userSpaceOnUse" gradientTransform="translate(18.512 9.15218) rotate(90) scale(0.936182 1.48256)">
            <stop offset="0.80198" stop-color="#925C51"/>
            <stop offset="1" stop-color="#85534D"/>
        </radialGradient>
        <radialGradient id="paint70_radial_265_425" cx="0" cy="0" r="1" gradientUnits="userSpaceOnUse" gradientTransform="translate(18.2497 9.25016) rotate(-127.69) scale(0.434987 0.598214)">
            <stop offset="0.765532" stop-color="#FFE6E2" stop-opacity="0"/>
            <stop offset="0.966159" stop-color="#FFE6E2"/>
        </radialGradient>
        <linearGradient id="paint71_linear_265_425" x1="19.4048" y1="9.21242" x2="19.0441" y2="9.43363" gradientUnits="userSpaceOnUse">
            <stop stop-color="#B4948D"/>
            <stop offset="1" stop-color="#B4948D" stop-opacity="0"/>
        </linearGradient>
        <radialGradient id="paint72_radial_265_425" cx="0" cy="0" r="1" gradientUnits="userSpaceOnUse" gradientTransform="translate(13.4983 9.15218) rotate(90) scale(0.936186 1.48258)">
            <stop offset="0.80198" stop-color="#925C51"/>
            <stop offset="1" stop-color="#85534D"/>
        </radialGradient>
        <linearGradient id="paint73_linear_265_425" x1="14.3524" y1="9.21375" x2="13.9917" y2="9.43506" gradientUnits="userSpaceOnUse">
            <stop stop-color="#B4948D"/>
            <stop offset="1" stop-color="#B4948D" stop-opacity="0"/>
        </linearGradient>
        <radialGradient id="paint74_radial_265_425" cx="0" cy="0" r="1" gradientUnits="userSpaceOnUse" gradientTransform="translate(13.3399 9.36993) rotate(-118.705) scale(0.568543 0.681799)">
            <stop offset="0.765532" stop-color="#FFE6E2" stop-opacity="0"/>
            <stop offset="0.966159" stop-color="#FFE6E2"/>
        </radialGradient>
        <radialGradient id="paint75_radial_265_425" cx="0" cy="0" r="1" gradientUnits="userSpaceOnUse" gradientTransform="translate(12.8861 1.81902) rotate(129.43) scale(6.18489 2.69515)">
            <stop offset="0.395696" stop-color="#EE971B" stop-opacity="0"/>
            <stop offset="0.911046" stop-color="#D8772C"/>
        </radialGradient>
        <radialGradient id="paint76_radial_265_425" cx="0" cy="0" r="1" gradientUnits="userSpaceOnUse" gradientTransform="translate(12.7257 2.45058) rotate(144.339) scale(4.3873 2.17134)">
            <stop offset="0.120488" stop-color="#FFCA2D"/>
            <stop offset="1" stop-color="#FFCA2D" stop-opacity="0"/>
        </radialGradient>
        <radialGradient id="paint77_radial_265_425" cx="0" cy="0" r="1" gradientUnits="userSpaceOnUse" gradientTransform="translate(18.0632 0.46585) rotate(115.532) scale(5.82491 8.24763)">
            <stop offset="0.627022" stop-color="#F49523" stop-opacity="0"/>
            <stop offset="1" stop-color="#F49523"/>
        </radialGradient>
        <radialGradient id="paint78_radial_265_425" cx="0" cy="0" r="1" gradientUnits="userSpaceOnUse" gradientTransform="translate(18.8874 1.91203) rotate(105.843) scale(3.96816 8.28499)">
            <stop offset="0.131886" stop-color="#FFE337"/>
            <stop offset="1" stop-color="#FFE337" stop-opacity="0"/>
        </radialGradient>
        <radialGradient id="paint79_radial_265_425" cx="0" cy="0" r="1" gradientUnits="userSpaceOnUse" gradientTransform="translate(17.326 8.41014) rotate(-117.744) scale(8.4322 7.51917)">
            <stop offset="0.897563" stop-color="#CA9B37" stop-opacity="0"/>
            <stop offset="1" stop-color="#CA9B37"/>
        </radialGradient>
        <linearGradient id="paint80_linear_265_425" x1="12.6836" y1="2.68922" x2="13.3142" y2="4.15712" gradientUnits="userSpaceOnUse">
            <stop stop-color="#FAA719"/>
            <stop offset="1" stop-color="#DB6008"/>
        </linearGradient>
        <linearGradient id="paint81_linear_265_425" x1="23.9324" y1="5.64455" x2="16.0637" y2="13.4786" gradientUnits="userSpaceOnUse">
            <stop stop-color="#52336D"/>
            <stop offset="1" stop-color="#3C2850"/>
        </linearGradient>
        <radialGradient id="paint82_radial_265_425" cx="0" cy="0" r="1" gradientUnits="userSpaceOnUse" gradientTransform="translate(10.7175 9.23445) scale(1.03644 3.12304)">
            <stop stop-color="#52396B"/>
            <stop offset="1" stop-color="#52396B" stop-opacity="0"/>
        </radialGradient>
    </defs>
</svg>
